SplineFontDB: 3.0
FontName: Experiment-Sinhala
FullName: Experiment-Sinhala
FamilyName: Experiment-Sinhala
Weight: Regular
Copyright: Copyright (c) 2015, Pathum Egodawatta
UComments: "2015-9-29: Created with FontForge (http://fontforge.org)"
Version: 0.001
ItalicAngle: 0
UnderlinePosition: -99
UnderlineWidth: 49
Ascent: 750
Descent: 250
InvalidEm: 0
LayerCount: 4
Layer: 0 0 "Back" 1
Layer: 1 0 "Fore" 0
Layer: 2 0 "Back 3" 1
Layer: 3 0 "s1" 1
PreferredKerning: 4
XUID: [1021 779 -1439063335 14876943]
FSType: 0
OS2Version: 0
OS2_WeightWidthSlopeOnly: 0
OS2_UseTypoMetrics: 1
CreationTime: 1443542790
ModificationTime: 1463480245
PfmFamily: 17
TTFWeight: 400
TTFWidth: 5
LineGap: 122
VLineGap: 0
OS2TypoAscent: 879
OS2TypoAOffset: 0
OS2TypoDescent: -250
OS2TypoDOffset: 0
OS2TypoLinegap: 122
OS2WinAscent: 879
OS2WinAOffset: 0
OS2WinDescent: 49
OS2WinDOffset: 0
HheadAscent: 779
HheadAOffset: 0
HheadDescent: -27
HheadDOffset: 0
OS2Vendor: 'PfEd'
Lookup: 4 0 0 "'abvs' Above Base Substitutions in Sinhala lookup 0" { "'abvs' Above Base Substitutions in Sinhala lookup 0-1"  "'abvs' Above Base Substitutions in Sinhala lookup 0-2"  } ['abvs' ('DFLT' <'dflt' > 'sinh' <'dflt' > ) ]
Lookup: 4 0 0 "si_akhands" { "si_akhands subtable"  } ['akhn' ('sinh' <'dflt' > ) ]
Lookup: 4 0 0 "si_reph" { "si_reph subtable"  } ['rphf' ('sinh' <'dflt' > ) ]
Lookup: 4 0 0 "si_halant_1" { "si_halant_1 subtable"  } ['abvs' ('sinh' <'dflt' > ) ]
Lookup: 4 0 0 "si_halant_2" { "si_halant_2 subtable"  } ['abvs' ('sinh' <'dflt' > ) ]
Lookup: 4 0 0 "si_halant_3" { "si_halant_3 subtable"  } ['abvs' ('sinh' <'dflt' > ) ]
Lookup: 4 0 0 "si_abvs_1" { "si_abvs_1 subtable"  } ['abvs' ('sinh' <'dflt' > ) ]
Lookup: 4 0 0 "si_abvs_2" { "si_abvs_2 subtable"  } ['abvs' ('sinh' <'dflt' > ) ]
Lookup: 4 0 0 "si_abvs_3" { "si_abvs_3 subtable"  } ['abvs' ('sinh' <'dflt' > ) ]
Lookup: 4 0 0 "si_abvs_4" { "si_abvs_4 subtable"  } ['abvs' ('sinh' <'dflt' > ) ]

StartChar: si_Tta
Encoding: 34 3495 0
GlifName: si_T_ta
Width: 809
VWidth: 16
Flags: HMW
LayerCount: 4
Back
SplineSet
368.064453125 334 m 1
 342.064453125 346 308.064453125 352 275.064453125 350 c 0
 204.991210938 345.8515625 131.9296875 292.790039062 131.064453125 208 c 0
 129.977539062 108.803710938 214.56640625 42.294921875 382.064453125 43 c 4
 571.850585938 43.794921875 665.34375 185.697265625 671.064453125 327 c 0
 679.772460938 540.58984375 584.08984375 673.365234375 373.064453125 676 c 0
 237.897460938 677.537109375 136.064453125 595 133.064453125 595 c 1
 100.064453125 648 l 0
 150.918945312 685.638671875 261.47265625 734.567382812 375.064453125 734 c 0
 602.788085938 732.85546875 743.565429688 561.63671875 743.064453125 332 c 0
 742.6171875 105.602539062 599.963867188 -56.892578125 376.064453125 -59 c 0
 170.45703125 -60.677734375 53.400390625 38.0029296875 50.064453125 176 c 0
 46.775390625 320.966796875 169.049804688 394.418945312 280.064453125 398 c 0
 342.064453125 400 382.064453125 379 382.064453125 379 c 1
 368.064453125 334 l 1
EndSplineSet
Fore
SplineSet
45 217 m 0
 45 371 172 457 287 457 c 0
 344 457 381 438 381 438 c 1
 383 422 372 396 367 390 c 5
 344 400 316 406 287 406 c 4
 203 406 117 351 117 245 c 0
 117 143 212 67 386 67 c 0
 595 67 683 215 689 372 c 0
 696 558 594 702 368 702 c 0
 235 702 160 639 157 639 c 1
 145 651 133 671 139 699 c 1
 190 736 279 764 372 764 c 0
 599 764 760 605 754 365 c 0
 748 129 614 -35 385 -35 c 0
 173 -35 45 71 45 217 c 0
EndSplineSet
Layer: 2
SplineSet
389.189453125 272 m 5
 243.189453125 288 140.189453125 252 142.189453125 158 c 4
 143.189453125 94 196.189453125 42 336.189453125 43 c 4
 505.189453125 44 613.88671875 173.225585938 622.189453125 326 c 4
 632.189453125 510 528.885742188 659.0234375 335.189453125 648 c 4
 212.189453125 641 119.189453125 580 116.189453125 580 c 5
 93.189453125 627 l 5
 133.189453125 651 238.189453125 706 366.189453125 706 c 4
 583.189453125 705 703.189453125 537 693.189453125 321 c 4
 683.291992188 107.228515625 560.189453125 -56 314.189453125 -58 c 4
 178.189453125 -59 59.189453125 8 59.189453125 137 c 4
 59.189453125 291 218.189453125 335 340.189453125 328 c 5
 350.189453125 388 317.189453125 438 225.189453125 438 c 5
 199.189453125 357 l 5
 148.189453125 350 113.189453125 379 122.189453125 425 c 4
 132.189453125 481 190.189453125 500 237.189453125 500 c 4
 313.189453125 500 396.189453125 469 397.189453125 359 c 4
 397.189453125 323 389.189453125 272 389.189453125 272 c 5
EndSplineSet
EndChar

StartChar: si_Pa
Encoding: 46 3508 1
GlifName: si_P_a
Width: 818
VWidth: 6
Flags: HMW
LayerCount: 4
Back
SplineSet
505.01953125 352 m 1
 457.01953125 333 l 1
 449.01953125 358 442.01953125 384 442.01953125 426 c 0
 443.01953125 512 524.01953125 556 585.01953125 556 c 0
 668.01953125 556 720.01953125 507 720.01953125 427 c 0
 720.01953125 349 623.01953125 309 623.01953125 309 c 1
 607.01953125 326 l 1
 641.071289062 347.129882812 655.903320312 377.10546875 656.01953125 417 c 0
 656.154296875 463 622.01953125 494 563.01953125 494 c 0
 516.01953125 494 480.01953125 462 480.01953125 419 c 0
 480.01953125 367 505.01953125 352 505.01953125 352 c 1
124.01953125 209 m 0
 123.01953125 124 208.01953125 45 393.01953125 45 c 0
 568.01953125 45 668.470703125 127.008789062 670.01953125 216 c 0
 671.794921875 318.00390625 554.01953125 348 457.01953125 333 c 1
 477.01953125 373 l 1
 622.01953125 402 745.01953125 331 741.01953125 193 c 0
 736.01953125 29 569.01953125 -59 388.01953125 -59 c 0
 194.01953125 -59 43.01953125 33 45.01953125 180 c 0
 47.01953125 339 213.01953125 394 321.01953125 384 c 1
 297.01953125 345 l 1
 304.01953125 365 317.392578125 386.33203125 313.01953125 415 c 0
 304.01953125 474 244.01953125 505 176.01953125 490 c 0
 209.01953125 511 l 1
 154.01953125 409 l 1
 113.01953125 411 86.6201171875 436.013671875 88.01953125 471 c 0
 90.01953125 521 147.01953125 557 207.01953125 557 c 0
 277.01953125 557 349.01953125 517 351.01953125 439 c 0
 352.01953125 402 346.01953125 370 337.01953125 333 c 1
 213.01953125 351 125.01953125 287 124.01953125 209 c 0
EndSplineSet
Fore
SplineSet
35 207 m 0
 35 365 184.737051793 427 296 427 c 0
 305 427 313 427 321 426 c 1
 293 387 l 1
 299 404 310 423 310 446 c 0
 310 503 262.884615385 536 210 536 c 0
 199 536 187 535 176 532 c 1
 209 553 l 1
 154 451 l 1
 114 453 88 476 88 510 c 0
 88 562 147 599 207 599 c 0
 281 599 351 557 351 473 c 0
 351 439 345 409 337 375 c 1
 323 377 309 378 296 378 c 0
 188.301675978 378 107 315 107 238 c 0
 107 152.035087719 191.970642062 63.9474133166 393 63 c 0
 609.85106383 61.978021978 705 156 705 249 c 0
 705 342 606.707602339 379 514 379 c 0
 496.978723404 379 479.957446809 378 464 375 c 1
 487 415 l 1
 509 420 530 422 550 422 c 0
 675.343283582 422 771 351 771 230 c 0
 771 57.3745173745 585.467422096 -33 388 -33 c 0
 189.373177843 -33 35 59.5423728814 35 207 c 0
449 468 m 0
 450.097902098 555.984615385 532.439067874 601.914891581 606 601 c 4
 684.414814815 600 740 555 740 479 c 0
 740 395.408470588 634 357 634 357 c 1
 611 374 l 1
 651.244897959 395.461538461 669 433.274725275 669 467 c 0
 669 512.402597403 628.311827957 543 583 543 c 0
 528.302325581 543 487 508.052631579 487 460 c 0
 487 408 512 393 512 393 c 1
 464 375 l 1
 456 400 448.487759682 426.003123808 449 468 c 0
EndSplineSet
EndChar

StartChar: si_Va
Encoding: 55 3520 2
GlifName: si_V_a
Width: 808
VWidth: 16
Flags: HMW
LayerCount: 4
Back
SplineSet
385.052734375 284 m 5
 249.556640625 301.37890625 122.518554688 252.458984375 127.052734375 158 c 4
 130.122070312 87.791015625 218.32421875 45.1572265625 364.052734375 46 c 4
 558.052734375 47.1220703125 666.052734375 174.791015625 666.052734375 339 c 4
 666.052734375 547.71875 556.994140625 679.712890625 341.052734375 677 c 4
 218.116210938 675.456054688 131.36328125 606 128.052734375 606 c 5
 96.052734375 660 l 5
 138.2890625 688.125 218.431640625 735.633789062 357.052734375 735 c 4
 564.869140625 734.018554688 729.052734375 582.319335938 729.052734375 331 c 4
 729.052734375 111.353515625 597.467773438 -48.5791015625 374.052734375 -58 c 4
 191.609375 -65.2548828125 48.40234375 8.0341796875 45.052734375 137 c 4
 41.296875 299.32421875 238.4921875 339.377929688 353.052734375 332 c 5
 353.052734375 402 303.052734375 438 211.052734375 438 c 5
 185.052734375 357 l 5
 134.052734375 350 99.8134765625 378.857421875 108.052734375 425 c 4
 118.052734375 481 176.052734375 500 223.052734375 500 c 4
 299.052734375 500 389.051757812 463 393.052734375 359 c 4
 394.436523438 323.026367188 385.052734375 284 385.052734375 284 c 5
EndSplineSet
Fore
SplineSet
50 163 m 0
 50 310 202 367 317 367 c 0
 326 367 335 367 343 366 c 1
 343 436 283 472 211 472 c 1
 155 391 l 1
 130 391 98 409 97 448 c 0
 96 504 153 537 212 537 c 0
 290 537 386 488 386 379 c 0
 386 345 378 314 378 314 c 1
 360 316 339 317 321 317 c 0
 210 317 117 272 117 193 c 0
 117 116 212 61 382 62 c 4
 575 63.009765625 694 203.36328125 694 373 c 0
 694 580.150390625 562 709 353 709 c 0
 230 709 148 649 146 649 c 1
 135 656.5 123 681.8125 127 709 c 1
 169 737 248 767 360 767 c 0
 582 767 753 619 753 364 c 0
 753 126 617 -41 374 -41 c 4
 193 -41 50 36 50 163 c 0
EndSplineSet
EndChar

StartChar: si_Ra
Encoding: 53 3515 4
GlifName: si_R_a
Width: 741
VWidth: 25
Flags: HMW
LayerCount: 4
Back
SplineSet
603 785 m 1
 603 707.080078125 536.435546875 660.377929688 428 594 c 0
 300 516 125 415 125 245 c 0
 125 138 214 48 360 48 c 4
 537.439453125 48 602.853515625 143 606 242 c 4
 610.389648438 379.393554688 502.021484375 481 377 481 c 0
 208.249023438 481 137 339 137 339 c 1
 165 428 l 0
 164 431 253.985351562 531.200195312 386 532 c 0
 536.497072311 532.911779604 688.461914062 424.852539062 685 245 c 0
 681.881835938 83.00390625 550.1171875 -52 356 -52 c 0
 153 -52 47.3366726873 93.98512553 55 252 c 0
 67.9033203125 518.061523438 406 604 504 736 c 1
 544 834 l 1
 586.75390625 835.307617188 603 811.384765625 603 785 c 1
EndSplineSet
Fore
SplineSet
59 243 m 4
 59 523 407 629 507 763 c 5
 547 861 l 5
 548 861 549 861 550 861 c 4
 599.5 861 616 838 616 812 c 4
 616 744 549.981147693 685.366990356 441 621 c 4
 308.936507937 543 116 437 116 267 c 4
 116 148.342465753 206.44 54 354 54 c 4
 517.225806452 54 607 159.386666667 607 282 c 4
 607 419.523404255 508.27796155 507.231197432 375 508 c 4
 211.755186722 509 139.966804979 367 138 366 c 5
 162 426 l 5
 161.016666667 429 268.2 559 398 559 c 4
 558.241134752 559 684 442 684 267 c 4
 684 100 562.570977918 -47 355 -47 c 4
 155.103896104 -47 59 91 59 243 c 4
EndSplineSet
EndChar

StartChar: si_Ca
Encoding: 27 3488 5
GlifName: si_C_a
Width: 862
VWidth: 16
Flags: HMW
LayerCount: 4
Back
SplineSet
49.751953125 327 m 5
 470.751953125 333 l 1
 465.751953125 283 l 1
 142.751953125 283 l 1
 48.751953125 271 l 5
 49.751953125 327 l 5
EndSplineSet
Refer: 2 3520 N 1 0 0 1 79.7519 0 2
Fore
SplineSet
65 309 m 1
 60 331 59 351 65 367 c 5
 444 367 l 5
 446 324 l 1
 150 324 l 1
 65 309 l 1
EndSplineSet
Refer: 2 3520 N 1 0 0 1 75 0 2
Layer: 2
SplineSet
470.293945312 225.029296875 m 5
 469.268554688 225.029296875 434.405273438 225.541992188 391.338867188 225.541992188 c 4
 315.313476562 225.541992188 213.946289062 217.26953125 213.946289062 152.739257812 c 5
 216.052734375 117.782226562 267.540039062 54.419921875 409.283203125 53.2763671875 c 4
 559.501953125 52.064453125 626.666015625 170.841796875 626.666015625 336.284179688 c 5
 626.666015625 521.017578125 560.528320312 628.779296875 391.338867188 636.2109375 c 5
 304.180664062 632.109375 153.9609375 569.047851562 150.884765625 569.047851562 c 5
 134.478515625 610.576171875 l 4
 171.905273438 637.236328125 302.129882812 696.196289062 392.364257812 695.68359375 c 4
 602.569335938 694.658203125 708.697265625 548.540039062 708.697265625 331.157226562 c 4
 708.697265625 112.749023438 621.5390625 -37.470703125 405.181640625 -37.470703125 c 4
 248.809570312 -37.470703125 135.50390625 25.078125 135.50390625 147.099609375 c 4
 135.50390625 277.32421875 283.16015625 289.116210938 283.16015625 289.116210938 c 5
 396.978515625 292.192382812 l 5
 470.293945312 225.029296875 l 5
396.978515625 290.141601562 m 5
 389.288085938 372.172851562 l 5
 389.288085938 372.172851562 366.216796875 416.264648438 281.109375 416.264648438 c 4
 274.95703125 356.279296875 l 5
 205.743164062 355.25390625 l 5
 198.565429688 365.5078125 193.951171875 392.680664062 193.951171875 409.599609375 c 4
 193.951171875 459.84375 251.885742188 479.326171875 299.053710938 479.326171875 c 4
 390.313476562 479.326171875 465.166992188 437.28515625 473.370117188 328.081054688 c 4
 470.293945312 225.029296875 l 5
 396.978515625 290.141601562 l 5
EndSplineSet
EndChar

StartChar: si_Sa
Encoding: 58 3523 6
GlifName: si_S_a
Width: 942
VWidth: 6
Flags: HMW
LayerCount: 4
Back
SplineSet
60 379 m 1xf8
 438 381 l 1
 440 336 l 1
 144 335 l 1
 59 322 l 1
 60 379 l 1xf8
568 373 m 1
 601 384 l 1
 700.491210938 410.330078125 886 380.840820312 886 186 c 0
 886 64 811.377929688 -45 680 -45 c 0
 575 -45 508 22 493 126 c 1
 491 123 530 129 528 126 c 1
 510.119140625 25 441.748046875 -43.1982421875 325 -44 c 0
 192.470703125 -44.91015625 120.172851562 54.9951171875 122 154 c 0
 124.165039062 268 218.35546875 346 253 347 c 1
 347 338 l 1
 260.861328125 324.103515625 182.854492188 266.251953125 184 183 c 0
 184.899414062 112.950195312 236.522460938 64.845703125 325 62 c 0
 392.15625 59.83984375 490 88.2900390625 493 214 c 1
 528 215 l 1
 531 100.411132812 604.994140625 64.4326171875 685 64 c 0
 764.806640625 63.599609375 820.400390625 113.7890625 822 195 c 0xfa
 824.384765625 310.975585938 726.305664062 383.813476562 563 328 c 1
 558 350.166992188 553.391601562 374.670898438 553 398 c 0
 551 500 624 568 708 570 c 0
 774.981445312 571.594726562 851 532 851 452 c 0
 851 356 758 330 758 330 c 1
 742 337 l 1
 742 337 781 374.990234375 781 424 c 0xfc
 781 465 740.879882812 513.047851562 677 509 c 0
 640.995117188 506.71875 598 472 593 411 c 0
 589.227539062 364.98046875 609 353 609 353 c 1
 568 373 l 1
409 364 m 1
 412 398 412 417 400 445 c 0
 386 480 331 508 281 503 c 0
 230 419 l 1
 200 422 176 439 176 476 c 0
 176 543 248 568 301 568 c 0
 381 568 454.29296875 518.05078125 457 433 c 0
 458.56640625 383.791015625 449 358.083007812 440 337 c 1
 409 364 l 1
EndSplineSet
Fore
SplineSet
40 352 m 1
 35 374 34 393 40 409 c 1
 419 409 l 1
 421 367 l 1
 125 367 l 1
 40 352 l 1
103 180 m 0
 103 303 202 377 238 377 c 2
 334 377 l 1
 236 366 168 291 168 212 c 0
 168 138 229 79 319 79 c 0
 395 79 472 116 477 236 c 1
 490 241 503 242 516 240 c 1
 519 127 593 79 676 79 c 0
 759 79 823 143 823 228 c 0
 823 315 754 378 660 378 c 0
 630 378 597 373 564 359 c 1
 559 383 554 406 554 432 c 0
 554 533 631 597 727 598 c 0
 796 599 863 561 863 483 c 0
 863 387 770 361 770 361 c 1
 754 361 l 1
 754 361 789 400 789 449 c 0
 789 488 757 533 692 533 c 0
 648 533 594 500 594 430 c 0
 594 393 610 383 610 383 c 1
 569 403 l 1
 598.405021029 412.801673676 629.149623022 422 669 422 c 0
 768 422 887 372 887 216 c 0
 887 93 809 -21 673 -21 c 0
 553 -21 494 48 479 151 c 1
 479 150 480 150 482 150 c 0
 489 150 504 152 511 152 c 0
 513 152 514 152 514 151 c 0
 496.445544554 47.6235294118 441.831683168 -23 317 -23 c 4
 167.507177033 -23 103 81.0502512563 103 180 c 0
157 506 m 0
 157 573 229 598 282 598 c 0
 367 598 438 546 438 453 c 0
 438 410 429 387 421 367 c 1
 393 394 l 1
 394 405 398 415 398 424 c 0
 398 492 335 539 265 539 c 1
 211 449 l 1
 181 452 157 469 157 506 c 0
EndSplineSet
EndChar

StartChar: si_Ka
Encoding: 21 3482 7
GlifName: si_K_a
Width: 1095
VWidth: 6
Flags: HMW
LayerCount: 4
Back
SplineSet
56 126 m 5
 149 275 247 338 339 432 c 4
 346 438 355 439 362 444 c 4
 460 529 574 581 700 581 c 4
 891 581 1055 450 1055 263 c 4
 1055 108 971 -21 814 -23 c 4
 755 -24 715 1 715 1 c 5
 713 17 730 47 744 57 c 5
 744 57 764 28 824 28 c 4
 924 28 984 138 984 238 c 4
 984 413 829 488 662 488 c 4
 553 488 476 454 379 393 c 4
 361 382 373 386 359 374 c 4
 269 292 178 235 85 98 c 5
 85 98 50 108 56 126 c 5
81 434 m 4
 81 512 142 578 234 578 c 4
 310 578 358 524 358 468 c 4
 358 433 342 413 337 406 c 5
 302 396 l 5
 313 417 316 429 316 453 c 4
 316 495 280 521 235 521 c 4
 196 521 160 495 160 452 c 5
 205 390 l 5
 192 367 169 355 148 355 c 4
 101 355 81 388 81 434 c 4
123 167 m 5
 135 190 l 5
 143 194 151 197 159 197 c 4
 209 197 223 87 303 87 c 4
 352 87 401 121 402 216 c 5
 413 220 428 220 437 217 c 5
 438 116 496 85 553 85 c 4
 618 85 655 135 655 213 c 4
 655 295 593 364 453 364 c 4
 394 364 326 345 295 328 c 5
 321 369 l 5
 333 373 408 410 485 410 c 4
 589 410 720 350 720 201 c 4
 720 66 644 -17 547 -17 c 4
 457 -17 429 38 410 78 c 5
 428 75 l 5
 411 34 367 -17 302 -17 c 4
 240 -17 200 20 187 74 c 4
 175 126 156 172 137 172 c 4
 133 172 129 170 123 167 c 5
EndSplineSet
Fore
SplineSet
67 478 m 0
 67 519.485351562 107.23828125 577 197 577 c 0
 264.551757812 577 321 528 321 460 c 0
 321 407 280.845703125 384 275 384 c 0
 247 367 l 1
 272.20703125 392.875 280.267578125 419.958007812 280 444 c 0
 279.341796875 501.333984375 215.670898438 522.282226562 183 507 c 1
 136 409 l 1
 100.91796875 407.70703125 67 432.03515625 67 478 c 0
40 146 m 1
 131.681640625 264.807617188 204.51171875 329.658203125 283 399 c 0
 306 414 l 0
 412.698242188 517.61328125 549.81640625 583 677 583 c 0
 868 583 1029 455 1029 268 c 4
 1029 113 944.990234375 -20.3388671875 788 -23 c 0
 729 -24 689 1 689 1 c 1
 687 17 704 47 718 57 c 1
 718 57 738 28 798 28 c 0
 898 28 958 143 958 243 c 4
 958 418 806 490 639 490 c 0
 522.296875 490 419.033203125 444.919921875 333 381 c 0
 328 374 l 0
 239.744140625 295.083007812 166.197265625 249.849609375 75 118 c 1
 75 118 34 128 40 146 c 1
97 177 m 1
 109 200 l 1
 117 204 125 207 133 207 c 0
 183 207 197 80 277 80 c 0
 326 80 375 115.844726562 376 216 c 1
 387 220 402 220 411 217 c 1
 412.008789062 109.11328125 470.508789062 76 528 76 c 0
 585.431640625 76 629 116.948242188 629 201 c 0
 629 282.017578125 557 366 417 366 c 0
 358 366 300 344.150390625 269 328 c 1
 295 369 l 1
 307 373 383 410 460 410 c 0
 564 410 693 342 693 193 c 0
 693 58 618 -17 521 -17 c 0
 431 -17 403 38 384 78 c 1
 402 75 l 1
 384.865234375 34 340.515625 -17 275 -17 c 0
 213.5390625 -17 171.838867188 19.5146484375 161 74 c 0
 149 131.305664062 130 182 111 182 c 0
 107 182 103 180 97 177 c 1
EndSplineSet
Layer: 2
SplineSet
72.95703125 67.880859375 m 4
 182.95703125 281.57421875 427.5703125 524.341796875 650.251953125 533.0859375 c 4
 804.823242188 539.15625 949.356445312 463.5625 963.635742188 265.268554688 c 4
 972.127929688 124.8046875 921.248046875 -34.4140625 770.22265625 -34.8349609375 c 4
 734.841796875 -34.93359375 707.673828125 -23.37890625 707.673828125 -23.37890625 c 5
 718.953125 29.4287109375 l 5
 718.953125 29.4287109375 737.50390625 21.8466796875 763.04296875 21.806640625 c 4
 848.686523438 21.6630859375 892.39453125 102.141601562 888.184570312 211.435546875 c 4
 882.796875 351.30078125 792.59765625 431.989257812 657.4296875 441.000976562 c 4
 568.592773438 447.6640625 480.583007812 415.846679688 400.056640625 365.911132812 c 5
 268.767578125 271.62109375 160.905273438 117.798828125 114.485351562 37.119140625 c 5
 114.485351562 37.119140625 68.0732421875 58.3955078125 72.95703125 67.880859375 c 4
286.23828125 343.198242188 m 5
 335.56640625 386.706054688 322.18359375 475.928710938 240.095703125 475.555664062 c 4
 202.427734375 475.383789062 170.877929688 443.416015625 172.419921875 409.3359375 c 5
 217.537109375 333.45703125 l 4
 160.115234375 303.073242188 l 4
 127.168945312 307.661132812 82.58203125 329.982421875 79.109375 387.745117188 c 4
 74.2626953125 468.33984375 151.197265625 534.123046875 239.0703125 536.939453125 c 4
 371.483398438 541.184570312 399.723632812 430.3125 368.897460938 380.625 c 4
 344.584960938 341.435546875 361.564453125 359.189453125 323.665039062 327.3046875 c 5
 286.23828125 343.198242188 l 5
164.729492188 125.302734375 m 5
 253.001953125 136.614257812 229.127929688 68.2265625 314.436523438 67.880859375 c 4
 353.4140625 67.72265625 404.90234375 94.3310546875 405.696289062 189.537109375 c 5
 459.529296875 189.389648438 l 4
 461.048828125 86.7236328125 520.573242188 67.1943359375 555.403320312 67.880859375 c 4
 615.942382812 69.07421875 635.896484375 108.717773438 635.896484375 174.521484375 c 4
 635.896484375 258.342773438 568.677734375 335.881835938 439.534179688 336.8125 c 4
 398.26171875 337.111328125 372.653320312 332.555664062 340.583984375 320.126953125 c 5
 398.005859375 373.447265625 l 5
 410.979492188 377.874023438 427.138671875 385.955078125 457.991210938 386.822265625 c 4
 562.995117188 389.775390625 711.775390625 341.606445312 711.775390625 166.318359375 c 4
 711.775390625 46.3330078125 662.95703125 -34.4091796875 557.454101562 -34.830078125 c 4
 443.354492188 -35.283203125 435.9453125 53.525390625 435.9453125 53.525390625 c 5
 435.9453125 53.525390625 414.377929688 -33.6240234375 311.873046875 -34.02734375 c 4
 162.969726562 -34.615234375 194.978515625 130.942382812 139.607421875 77.109375 c 4
 164.729492188 125.302734375 l 5
EndSplineSet
EndChar

StartChar: si_Ta
Encoding: 40 3501 8
GlifName: si_T_a
Width: 1105
VWidth: 6
Flags: HMW
LayerCount: 4
Back
SplineSet
70 428 m 4
 70 506 133 572 226 572 c 4
 299 572 348 522 348 467 c 4
 348 443 332 408 327 402 c 5
 292 392 l 5
 303 413 307 432 307 449 c 4
 307 493 272 517 234 517 c 4
 189 517 158 489 154 439 c 5
 194 384 l 5
 181 361 159 349 138 349 c 4
 95 349 70 382 70 428 c 4
55 106 m 5
 155 255 219 335 319 427 c 4
 326 433 335 433 342 439 c 4
 442 523 560 581 694 581 c 4
 905 581 1050 448 1050 270 c 4
 1050 97 953 -32 794 -32 c 4
 716 -32 695 -10 695 -10 c 5
 693 6 704 32 722 44 c 5
 722 44 752 21 800 21 c 4
 917 21 977 139 970 259 c 4
 961 420 827 493 659 493 c 4
 564 493 452 454 359 388 c 4
 342 376 353 381 339 369 c 4
 242 287 187 217 87 80 c 5
 87 80 56 89 55 106 c 5
107 120 m 5
 109 151 l 5
 119 159 142 176 179 176 c 4
 261 176 279 68 447 68 c 4
 563 68 623 130 623 213 c 4
 623 329 509 363 448 363 c 4
 365 363 303 339 270 320 c 5
 300 355 l 5
 313 360 374 405 454 405 c 4
 557 405 691 360 691 209 c 4
 691 104 622 -27 422 -26 c 4
 327 -26 239 15 208 74 c 4
 183 122 157 146 107 120 c 5
EndSplineSet
Fore
SplineSet
82 481 m 0
 82 522.485714286 122.238095238 580 212 580 c 0
 279.552238806 580 336 531 336 463 c 0
 336 398.842105263 282.692307692 386.736842105 270 371 c 0
 261 370 l 1
 283.942857143 395.5 294 422.928571429 294 446 c 0
 294 508.311403509 230.333967392 529.289473684 198 510 c 1
 151 412 l 1
 115.918140308 410.706891742 82 435.035295758 82 481 c 0
55 106 m 1
 155 255 219 335 319 427 c 0
 320.826086957 427.5 323.173913043 427.5 325 428 c 0
 429.829545455 518.507042254 553.528409091 581 694 581 c 0
 905 581 1050 448 1050 270 c 0
 1050 97 953 -32 794 -32 c 0
 716 -32 695 -10 695 -10 c 1
 693 6 704 32 722 44 c 1
 722 44 752 21 800 21 c 0
 917 21 977 139 970 259 c 0
 961 420 827 493 659 493 c 0
 564 493 452 454 359 388 c 0
 342 376 353 381 339 369 c 0
 242 287 187 217 87 80 c 1
 87 80 56 89 55 106 c 1
107 120 m 1
 109 151 l 1
 119 159 142 176 179 176 c 0
 261 176 279 68 447 68 c 0
 563 68 626 130 626 213 c 0
 626 329 512 363 451 363 c 0
 368 363 303 337.266666667 270 317 c 1
 300 355 l 1
 313 360 399 412 479 412 c 0
 562 412 691 360 691 209 c 0
 691 104 622 -27 422 -26 c 0
 327 -26 249 5 208 74 c 0
 180.353944068 120.526289251 157 146 107 120 c 1
EndSplineSet
Layer: 2
SplineSet
664.805664062 -22.5302734375 m 13
 678.134765625 34.111328125 l 4
 687.159179688 34.099609375 706.455078125 26.2783203125 735.044921875 26.2783203125 c 4
 842.7109375 26.2783203125 886.338867188 139.078125 885.306640625 238.608398438 c 4
 883.854492188 378.5703125 764.032226562 462.880859375 634.043945312 464.584960938 c 4
 529.596679688 465.955078125 442.329101562 437.892578125 356.67578125 382.830078125 c 5
 225.38671875 288.540039062 173.408203125 235.71875 70.591796875 73.0078125 c 5
 70.591796875 73.0078125 28.9296875 94.48828125 34.1904296875 103.76953125 c 4
 99.2392578125 218.547851562 198.015625 315.069335938 296.177734375 406.313476562 c 5
 303.817382812 412.305664062 311.510742188 418.155273438 319.249023438 423.856445312 c 5
 404.521484375 496.668945312 528.9765625 555.073242188 642.247070312 556.157226562 c 4
 812.309570312 557.784179688 972.8125 460.306640625 976.138671875 271.93359375 c 4
 979.505859375 81.2705078125 868.12109375 -24.0751953125 738.12109375 -31.71484375 c 4
 697.10546875 -34.125 672.31640625 -22.5107421875 664.805664062 -22.5302734375 c 13
261.827148438 365.756835938 m 5
 298.607421875 440.026367188 257.99609375 496.55859375 215.684570312 497.6015625 c 4
 172.61328125 498.662109375 147.16796875 465.461914062 142.881835938 431.381835938 c 5
 172.618164062 376.010742188 l 5
 158.875976562 352.084960938 135.270507812 339.463867188 113.658203125 340.846679688 c 4
 87.947265625 342.491210938 65.0576171875 363.958007812 64.9521484375 409.791015625 c 4
 64.7900390625 480.055664062 118.264648438 565.857421875 230.040039062 558.985351562 c 4
 317.0078125 553.638671875 345.684570312 473.038085938 318.229492188 408.823242188 c 4
 303.038085938 373.291992188 314.888671875 391.560546875 301.817382812 374.985351562 c 5
 261.827148438 365.756835938 l 5
166.978515625 228.354492188 m 5
 154.853515625 101.243164062 271.122070312 60.1318359375 383.848632812 57.626953125 c 4
 546.915039062 54.0029296875 597.430664062 113.750976562 597.642578125 200.668945312 c 4
 597.880859375 299.25 509.338867188 339.16015625 416.1484375 343.477539062 c 4
 344.134765625 346.815429688 272.36328125 318.712890625 240.293945312 301.157226562 c 5
 297.715820312 365.244140625 l 5
 310.689453125 369.670898438 383.37109375 394.450195312 444.859375 393.487304688 c 4
 555.221679688 391.759765625 695.172851562 347.966796875 684.80078125 178.110351562 c 4
 678.413085938 73.5126953125 609.323242188 -40.947265625 370.518554688 -40.982421875 c 4
 219.58203125 -41.00390625 106.379882812 57.7041015625 134.678710938 189.90234375 c 5
 166.978515625 228.354492188 l 5
EndSplineSet
EndChar

StartChar: si_Na
Encoding: 44 3505 9
GlifName: si_N_a
Width: 1064
VWidth: 6
Flags: HMW
LayerCount: 4
Back
SplineSet
106 433 m 4
 106 511 169 577 261 577 c 4
 334 577 383 525 383 467 c 4
 383 454 380 442 375 429 c 4
 362 397 364 401 328 390 c 5
 339 411 342 431 342 448 c 4
 342 493 311 519 265 519 c 4
 227 519 185 493 185 451 c 5
 230 389 l 5
 217 366 195 354 174 354 c 4
 127 354 106 387 106 433 c 4
97 156 m 1
 97 212 l 1
 105 196 123 190 139 190 c 0
 199 190 273 313 338 404 c 0
 347 414 348 403 360 411 c 1
 454 518 564 581 684 581 c 0
 858 581 1009 465 1009 266 c 0
 1009 110 920 -31 747 -31 c 0
 688 -31 640 -7 640 -5 c 1
 633 7 646 44 658 52 c 1
 671 43 703 18 757 18 c 0
 875 18 936 137 936 247 c 0
 936 392 814 484 654 484 c 0
 555 484 477 460 367 349 c 1
 354 349 l 1
 292 254 226 143 149 143 c 0
 132 143 115 147 97 156 c 1
55 224 m 1
 66 230 92 226 100 223 c 1
 97 95 278 70 382 70 c 0
 491 70 587 127 587 227 c 0
 587 289 536 343 436 343 c 0
 376 343 326 323 287 298 c 1
 317 331 l 1
 330 335 387 383 469 383 c 0
 565 383 653 318 653 216 c 0
 653 111 601 -29 371 -29 c 0
 195 -29 53 84 55 224 c 1
EndSplineSet
Fore
SplineSet
134 481 m 0
 134 522.485714286 173 580 260 580 c 4
 329.731343284 580 388 531 388 463 c 0
 388 410 350.846153846 400 342 387 c 0
 331 386 l 1
 341.266666667 399 350 425 350 442 c 0
 350 507.205866228 283.681216033 530.495065789 250 510 c 1
 203 412 l 1
 167.918140308 410.706891742 134 435.035295758 134 481 c 0
97 156 m 1
 97 212 l 1
 105 196 123 190 139 190 c 0
 199 190 275 307 340 398 c 0
 362 406 l 1
 456 513 564 581 684 581 c 0
 858 581 1009 465 1009 266 c 0
 1009 110 920 -31 747 -31 c 0
 688 -31 640 -7 640 -5 c 1
 633 7 646 44 658 52 c 1
 671 43 703 18 757 18 c 0
 875 18 936 137 936 247 c 0
 936 392 814 484 654 484 c 0
 555 484 477 460 367 349 c 1
 354 349 l 1
 292 254 226 143 149 143 c 0
 132 143 115 147 97 156 c 1
55 224 m 1
 66 230 92 226 100 223 c 1
 97 95 278 70 382 70 c 0
 491 70 587 127 587 227 c 0
 587 289 536 343 436 343 c 0
 376 343 326 320 287 298 c 1
 317 331 l 1
 330 335 387 383 469 383 c 0
 565 383 653 315 653 213 c 0
 653 108 601 -29 371 -29 c 0
 195 -29 53 84 55 224 c 1
EndSplineSet
Layer: 2
SplineSet
24.73046875 83.3212890625 m 0
 134.731445312 297.014648438 353.709960938 541.3203125 591.771484375 550.064453125 c 0
 746.357421875 555.743164062 908.02734375 475.564453125 925.151367188 277.120117188 c 0
 937.249023438 136.918945312 852.514648438 -32.3037109375 701.48828125 -32.724609375 c 0
 666.108398438 -32.8232421875 649.193359375 -21.2685546875 649.193359375 -21.2685546875 c 1
 665.599609375 26.412109375 l 1
 665.599609375 26.412109375 673.897460938 18.8330078125 699.436523438 18.7900390625 c 0
 785.080078125 18.646484375 845.70703125 119.120117188 839.446289062 228.4140625 c 0
 831.440429688 368.154296875 718.657226562 447.84765625 593.822265625 452.852539062 c 0
 504.807617188 456.421875 427.23046875 437.952148438 346.703125 388.016601562 c 1
 215.415039062 293.7265625 112.6796875 133.239257812 66.2587890625 52.5595703125 c 1
 66.2587890625 52.5595703125 19.84765625 73.8359375 24.73046875 83.3212890625 c 0
255.956054688 381.197265625 m 1
 292.737304688 455.466796875 239.260742188 494.984375 186.7421875 492.534179688 c 0
 161.099609375 491.3359375 123.352539062 470.6484375 119.06640625 436.568359375 c 1
 148.802734375 376.0703125 l 0
 127.51171875 339.00390625 92.4970703125 333.344726562 65.74609375 345.686523438 c 0
 65.74609375 345.686523438 36.1318359375 362.216796875 36.009765625 414.977539062 c 0
 35.8486328125 485.2421875 89.052734375 553.598632812 185.716796875 553.91796875 c 0
 272.662109375 554.205078125 316.743164062 503.859375 320.049804688 444.771484375 c 0
 322.208984375 406.189453125 301.328125 391.620117188 288.255859375 375.044921875 c 1
 255.956054688 381.197265625 l 1
173.412109375 214.571289062 m 1
 143.765625 169.486328125 170.6484375 68.28515625 261.083007812 67.9404296875 c 0
 300.061523438 67.7919921875 351.549804688 94.390625 352.342773438 189.596679688 c 1
 406.17578125 189.44921875 l 0
 407.696289062 86.783203125 467.221679688 67.1904296875 502.049804688 67.9404296875 c 0
 557.461914062 69.1337890625 591.771484375 124.158203125 591.771484375 184.834960938 c 0
 591.771484375 299.41796875 505.07421875 343.943359375 381.053710938 343.537109375 c 0
 319.274414062 343.3359375 283.412109375 323.899414062 251.341796875 306.34375 c 1
 308.763671875 369.91796875 l 1
 321.73828125 374.344726562 358.533203125 385.482421875 389.256835938 388.419921875 c 0
 473.75390625 396.5 659.959960938 373.965820312 659.959960938 167.916015625 c 0
 659.959960938 53.0576171875 604.990234375 -34.349609375 499.486328125 -34.7705078125 c 0
 385.387695312 -35.2236328125 382.591796875 53.5849609375 382.591796875 53.5849609375 c 1
 382.591796875 53.5849609375 361.025390625 -33.5771484375 258.51953125 -33.9677734375 c 0
 104.490234375 -34.5556640625 103.685546875 125.875 125.21875 164.327148438 c 0
 173.412109375 214.571289062 l 1
EndSplineSet
EndChar

StartChar: anusvara
Encoding: 1 3458 10
GlifName: anusvara
Width: 588
VWidth: 30
Flags: HMW
LayerCount: 4
Back
SplineSet
120 225 m 0
 120 135 165.049804688 67.998046875 283 67 c 0
 373.046875 66.23828125 438.099609375 143.999023438 439 224 c 4
 440.125 323.993164062 371 393 264 387 c 0
 194.109375 383.081054688 120 318 120 225 c 0
55 194 m 0
 55 345 173 443 294 443 c 0
 445 443 523 335 523 214 c 0
 523 93 436 -25 285 -25 c 0
 134 -25 55 73 55 194 c 0
EndSplineSet
Fore
SplineSet
120 255 m 0
 120 165 165 97 284 97 c 0
 374 97 439 175 439 256 c 0
 439 351 376 417 277 417 c 0
 198 417 120 353 120 255 c 0
55 224 m 0
 55 375 173 473 294 473 c 0
 445 473 523 365 523 244 c 0
 523 123 436 5 285 5 c 0
 134 5 55 103 55 224 c 0
EndSplineSet
EndChar

StartChar: si_A
Encoding: 3 3461 12
GlifName: si_A_
Width: 758
VWidth: 13
Flags: HMW
LayerCount: 4
Back
SplineSet
364 -57.5380859375 m 0
 153.625 -57.1875 52.4326171875 37.0244140625 54 157 c 0
 55.8642578125 305.000976562 183.197265625 381 323 383 c 0
 356.912109375 383.546875 385.2578125 381.401367188 402.384765625 378.52734375 c 1
 403.505859375 468.180664062 340.708007812 504.435546875 271 497 c 1
 215 408 l 1
 169 411 141 448 150 484 c 0
 166 546 225 567 288 567 c 0
 360 567 432 527 446 443 c 0
 455.095703125 388.426757812 439 334 439 334 c 1
 329.883789062 352.869140625 188.782226562 312.513671875 175 179 c 0
 164.526367188 81.240234375 240.35546875 4.236328125 408 4.8173828125 c 0
 529.96875 5.240234375 602.526367188 50.912109375 665 88.599609375 c 1
 696 47 l 1
 624.354492188 -10.3515625 511.6953125 -57.7841796875 364 -57.5380859375 c 0
506 406.842773438 m 1
 507.64453125 463.158203125 496.786132812 528.805664062 565 568 c 1
 594 546.889648438 l 1
 593.51171875 491.823242188 726 455.326171875 726 386 c 0
 726 313.143554688 634 241.561523438 545 234 c 1
 536 274 l 1
 593 284 652 321.561523438 652 378 c 0
 652 426 566.39453125 468.649414062 566 507.856445312 c 1
 554.118164062 493.653320312 558.6328125 470 558.6328125 421.313476562 c 0
 556 -378 l 1
 506 -378 l 1
 506 406.842773438 l 1
438.465820312 371.448242188 m 1
 439.303710938 371.296875 440.147460938 371.146484375 441 371 c 1
 441 371.776367188 440.05859375 371.853515625 438.465820312 371.448242188 c 1
EndSplineSet
Fore
SplineSet
50 174 m 0
 50 342 198 413 340 413 c 0
 369 413 393 411 408 409 c 1
 409 492 350 538 286 538 c 0
 281 538 277 538 272 537 c 1
 216 448 l 1
 176 451 149 479 149 510 c 0
 149 582.722297396 212.352539062 609 273 609 c 0
 356 609 449 544 449 438 c 0
 449 398 439 364 439 364 c 1
 422 367 405 368 387 368 c 0
 276 368 149 324 149 191 c 0
 149 82 234 10 409 10 c 0
 549 10 626 56 680 105 c 1
 696 100 716 72 716 55 c 1
 655 8 550 -50 373 -50 c 0
 161 -50 50 60 50 174 c 0
506 -348 m 1
 506 465 l 2
 506 514 508 565 565 598 c 1
 594 577 l 1
 594 522 726 485 726 416 c 0
 726 343 634 272 545 264 c 1
 545 308 l 1
 612 318 652 352 652 408 c 0
 652 476 581 458 559 528 c 9
 559 -348 l 1
 540.720883846 -351.837615937 521.754072797 -353.7386169 506 -348 c 1
EndSplineSet
EndChar

StartChar: si_I
Encoding: 7 3465 16
GlifName: si_I_
Width: 857
VWidth: 16
Flags: HMW
LayerCount: 4
Fore
SplineSet
230 -266 m 5
 230 -266 280 -329 407 -332 c 4
 557 -336 633 -260 632 -179 c 4
 631 -66 458 -48 458 -48 c 29
 367 -59 l 29
 415 -87 l 21
 503 -77 546 -126 547 -177 c 4
 549 -247 478.981445312 -280.374023438 395 -276 c 4
 299 -271 260 -225 260 -225 c 5
 240 -232 229 -252 230 -266 c 5
47 279 m 0
 47 109 189.99811315 48.7294228638 302 48 c 0
 471.999336023 46.8928632721 537 155 539 242 c 4
 541.161450413 336.023092972 478.998046875 392.859375 399 394 c 0
 328 395.012695312 280 343 280 287 c 0
 280 228 330.995266997 184.651581652 403 184 c 0
 489.002594208 183.221749598 512 253 513 260 c 1
 497 302 l 2
 491 275 467 229 414 229 c 0
 376.977539062 229 347 255 347 285 c 0
 347 316 370.875216264 342 407 342 c 0
 457 342 486 301.211914062 486 242 c 0
 486 183 425 102 311 101 c 0
 197 100 109 173 109 282 c 0
 109 434 255 519 403 519 c 0
 582 519 704 402 706 252 c 0
 708 6 501 -57 315 -45 c 5
 305 -68 312 -87 325 -100 c 5
 586 -120 777 37 777 267 c 0
 777 486 619 613 422 613 c 0
 229 613 47 474 47 279 c 0
EndSplineSet
EndChar

StartChar: si_Ii
Encoding: 8 3466 17
GlifName: si_I_i
Width: 741
VWidth: 25
Flags: HMW
LayerCount: 4
Back
SplineSet
527 611 m 0xb0
 527 642 552 667 583 667 c 0
 614 667 639 642 639 611 c 0
 639 580 614 555 583 555 c 0
 552 555 527 580 527 611 c 0xb0
215 701 m 4
 215 733 241 759 273 759 c 4
 305 759 331 733 331 701 c 4
 331 669 305 643 273 643 c 4x70
 241 643 215 669 215 701 c 4
EndSplineSet
Refer: 4 3515 N 1 0 0 1 0 0 2
Fore
SplineSet
577 641 m 0
 577 672 602 697 633 697 c 0
 664 697 689 672 689 641 c 0
 689 610 664 585 633 585 c 0
 602 585 577 610 577 641 c 0
235 731 m 4
 235 763 261 789 293 789 c 4
 325 789 351 763 351 731 c 4
 351 699 325 673 293 673 c 4
 261 673 235 699 235 731 c 4
EndSplineSet
Refer: 4 3515 N 1 0 0 1 0 0 2
EndChar

StartChar: si_U
Encoding: 9 3467 18
GlifName: si_U_
Width: 765
VWidth: 13
Flags: HMW
LayerCount: 4
Back
SplineSet
177 82 m 4
 158.202148438 -47.7998046875 222.97265625 -212.974609375 406 -236.380859375 c 4
 540.911132812 -252.205078125 622.588867188 -209.567382812 696 -151 c 5
 730 -208 l 5
 680.22265625 -243.866210938 573.874023438 -301.940429688 422 -296.19140625 c 4
 144.451171875 -285.490234375 49.9169921875 -102.7421875 61 34 c 4
 83.611328125 311.194335938 335.991210938 369.895507812 491 371 c 4
 553.002929688 371.436523438 589 367.727539062 618 365 c 5
 618 370 593.833007812 346 593 351 c 5
 605.571289062 478 476.213867188 499 398 481 c 5
 342 402 l 5
 296 405 274.086914062 445.533203125 285 481 c 4
 301 533 362 561 445 561 c 4
 527.286132812 561 621.034179688 506.793945312 635 423 c 4
 644.095703125 368.426757812 632 318 632 318 c 5
 632 316 l 5
 416.633789062 336.892578125 210.46875 299.200195312 177 82 c 4
EndSplineSet
Fore
SplineSet
56 38 m 0
 56 274.697265625 234.935546875 405 464 405 c 0
 514 405 574 403 612 397 c 1
 612 402 597 378 596 383 c 1
 597 388 597 393 597 398 c 0
 597 488 512 523 440 523 c 0
 421 523 413 521 398 517 c 5
 342 438 l 5
 304 440 282 469 282 499 c 4
 282 557.971679688 336.125 597 420 597 c 0
 526.836914062 597 632 527.534596052 632 413 c 0
 632 379 626 351 626 351 c 1
 626 349 l 1
 592 352 474.948242188 354.700195312 447 353 c 0
 282.62890625 343 170 237.131835938 170 57 c 0
 170 -108 297 -224 474 -224 c 0
 597 -224 675 -168 716 -121 c 1
 733 -126 750 -148 749 -167 c 1
 720 -195 620.077148438 -281 458 -281 c 0
 179 -281 56 -111 56 38 c 0
EndSplineSet
EndChar

StartChar: si_E
Encoding: 15 3473 22
GlifName: si_E_
Width: 880
VWidth: 16
Flags: HMW
LayerCount: 4
Back
SplineSet
429.81640625 669.124023438 m 1xde
 520 678 l 1
 518.842773438 653.400390625 541.36328125 575.997070312 581 559 c 0
 657.103515625 526.365234375 690.166015625 606.057617188 747 558 c 1
 776 526 l 1
 707.135742188 554.92578125 652.416015625 470.92578125 550 505.301757812 c 0
 469.956054688 532.168945312 473.421875 669.104492188 429.81640625 669.124023438 c 1xde
123 317 m 5
 512 316 l 5
 507 275 l 5
 206 270 l 5
 122 252 l 5
 123 317 l 5
508.504882812 661.212890625 m 0
 458.150390625 668.377929688 424.440429688 662.286132812 408 661 c 1
 409 741 l 1xee
 740.9140625 740.212890625 893 516.80859375 893 311 c 0
 893 91.0390625 764.75 -56.3564453125 542 -61 c 0
 322.623046875 -65.5732421875 219.234375 17.80078125 216 121 c 0
 211.596679688 261.4765625 355.522460938 302.262695312 469 306 c 1
 469 394 427.69140625 438 335 438 c 1
 309 357 l 1
 262.63671875 350 231.268554688 378.897460938 239 425 c 0
 248.391601562 481 302.861328125 500 347 500 c 0
 413 500 510.48046875 462.978515625 515 359 c 0
 516.383789062 327.161132812 507 282 507 282 c 1
 379.25 299.456054688 288.404296875 246.993164062 289 162 c 0
 289.51953125 86.0546875 397.6484375 38.986328125 536 40 c 0
 721.478515625 41.3388671875 831 144.6484375 831 346 c 0
 831 538.337890625 642.268554688 642.180664062 508.504882812 661.212890625 c 0
EndSplineSet
Fore
SplineSet
73 352 m 1
 68 374 67 398 73 414 c 5
 452 414 l 5
 454 367 l 1
 158 367 l 1
 73 352 l 1
EndSplineSet
Refer: 48 3509 N 1 0 0 1 105 0 2
EndChar

StartChar: si_Os
Encoding: 18 3476 25
GlifName: si_O_s
Width: 863
VWidth: 6
Flags: HMW
LayerCount: 4
Back
SplineSet
104.629882812 261.502929688 m 5
 104.994140625 82.853515625 241.010742188 -58 470.060546875 -58 c 4
 694.510742188 -58 840.015625 95.5927734375 840.015625 334 c 4
 840.015625 548.2265625 700.845703125 732.00390625 461.286132812 732.00390625 c 4
 321.012695312 732.00390625 209.060546875 652 209.060546875 652 c 5
 237.060546875 602 l 5
 240.000976562 602 332.123046875 679.03515625 454.7421875 679.03515625 c 4
 690.408203125 679.03515625 784.221679688 514.502929688 777.334960938 329 c 4
 771.810546875 180.20703125 687.651367188 42.5888671875 464.890625 43.9912109375 c 4
 298.559570312 45.0390625 164.413085938 137.694335938 162.443359375 287.059570312 c 4
 161.23046875 379.075195312 191.596679688 444.005859375 239.913085938 444.005859375 c 4
 263.884765625 444.005859375 274.86328125 424.258789062 276.060546875 375 c 4
 277.704101562 310.588867188 293.955078125 262.171875 326.060546875 234.584960938 c 4
 363.561523438 200.767578125 415.928710938 186.986328125 466.546875 186.986328125 c 4
 581.161132812 186.986328125 634.0625 275.466796875 634.0625 360.115234375 c 4
 634.0625 436.70703125 581.865234375 504 486.060546875 504 c 4
 411.7890625 504 369.053710938 451.715820312 369.053710938 398.010742188 c 4
 369.053710938 337.249023438 415.990234375 311.997070312 458.3671875 311.997070312 c 4
 518.361328125 311.997070312 550.18359375 359.837890625 550.18359375 409.515625 c 4
 550.18359375 433.040039062 539.611328125 458.829101562 524.060546875 473.561523438 c 5
 498.060546875 474.561523438 l 5
 509.516601562 456.45703125 515.05859375 438.291015625 515.05859375 415.853515625 c 4
 515.05859375 388.53125 497.59375 357.55859375 462.342773438 357.55859375 c 4
 428.278320312 357.55859375 416.051757812 383.942382812 416.051757812 402.051757812 c 4
 416.051757812 436.8359375 438.323242188 463.909179688 472.5 469.001953125 c 4
 548.076171875 480.262695312 597.717773438 426.975585938 596.111328125 358.48046875 c 4
 594.666992188 296.900390625 551.19140625 253.766601562 466.130859375 252.998046875 c 4
 405.764648438 252.452148438 320.044921875 276.978515625 318.879882812 381 c 4
 318.0703125 453.213867188 290.25390625 482.034179688 245.666015625 482.034179688 c 4
 178.19921875 482.034179688 104.073242188 417.208984375 104.629882812 261.502929688 c 5
EndSplineSet
Fore
SplineSet
50 265 m 0
 50 164 81 -10 263 -10 c 0
 372 -10 419 62 435 141 c 1
 400 141 l 1
 405 51 464 -12 562 -12 c 0
 757 -12 808 212 808 349 c 0
 808 557 675 768 402 768 c 0
 253 768 171 702 171 702 c 1
 167 671 180 649 196 642 c 1
 199 642 270 710 412 710 c 0
 648 710 739 540 739 360 c 0
 739 251 700 84 565 84 c 0
 505 84 445 121 438 206 c 1
 426 210 411 206 401 202 c 1
 398 123 336 87 272 87 c 0
 179 87 111 146 111 300 c 0
 111 365 149 472 210 472 c 0
 230 472 245 452 246 403 c 0
 248 275 342 236 427 236 c 0
 538 236 604 325 604 410 c 0
 604 487 552 554 456 554 c 0
 382 554 339 502 339 448 c 0
 339 387 386 362 428 362 c 0
 488 362 520 410 520 460 c 0
 520 484 510 509 494 524 c 1
 468 525 l 1
 479 507 485 488 485 466 c 0
 485 439 467 408 432 408 c 0
 398 408 386 434 386 452 c 0
 386 487 408 514 442 519 c 0
 518 530 567 476 566 408 c 0
 565 341 513 294 428 292 c 0
 368 291 286 305 284 434 c 0
 283 489 250 513 217 512 c 0
 107 508 50 381 50 265 c 0
EndSplineSet
EndChar

StartChar: si_Kha
Encoding: 22 3483 28
GlifName: si_K_ha
Width: 866
VWidth: 6
Flags: HMW
LayerCount: 4
Back
SplineSet
737.913085938 336.353515625 m 4
 737.913085938 539.126953125 634.587890625 671.095703125 387.758789062 671.095703125 c 4
 264.185546875 671.095703125 168.048828125 603 166.479492188 603 c 5
 138.479492188 660 l 5
 138.479492188 660 247.258789062 733.059570312 400.26171875 733.059570312 c 4
 613.352539062 733.059570312 811.110351562 586.017578125 811.110351562 332.138671875 c 4
 811.110351562 115.98046875 723.765625 -51.8984375 550.939453125 -51.8984375 c 4
 511.4921875 -51.8984375 496.006835938 -36.3955078125 477.883789062 -36.3955078125 c 4
 454.377929688 -36.3955078125 430.15234375 -59.044921875 414.479492188 -93.9130859375 c 5
 376.368164062 -77 l 5
 426.349609375 0.8115234375 475.510742188 84.2724609375 469.51171875 178.049804688 c 4
 463.227539062 276.287109375 370.724609375 329.544921875 295.733398438 329.544921875 c 4
 192.899414062 329.544921875 102.66796875 262.353515625 102.66796875 129.487304688 c 4
 102.66796875 46.1943359375 139.200195312 -8.2998046875 211.635742188 -8.2998046875 c 4
 252.9296875 -8.2998046875 271.890625 25.0712890625 271.890625 52.2392578125 c 4
 271.890625 85.287109375 251.807617188 110.944335938 220.125 110.944335938 c 4
 194.688476562 110.944335938 171.387695312 91.3330078125 171.387695312 54.2900390625 c 4
 171.387695312 26.85546875 187.749023438 -6.75 230.368164062 -12.09375 c 5
 230.368164062 -23.3828125 l 5
 161.817382812 -21.287109375 128.834960938 15.962890625 128.834960938 56.8916015625 c 4
 128.834960938 114.103515625 169.0703125 169.70703125 234.510742188 169.70703125 c 4
 290.662109375 169.70703125 334.255859375 127.157226562 334.255859375 61.1015625 c 4
 334.255859375 9.072265625 295.094726562 -58.7978515625 214.21484375 -58.7978515625 c 4
 94.5966796875 -58.7978515625 50 58.337890625 50 151.438476562 c 4
 50 326.481445312 167.151367188 422.469726562 309.004882812 424.913085938 c 4
 392.747070312 426.35546875 531.397460938 370.383789062 531.397460938 194.314453125 c 4
 531.397460938 113.931640625 502.399414062 68.451171875 481.4765625 30 c 5
 480.676757812 78 l 5
 492.426757812 58.0712890625 524.606445312 46.37890625 553.939453125 46.37890625 c 4
 678.294921875 46.37890625 737.913085938 172.436523438 737.913085938 336.353515625 c 4
EndSplineSet
Fore
SplineSet
50 181 m 0
 50 356 167 453 309 455 c 0
 393 456 531 400 531 224 c 0
 531 144 502 98 481 60 c 1
 491 132 l 1
 504 99 514 80 574 80 c 0
 675 80 738 204 738 366 c 0
 738 569 634 701 384 701 c 0
 260 701 164 633 162 633 c 0
 147 641 131 666 134 690 c 1
 134 690 243 763 396 763 c 0
 611 763 811 616 811 362 c 0
 811 144 727 -25 561 -25 c 0
 491 -25 439 -3 435 58 c 1
 474 34 l 1
 462 12 452 -4 418 -62 c 1
 378 -41 l 1
 417 19 476 116 470 208 c 0
 464 306 371 360 296 360 c 0
 193 360 103 292 103 159 c 0
 103 76 140 22 212 22 c 0
 253 22 272 55 272 82 c 0
 272 115 252 141 220 141 c 0
 195 141 171 121 171 84 c 0
 171 57 187 23 230 18 c 1
 230 7 l 1
 161 9 129 46 129 87 c 0
 129 144 170 200 235 200 c 0
 291 200 334 157 334 91 c 0
 334 39 295 -29 214 -29 c 0
 94 -29 50 88 50 181 c 0
EndSplineSet
EndChar

StartChar: si_Ga
Encoding: 23 3484 29
GlifName: si_G_a
Width: 1029
VWidth: 6
Flags: HMW
LayerCount: 4
Back
SplineSet
705.764648438 15.6123046875 m 4
 812.69921875 27.6982421875 867.627929688 96.9677734375 867.627929688 219.600585938 c 4
 867.627929688 341.538085938 800.137695312 439.272460938 664.942382812 437.533203125 c 4
 571.682617188 436.399414062 485.357421875 377.801757812 459.8828125 264.823242188 c 5
 409.615234375 248.01171875 l 5
 424.201171875 440.625976562 539.979492188 535.514648438 663.684570312 542.603515625 c 4
 841.747070312 552.603515625 931.875 411.889648438 931.875 267.375 c 4
 931.875 101.1640625 854.436523438 -54.5166015625 675.416015625 -55.814453125 c 4
 625.0078125 -56.1796875 589.495117188 -45.9150390625 571.6875 -36.138671875 c 5
 590.45703125 38.328125 l 5
 611.125 22.771484375 663.908203125 10.5341796875 705.764648438 15.6123046875 c 4
125.979492188 245.841796875 m 4
 125.15234375 150.483398438 186.659179688 56.111328125 336.004882812 50.5908203125 c 4
 421.580078125 47.0771484375 506.891601562 79.8349609375 509.004882812 150 c 4
 510.190429688 200.606445312 476.321289062 247 410.004882812 247 c 5
 451.004882812 281 l 5
 493.004882812 279.932617188 562.657226562 240.7421875 563.004882812 152 c 4
 563.51171875 44.1220703125 489.598632812 -57.0576171875 324.603515625 -55.0048828125 c 4
 166.708984375 -53.0400390625 65 61.9140625 65 221.564453125 c 4
 65 428.865234375 213.293945312 526 348.004882812 538 c 4
 355.884765625 461.879882812 l 4
 260.920898438 461.879882812 127.439453125 422.454101562 125.979492188 245.841796875 c 4
EndSplineSet
Fore
SplineSet
410 228 m 1
 416.105263158 465.315068493 542.280701754 583 700 583 c 0
 890.179775281 583 979 443.5 979 304 c 0
 979 133.391975309 891.699619772 -25.9783950617 699 -27 c 0
 650 -27 618 -20 601 -10 c 1
 594 -1.72881355932 590 30.3220338983 610 51 c 1
 628 38 661 29 706 30 c 0
 846.205405405 33.1163793103 904 142.519232101 904 271 c 0
 904 406.042278594 809.507177033 491 677 491 c 0
 567.382978723 491 452.872340426 423.564102564 447 228 c 1
 435 226 422 225 410 228 c 1
55 249 m 0
 55 471 222.0625 580.017857143 352 582 c 1
 360 563 354 524 348 515 c 1
 258.299539171 515 123.221679688 457 119 292 c 4
 116.014648438 165.623046875 194.634615385 67.1076233184 326 64 c 0
 435.313513514 62 515 114 515 212 c 0
 515 267 474 307 435 307 c 1
 446 351 l 1
 493 350 567 305 567 205 c 0
 567 80 484.411764706 -25 333 -25 c 0
 154.430656934 -25 55 89.936329588 55 249 c 0
EndSplineSet
EndChar

StartChar: si_Gha
Encoding: 24 3485 30
GlifName: si_G_ha
Width: 915
VWidth: 6
Flags: HMW
LayerCount: 4
Back
SplineSet
39 379 m 1xe8
 417 381 l 1
 419 336 l 1
 123 335 l 1
 38 322 l 1
 39 379 l 1xe8
547 373 m 1
 580 384 l 1
 679.491210938 410.330078125 865 380.840820312 865 186 c 0
 865 64 790.377929688 -45 659 -45 c 0
 554 -45 521 13 506 117 c 1
 505.427734375 116.142578125 540 147 534 165 c 24
 528 183 486.626953125 183.658203125 484 184 c 1
 481.327148438 184.34765625 438 184 427 162 c 24
 419 145 461.505859375 117.758789062 461 117 c 1
 443.119140625 16 420.748046875 -43.1982421875 304 -44 c 0
 171.470703125 -44.91015625 99.1728515625 54.9951171875 101 154 c 0
 103.165039062 268 197.35546875 346 232 347 c 1
 326 338 l 1
 239.861328125 324.103515625 161.854492188 266.251953125 163 183 c 0
 163.899414062 112.950195312 215.602539062 66.7216796875 304 62 c 0
 345.575534477 59.7790143032 409.211914062 74.7744140625 415 107.828125 c 1
 414.201171875 132.467773438 370.123013369 139.845373801 371 171 c 0
 372.030155581 207.595896569 416.004882812 243.372070312 488 242 c 0
 555.00390625 240.72265625 590 210 590 174 c 0
 590 142.71560447 550.262695312 129.123046875 548 112.466796875 c 1
 551.45703125 84.8037109375 620.854500708 64.2333014695 664 64 c 0
 743.806640625 63.599609375 799.400390625 113.7890625 801 195 c 0xf2
 803.384765625 310.975585938 705.305664062 383.813476562 542 328 c 1
 537 350.166992188 532.391601562 374.670898438 532 398 c 0
 530 500 603 568 687 570 c 0
 753.981445312 571.594726562 830 532 830 452 c 0
 830 356 737 330 737 330 c 1
 721 337 l 1
 721 337 760 374.990234375 760 424 c 0xe4
 760 465 719.879882812 513.047851562 656 509 c 0
 619.995117188 506.71875 577 472 572 411 c 0
 568.227539062 364.98046875 588 353 588 353 c 1
 547 373 l 1
388 364 m 1xe8
 391 398 391 417 379 445 c 0
 365 480 310 508 260 503 c 0
 209 419 l 1
 179 422 155 439 155 476 c 0
 155 543 227 568 280 568 c 0
 360 568 433.29296875 518.05078125 436 433 c 0
 437.56640625 383.791015625 428 358.083007812 419 337 c 1
 388 364 l 1xe8
EndSplineSet
Fore
SplineSet
38 352 m 1
 32 365 25 387 38 410 c 1
 417 410 l 1
 417 366 l 1
 123 366 l 1
 38 352 l 1
101 180 m 0
 101 293 200 377 236 377 c 2
 326 377 l 1
 240 363 163 307 163 215 c 0
 163 143 219 92 312 92 c 0
 353 92 410 117 415 148 c 1
 394 162 371 175 371 205 c 0
 371 242 414 272 484 272 c 0
 553 272 590 240 590 203 c 0
 590 172 560 159 548 152 c 1
 551 124 622 94 665 94 c 0
 746 94 801 145 801 229 c 0
 801 316 744 377 646 377 c 0
 615 377 580 371 542 358 c 1
 537 382 532 406 532 432 c 0
 532 533 597 596 695 596 c 0
 771 596 830 551 830 482 c 0
 830 386 737 360 737 360 c 1
 721 369 l 1
 721 369 760 405 760 454 c 0
 760 493 730 539 670 539 c 0
 625 539 568 500 568 430 c 0
 568 393 578 383 578 383 c 1
 547 403 l 1
 580 414 l 1
 600 419 623 422 647 422 c 0
 746 422 865 372 865 216 c 0
 865 94 790 -5 659 -5 c 0
 554 -5 521 53 506 157 c 1
 506 157 535 185 535 203 c 0
 535 226 486 227 482 227 c 0
 475.938770475 227 426 224.667513018 426 200 c 0
 426 183 461 158 461 157 c 0
 444 56 397 -5 292 -5 c 0
 162 -5 101 83 101 180 c 0
155 506 m 0
 155 573 227 598 280 598 c 0
 365 598 436 546 436 453 c 0
 436 410 427 387 419 367 c 1
 393 394 l 1
 394 405 395 415 395 424 c 0
 395 492 333 539 263 539 c 1
 209 449 l 1
 179 452 155 469 155 506 c 0
EndSplineSet
EndChar

StartChar: si_Nga
Encoding: 25 3486 31
GlifName: si_N_ga
Width: 829
VWidth: 16
Flags: HMW
LayerCount: 4
Back
SplineSet
407.098632812 474 m 25x9e
 257.098632812 490 l 17
 122.098632812 448 61.4638671875 383.963867188 56.0986328125 238 c 0
 53.349609375 163.2109375 96.107421875 56.189453125 144.098632812 18.7021484375 c 0
 103.098632812 -30.3115234375 l 0
 35.4404296875 20.875 -11.9013671875 137.236328125 -5.9013671875 245 c 0
 7.162109375 479.63671875 217.098632812 599 406.098632812 539 c 1
 407.098632812 474 l 25x9e
EndSplineSet
Refer: 29 3484 N 1 0 0 1 70.0989 0 2
Fore
SplineSet
50 171 m 0
 50 381 267 410 395 381 c 1
 386 340 l 1
 290 360 121 332 121 206 c 0
 121 140 164 91 242 91 c 0
 314 91 376 131 376 225 c 1
 383 229 408 233 415 228 c 1
 415 133 471 91 550 91 c 4
 634 91 703 187 703 360 c 0
 703 567 586 715 369 715 c 0
 280 715 209 685 168 660 c 1
 155 669 146 705 157 728 c 1
 214 755 273 769 370 769 c 0
 597 769 774 605 774 347 c 0
 774 181 719 -12 550 -12 c 0
 474 -12 414 19 392 81 c 1
 369 13 299 -12 240 -12 c 0
 142 -12 50 50 50 171 c 0
114 472 m 0
 114 539 186 564 239 564 c 0
 329 564 399 509 399 409 c 0
 399 375 393 359 387 340 c 1
 354 362 l 1
 356 373 357 383 357 393 c 0
 357 457 311 498 237 498 c 0
 231 498 225 498 218 497 c 1
 168 415 l 1
 138 418 114 435 114 472 c 0
EndSplineSet
EndChar

StartChar: si_Nnga
Encoding: 26 3487 32
GlifName: si_N_nga
Width: 1158
VWidth: 6
Flags: HMW
LayerCount: 4
Back
SplineSet
587.51171875 474 m 25x9e
 437.51171875 490 l 17
 302.51171875 448 241.876953125 383.963867188 236.51171875 238 c 0
 233.762695312 163.2109375 276.520507812 56.189453125 324.51171875 18.7021484375 c 0
 283.51171875 -30.3115234375 l 0
 215.853515625 20.875 168.51171875 137.236328125 174.51171875 245 c 0
 187.575195312 479.63671875 397.51171875 599 586.51171875 539 c 1
 587.51171875 474 l 25x9e
EndSplineSet
Refer: 29 3484 N 1 0 0 1 250.512 0 2
Fore
SplineSet
84 260 m 0
 84 466 248 588 408 588 c 0
 441 588 461 586 494 582 c 1
 470 526 l 25
 358 534 l 17
 223 492 152 418 147 272 c 0
 144 195 170 87 217 50 c 5
 212 26 200 3 176 1 c 5
 112 49 84 158 84 260 c 0
EndSplineSet
Refer: 29 3484 N 1 0 0 1 142 0 2
EndChar

StartChar: si_Cha
Encoding: 28 3489 33
GlifName: si_C_ha
Width: 855
VWidth: 6
Flags: HMWO
LayerCount: 4
Back
SplineSet
592 219 m 4xfe
 511.918945312 219.434570312 488.59767288 292.774526608 486.741210938 352 c 4
 480.630275284 546.953125 659.343518324 725.752779993 861 771 c 5
 888 708 l 5
 661.627138847 678.284179687 550.038899453 515.277348419 537.295898438 414 c 4
 525.741210937 322.166992188 542.078852691 262.99468962 595 264 c 4
 645.830847538 264.965602245 670.828253228 301.4742841 671 387 c 4
 671.085100446 432.637795276 645.946428571 513 549 513 c 4
 502 513 465 472.893333333 465 419 c 4
 465 367 490 352 490 352 c 5
 442 333 l 5
 434 358 426.578735898 384.002112713 427 426 c 4
 427.930555556 518.771653543 504.236111111 563 561 563 c 4
 670.688311688 563 725 482.128205128 725 397 c 4
 725 266.061523438 656.436523092 218.650326784 592 219 c 4xfe
119 209 m 0
 118 124 203 45 388 45 c 0
 563 45 663.451154009 127.008854445 665 216 c 0
 666.775330903 318.004157759 539 348 442 333 c 1
 462 373 l 1
 607 402 740.207129289 330.993840671 736 193 c 0xfd
 731 29 564 -59 383 -59 c 0
 189 -59 38.150918543 32.9980241705 40 180 c 0
 42 339 208 394 316 384 c 1
 292 345 l 1
 299 365 312.3731417 386.33162663 308 415 c 0
 299 474 239 505 171 490 c 0
 204 511 l 1
 149 409 l 1
 108 411 81.6005478023 436.013695057 83 471 c 0
 85 521 142 557 202 557 c 0
 272 557 343.891968781 516.997155104 346 439 c 0
 347 402 341 370 332 333 c 1
 208 351 119.917658967 287.001012186 119 209 c 0
EndSplineSet
Fore
SplineSet
45 207 m 0
 45 365 194.737304688 427 306 427 c 0
 315 427 323 427 331 426 c 1
 303 387 l 1
 309 404 320 423 320 446 c 0
 320 503 272.884765625 536 220 536 c 0
 209 536 197 535 186 532 c 1
 219 553 l 1
 164 451 l 1
 124 453 98 476 98 510 c 0
 98 562 157 599 217 599 c 0
 291 599 361 557 361 473 c 0
 361 439 355 409 347 375 c 1
 333 377 319 378 306 378 c 0
 198.301757812 378 117 315 117 238 c 0
 117 152.03515625 207.970703125 63.947265625 409 63 c 0
 625.850585938 61.9775390625 715 156 715 249 c 0
 715 342 616.708007812 379 524 379 c 0
 506.978515625 379 489.95703125 378 474 375 c 1
 497 415 l 1
 519 420 540 422 560 422 c 0
 685.34375 422 781 351 781 230 c 0
 781 57.375 601.467773438 -33 404 -33 c 0
 205.373046875 -33 45 59.5419921875 45 207 c 0
456 463 m 0
 457 552 542 598 603 598 c 0
 713 598 777 519 777 437 c 0
 777 306 708 269 644 269 c 0
 564 269 531 333 529 392 c 0
 523 587 661 756 853 811 c 1
 867 803 886 776 880 748 c 1
 714 708 602 595 579 454 c 0
 564 363 594 313 647 314 c 0
 705 315 723 358 723 434 c 0
 723 487 686 548 601 548 c 0
 548 548 507 509 507 459 c 0
 507 407 522 392 522 392 c 1
 474 373 l 1
 466 398 456 421 456 463 c 0
EndSplineSet
EndChar

StartChar: si_Ja
Encoding: 29 3490 34
GlifName: si_J_a
Width: 841
VWidth: 6
Flags: HMW
LayerCount: 4
Back
SplineSet
637 458 m 9xf8
 688 479 l 25
 688 479 689.344726562 453.623046875 690 432 c 0
 691 399 681.14316462 345.14565047 612 346 c 0
 529.8046875 347.015625 511.294642069 411.631971212 510.409179688 474 c 0
 508.469726562 610.606445312 612.135742188 725.743164062 761 771 c 1
 784 684 l 21
 669.265625 682.305664062 545.011365245 606.846052658 555.295898438 461 c 0
 558.677497152 413.045191066 581.100585938 386.447265625 614 385 c 4
 662.357421875 382.873046875 648.147857261 447.357724458 637 458 c 9xf8
497 352 m 1
 442 333 l 1
 434 358 427 384 427 426 c 0
 428 512 510 553 571 553 c 0
 654 553 715 507 715 427 c 0
 715 349 618 309 618 309 c 1
 602 326 l 1
 636.051288152 347.130311028 650.883587155 377.105818001 651 417 c 0
 651.13422914 462.999749757 608 494 549 494 c 0
 502 494 469 452 469 409 c 0
 469 357 497 352 497 352 c 1
119 209 m 0
 118 124 203 45 388 45 c 0
 563 45 663.451154009 127.008854445 665 216 c 0
 666.775330903 318.004157759 539 348 442 333 c 1
 462 373 l 1
 607 402 740 331 736 193 c 0xf4
 731 29 564 -59 383 -59 c 0
 189 -59 38 33 40 180 c 0
 42 339 208 394 316 384 c 1
 287 345 l 1
 294 365 307.373046875 386.33203125 303 415 c 0
 294 474 239 505 171 490 c 0
 204 511 l 1
 149 409 l 1
 108 411 81.6005478023 436.013695057 83 471 c 0
 85 521 142 557 202 557 c 0
 272 557 344 517 346 439 c 0
 347 402 341 370 332 333 c 1
 208 351 120 287 119 209 c 0
EndSplineSet
Fore
SplineSet
519 392 m 1
 529 587 651 776 793 851 c 5
 808 841 822 823 820 798 c 5
 704 728 592 595 569 454 c 0
 566 438 565 423 565 409 c 1
 519 392 l 1
EndSplineSet
Refer: 1 3508 N 1 0 0 1 0 0 2
EndChar

StartChar: si_Ttha
Encoding: 35 3496 39
GlifName: si_T_tha
Width: 858
VWidth: 16
Flags: HMW
LayerCount: 4
Back
SplineSet
456.158203125 305 m 1
 473.842773438 392.088867188 417.509765625 448.735351562 320.158203125 440 c 1
 270.158203125 358 l 1
 240.158203125 361 216.158203125 378 216.158203125 415 c 0
 216.158203125 482 288.158203125 507 341.158203125 507 c 0
 421.158203125 507 496.814453125 457.983398438 501.158203125 373 c 0
 503.724609375 322.791015625 497.158203125 304.083007812 490.158203125 282 c 1
 456.158203125 305 l 1
488.600585938 293 m 1
 462.600585938 305 424.625976562 291.521484375 391.600585938 290 c 0
 295.790039062 285.69921875 215.788085938 248.908203125 214.600585938 161 c 0
 213.958007812 113.450195312 256.443359375 71.2998046875 334.158203125 71 c 0
 400.189453125 70.7548828125 456.600585938 111.124023438 456.600585938 205 c 1
 463.604492188 205.030273438 488.456054688 205.259765625 495.158203125 205.6796875 c 1
 495.158203125 108.375 559.352539062 71.36328125 614.158203125 71 c 0
 695.009765625 70.4794921875 746.059570312 143.420898438 750.600585938 317 c 0
 756.427734375 552.506835938 608.084960938 660.170898438 463.600585938 663 c 0
 322.174804688 665.685546875 232.720703125 574 229.600585938 574 c 1
 196.600585938 625 l 0
 246.57421875 663.076171875 335.837890625 712.578125 454.600585938 712 c 0
 675 710.90234375 825.422851562 549.208007812 826.600585938 312 c 0
 827.336914062 149.983398438 775.153320312 -37.759765625 618.158203125 -41 c 0
 548.272460938 -42.470703125 492.403320312 -12.5888671875 472.600585938 51 c 1
 449.575195312 -17 380.48046875 -41.2734375 322.158203125 -41 c 0
 230.216796875 -40.5693359375 147.448242188 9.8798828125 143.600585938 128 c 0
 139.065429688 267.220703125 278.571289062 328.831054688 389.600585938 332 c 0
 461.600585938 334 478.600585938 319 478.600585938 319 c 1
 488.600585938 293 l 1
EndSplineSet
Fore
SplineSet
328 764 m 1
 367 778 l 1
 455 746 434.103166254 644.362753486 469 586 c 0
 500.45631068 538.173913043 587.485436893 530.347826087 685 566 c 1
 708 524 l 1
 632.4204947 473.866666667 471.255057276 445.194584153 415 556 c 0
 382 621 390 728 328 764 c 1
40 223 m 0
 40 408 191.407407407 521 320 521 c 1
 327 507 334 482 326 452 c 1
 207.768518519 452 100 383 100 250 c 0
 100 140 160.851351351 74 258 74 c 0
 344.4 74 393 131 393 218 c 1
 406 223 421 226 434 223 c 1
 434 124 491.664335664 70 567 70 c 0
 686.836363636 70 734.767714803 202.649171643 736 355 c 0
 738.039767451 607.182093506 520 734.296482412 328 763 c 1
 328 779 329 795 338 811 c 1
 619.447004608 770.130434783 806 577.024266986 806 341 c 0
 806 169.356955381 747.029288703 -30 563 -30 c 0
 467.941176471 -30 406.764705882 24 403 107 c 1
 421 107 l 1
 423.136054422 31 355.853873187 -29.3434861984 264 -30 c 0
 126.878504673 -31 40 67 40 223 c 0
EndSplineSet
EndChar

StartChar: si_Dda
Encoding: 36 3497 40
GlifName: si_D_da
Width: 917
VWidth: 16
Flags: HMW
LayerCount: 4
Back
SplineSet
450.110351562 715.259765625 m 4
 360.776367188 715.259765625 290.828125 684.611328125 249.938476562 660.07421875 c 5
 236.791015625 668.690429688 227.286132812 705.057617188 238.2421875 728.413085938 c 5
 295.416992188 755.336914062 354.659179688 769.006835938 451.659179688 769.006835938 c 4
 678.831054688 769.006835938 865.599609375 604.587890625 865.599609375 346.625 c 4
 865.599609375 150.35546875 799.797851562 -37 631.159179688 -37 c 4
 555.443359375 -37 495.252929688 -6.0986328125 473.591796875 56 c 5
 453.234375 -6.640625 376.392578125 -37 317.1171875 -37 c 4
 198.638671875 -37 121.5625 40.681640625 121.5625 161.486328125 c 4
 121.5625 301.767578125 245.8046875 381.260742188 343.591796875 382 c 5
 334.31640625 350.391601562 l 5
 258.610351562 350.391601562 189.588867188 266.797851562 189.588867188 191.115234375 c 4
 189.588867188 103.3359375 245.432617188 66 323.793945312 66 c 4
 395.314453125 66 457.591796875 106.407226562 457.591796875 200 c 5
 464.595703125 204.268554688 489.447265625 208.076171875 496.149414062 202.6796875 c 5
 496.149414062 107.482421875 562.638671875 66 631.236328125 66 c 4
 735.646484375 66 794.779296875 187.260742188 794.779296875 359.989257812 c 4
 794.779296875 566.508789062 667.565429688 715.259765625 450.110351562 715.259765625 c 4
59.1494140625 386 m 5
 473.149414062 383 l 5
 468.149414062 341 l 5
 165.149414062 341 l 5
 61.1494140625 324 l 5
 50.46875 338.057617188 43.5009765625 367.249023438 59.1494140625 386 c 5
435.149414062 363 m 5
 437.321289062 373.696289062 438.376953125 383.93359375 438.376953125 393.647460938 c 4
 438.376953125 457.63671875 392.5703125 493.885742188 318.440429688 493.885742188 c 4
 312.20703125 493.885742188 305.772460938 493.59375 299.149414062 493 c 5
 252.149414062 415 l 5
 222.149414062 418 198.149414062 432 198.149414062 469 c 4
 198.149414062 536 267.149414062 560 320.149414062 560 c 4
 410.228515625 560 480.716796875 509.989257812 480.716796875 410.237304688 c 4
 480.716796875 376.047851562 474.088867188 359.739257812 468.149414062 341 c 5
 435.149414062 363 l 5
EndSplineSet
Fore
SplineSet
121 162 m 4
 123 301 264 381 375 382 c 5
 365 350 l 5
 274 350 191 267 191 190 c 4
 191 131 240 74 319 74 c 4
 399 74 444 131 444 218 c 5
 457 223 472 226 485 223 c 5
 485 124 537 70 618 70 c 4
 735 70 793 221 793 358 c 4
 793 595 656 710 453 710 c 4
 313 710 218 638 215 638 c 5
 200 654 194 684 199 704 c 5
 251 736 341 769 467 769 c 4
 689 769 861 605 861 358 c 4
 861 192 795 -30 614 -30 c 4
 513 -30 458 24 454 107 c 5
 472 107 l 5
 474 21 401 -29 315 -30 c 4
 203 -31 119 43 121 162 c 4
40 386 m 5
 454 383 l 5
 449 341 l 5
 146 341 l 5
 42 324 l 5
 31 338 24 367 40 386 c 5
179 469 m 4
 179 536 248 560 301 560 c 4
 391 560 462 510 462 410 c 4
 462 376 455 360 449 341 c 5
 416 363 l 5
 418 374 419 384 419 394 c 4
 419 458 373 494 299 494 c 4
 293 494 287 494 280 493 c 5
 233 415 l 5
 203 418 179 432 179 469 c 4
EndSplineSet
EndChar

StartChar: si_Nna
Encoding: 38 3499 42
GlifName: si_N_na
Width: 1384
VWidth: 30
Flags: HMW
LayerCount: 4
Back
SplineSet
895.0703125 408 m 4
 787.703125 408 797.935546875 250.247070312 765.428710938 134 c 5
 751.079101562 274.952148438 l 5
 741.079101562 441.182617188 836.193359375 476 883.823242188 476 c 4
 932.532226562 476 1000.24804688 446.081054688 1005.42871094 354 c 5
 1005.42871094 348 l 5
 1017.38085938 442.46875 1093.02734375 476 1146.61425781 476 c 4
 1247.5625 476 1329.45117188 401.87109375 1329.45117188 219.342773438 c 4
 1329.45117188 80.765625 1279.12011719 -70.0009765625 1123.24121094 -70.0009765625 c 4
 1024.54199219 -70.0009765625 954.333007812 -22.419921875 954.333007812 132 c 5
 991.428710938 132 l 5
 992.92578125 23.7373046875 1056.53417969 -1.0009765625 1112.7578125 -1.0009765625 c 4
 1197.19433594 -1.0009765625 1226.47265625 106.603515625 1226.47265625 197.5859375 c 4
 1226.47265625 338.063476562 1196.07519531 408 1119.67382812 408 c 4
 1076.18652344 408 1029.30175781 368.509765625 1029.30175781 298 c 5
 967.428710938 298 l 5
 966.573242188 370.229492188 925.4375 408 895.0703125 408 c 4
230.048828125 332.629882812 m 260
 230.048828125 170.885742188 387.830078125 153.98828125 451.602539062 153.98828125 c 4
 483.421875 153.98828125 521.268554688 179.447265625 521.268554688 222.740234375 c 260
 521.268554688 263.330078125 493.2890625 296.540039062 452.698242188 296.540039062 c 260
 412.108398438 296.540039062 384.8984375 263.330078125 384.8984375 222.740234375 c 260
 384.8984375 182.150390625 414.108398438 151.940429688 444.698242188 151.940429688 c 261
 444.698242188 106.26953125 l 261
 395.659179688 106.26953125 350.458984375 164.76953125 350.458984375 223.809570312 c 260
 350.458984375 292.849609375 401.659179688 344.75 470.698242188 344.75 c 260
 545.73828125 344.75 586.938476562 290.549804688 586.938476562 231.509765625 c 260
 586.938476562 159.440429688 534.967773438 94.66015625 436.418945312 94.66015625 c 260
 295.044921875 94.66015625 185.608398438 182.720703125 185.608398438 316.48046875 c 260
 185.608398438 475.790039062 322.029296875 575.049804688 478.608398438 575.049804688 c 260
 654.819335938 575.049804688 784.12890625 438.84375 784.12890625 251.83984375 c 260
 784.12890625 132.530273438 717.553710938 -72 455.938476562 -72 c 260
 238.900390625 -72 225.705078125 89.91015625 122.338867188 89.91015625 c 260
 89.12890625 89.91015625 70.5185546875 70.919921875 54.6884765625 56.7001953125 c 261
 28.8583984375 86.2197265625 l 261
 247.763671875 273.590820312 563.78125 612.549804688 807.3984375 785.549804688 c 261
 841.999023438 738.969726562 l 261
 657.04296875 618.169921875 304.997070312 265.106445312 140.7890625 121.889648438 c 261
 216.052734375 121.889648438 258.41796875 17.330078125 449.088867188 17.330078125 c 260
 611.99609375 17.330078125 692.708984375 134.669921875 692.708984375 260.129882812 c 260
 692.708984375 420.740234375 567.893554688 514.299804688 448.1484375 514.299804688 c 260
 314.427734375 514.299804688 230.048828125 433.1953125 230.048828125 332.629882812 c 260
EndSplineSet
Fore
SplineSet
755 315 m 1
 753 478 844 512 894 512 c 0
 940 512 1002 482 1007 404 c 1
 1003 403 l 1
 1019 485 1089 516 1139 516 c 0
 1244 516 1329 442 1329 259 c 0
 1329 120 1279 -30 1123 -30 c 0
 1044 -30 954 8 954 162 c 1
 973 170 993 167 1001 162 c 1
 1002 74 1057 39 1113 39 c 0
 1197 39 1224 147 1226 238 c 0
 1229 397 1188 460 1119 460 c 0
 1062 460 1032 388 1032 266 c 1
 1017 258 993 255 981 263 c 1
 980 388 952 458 892 459 c 0
 789 461 796 294 765 174 c 1
 755 315 l 1
38 103 m 257
 227 310 627 716 777 859 c 257
 793 854 811 837 812 821 c 257
 694 710 288 300 144 147 c 257
 219 147 258 57 449 57 c 256
 612 57 693 175 693 300 c 256
 693 461 568 554 448 554 c 256
 314 554 230 474 230 373 c 256
 230 221 378 194 442 194 c 0
 488 194 524 226 524 269 c 256
 524 310 498 337 457 337 c 256
 416 337 389 304 389 263 c 256
 389 222 414 182 445 182 c 257
 445 152 l 257
 396 152 347 200 347 259 c 256
 347 328 402 385 471 385 c 256
 543 385 585 331 585 272 c 256
 585 200 532 137 433 137 c 256
 292 137 186 222 186 356 c 256
 186 515 322 615 479 615 c 256
 655 615 784 479 784 292 c 256
 784 173 718 -32 456 -32 c 256
 239 -32 237 103 134 103 c 256
 101 103 83 84 67 70 c 257
 43 78 34 92 38 103 c 257
EndSplineSet
EndChar

StartChar: si_Tha
Encoding: 41 3502 44
GlifName: si_T_ha
Width: 802
VWidth: 16
Flags: HMW
LayerCount: 4
Back
SplineSet
479.600585938 53 m 0
 654.061523438 53.3701171875 745.158203125 160.372070312 745.158203125 346 c 0
 745.158203125 548.7109375 586.444335938 641.901367188 452.663085938 668.212890625 c 0
 406.86328125 677.881835938 403.977539062 669.99609375 362.158203125 663 c 1
 363.158203125 731 l 1
 688.21484375 730.212890625 807.158203125 516.80859375 807.158203125 311 c 0
 807.158203125 91.0390625 677.127929688 -56.3818359375 478.600585938 -59 c 0
 285.607421875 -60.677734375 175.731445312 38.0029296875 172.600585938 176 c 0
 169.311523438 320.966796875 291.5859375 394.418945312 402.600585938 398 c 0
 464.600585938 400 504.600585938 379 504.600585938 379 c 1
 490.600585938 334 l 1
 464.600585938 346 430.600585938 352 397.600585938 350 c 0
 327.52734375 345.8515625 254.712890625 302.787109375 253.600585938 218 c 0
 252.600585938 140.005859375 316.598632812 52.2841796875 479.600585938 53 c 0
383.974609375 671.124023438 m 1
 455.158203125 680 l 1
 454.000976562 652.919921875 489.334960938 567.0546875 529.158203125 549 c 0
 605.26171875 516.365234375 644.32421875 581.057617188 701.158203125 533 c 1
 718.158203125 500 l 1
 649.293945312 518.92578125 598.65234375 455.291015625 507.158203125 485.301757812 c 0
 416.635742188 516.791992188 437.580078125 651.103515625 383.974609375 671.124023438 c 1
EndSplineSet
Fore
SplineSet
302 764 m 1
 341 778 l 1
 429 746 411 646 443 586 c 0
 473 531 556 522 649 563 c 1
 672 526 l 1
 599 479 441 451 389 556 c 0
 356 621 364 728 302 764 c 1
50 253 m 0
 50 432 183 531 315 531 c 1
 321 521 327 485 320 466 c 5
 185 466 107 389 107 279 c 0
 107 153 217 64 391 64 c 0
 586 64 673 226 675 376 c 0
 677 622 478 735 302 763 c 1
 302 779 297 795 312 811 c 1
 573 771 747 591 747 361 c 0
 747 131 606 -36 389 -36 c 0
 155 -36 50 108 50 253 c 0
EndSplineSet
EndChar

StartChar: si_Da
Encoding: 42 3503 45
GlifName: si_D_a
Width: 619
VWidth: 13
Flags: HMW
LayerCount: 4
Back
SplineSet
526.106445312 -389.28125 m 1
 382.545898438 -403.743164062 323.763671875 -298.6640625 320.015625 -231 c 4
 317.322265625 -146.361328125 373.14453125 -34.4345703125 513.015625 16 c 1
 525.015625 18.3330078125 533.015625 -0.3330078125 497.015625 2 c 1
 257.522460938 -90.2666015625 42.9150390625 -4.337890625 45.015625 165 c 0
 46.935546875 319.76171875 209.903320312 393.12109375 401.015625 394 c 0
 460.018554688 394.271484375 503.015625 385 503.015625 385 c 1
 503.015625 387.5 492.370117188 375.5 492.015625 378 c 1
 495.615234375 475 377.015625 506 322.015625 498 c 1
 266.015625 409 l 1
 220.015625 412 199.572265625 452.114257812 209.015625 488 c 0
 224.015625 545 277.015625 571 340.015625 571 c 0
 412.015625 571 510.015625 528 524.015625 444 c 0
 533.111328125 389.426757812 517.015625 345 517.015625 345 c 1
 517.015625 343 l 1
 277.473632812 364.4921875 166.551757812 306.422851562 156.015625 199 c 0
 142.364257812 59.8173828125 307.245117188 -31.3037109375 553.015625 57 c 1
 569.015625 23 l 1
 475.79296875 -18.275390625 429.576171875 -95.525390625 418.015625 -148 c 0
 402.9453125 -208.849609375 397.454101562 -324.783203125 549.374023438 -359.80859375 c 1
 526.106445312 -389.28125 l 1
EndSplineSet
Fore
SplineSet
45 193 m 0
 45 351 211 424 404 424 c 0
 462 424 503 415 503 415 c 1
 503 417 492 405 492 408 c 0
 492 495 399 529 340 529 c 0
 333 529 327 529 322 528 c 1
 266 439 l 1
 227 442 207 471 207 501 c 0
 207 571 277 601 340 601 c 0
 425 601 527 549 527 440 c 0
 527 400 519 376 517 373 c 1
 484 376 453 377 425 377 c 0
 244 377 155 321 155 213 c 0
 155 120 238 52 372 52 c 0
 425 52 506 67 553 91 c 1
 565 87 568 59 563 49 c 1
 470 8 430 -66 418 -118 c 0
 414 -134 411 -153 411 -174 c 0
 411 -233 437 -304 549 -330 c 1
 548 -340 539 -351 526 -359 c 1
 517 -360 508 -361 500 -361 c 0
 375 -361 320 -263 320 -195 c 0
 320 -111 376 -3 513 46 c 1
 497 32 l 1
 430 6 365 -6 306 -6 c 0
 155 -6 45 72 45 193 c 0
EndSplineSet
Layer: 3
SplineSet
456.106445312 -399.28125 m 5
 373.345703125 -372.770507812 330.344726562 -299.50390625 328.015625 -225 c 4
 325.43359375 -142.416992188 378.942382812 -33.208984375 513.015625 16 c 5
 525.015625 18.3330078125 533.015625 -0.3330078125 497.015625 2 c 5
 257.522460938 -90.2666015625 42.9150390625 -4.337890625 45.015625 165 c 4
 46.935546875 319.76171875 209.903320312 393.12109375 401.015625 394 c 4
 460.018554688 394.271484375 503.015625 385 503.015625 385 c 5
 503.015625 387.5 492.370117188 375.5 492.015625 378 c 5
 495.615234375 475 377.015625 506 322.015625 498 c 5
 266.015625 409 l 5
 220.015625 412 199.572265625 452.114257812 209.015625 488 c 4
 224.015625 545 277.015625 571 340.015625 571 c 4
 412.015625 571 510.015625 528 524.015625 444 c 4
 533.111328125 389.426757812 517.015625 345 517.015625 345 c 5
 517.015625 343 l 5
 277.473632812 364.4921875 166.551757812 306.422851562 156.015625 199 c 4
 142.364257812 59.8173828125 307.245117188 -31.3037109375 553.015625 57 c 5
 569.015625 23 l 5
 477.028320312 -15.8623046875 431.986328125 -88.3837890625 420.015625 -138 c 4
 401.427734375 -215.045898438 416.208984375 -321.025390625 471.374023438 -369.80859375 c 5
 456.106445312 -399.28125 l 5
EndSplineSet
EndChar

StartChar: si_Dha
Encoding: 43 3504 46
GlifName: si_D_ha
Width: 865
VWidth: 16
Flags: HMW
LayerCount: 4
Back
SplineSet
395.62109375 284 m 5
 260.125 301.37890625 133.086914062 252.458984375 137.62109375 158 c 4
 140.690429688 87.791015625 228.892578125 45.1572265625 374.62109375 46 c 4
 568.62109375 47.1220703125 676.62109375 174.791015625 676.62109375 339 c 4
 676.62109375 547.71875 567.5625 679.712890625 351.62109375 677 c 4
 228.684570312 675.456054688 141.931640625 606 138.62109375 606 c 5
 106.62109375 660 l 5
 148.857421875 688.125 229 735.633789062 367.62109375 735 c 4
 575.4375 734.018554688 739.62109375 582.319335938 739.62109375 331 c 4
 739.62109375 111.353515625 608.036132812 -48.5791015625 384.62109375 -58 c 4
 202.177734375 -65.2548828125 58.970703125 8.0341796875 55.62109375 137 c 4
 51.865234375 299.32421875 249.060546875 339.377929688 363.62109375 332 c 5
 363.62109375 402 313.62109375 438 221.62109375 438 c 5
 195.62109375 357 l 5
 144.62109375 350 110.381835938 378.857421875 118.62109375 425 c 4
 128.62109375 481 186.62109375 500 233.62109375 500 c 4
 309.62109375 500 399.620117188 463 403.62109375 359 c 4
 405.004882812 323.026367188 395.62109375 284 395.62109375 284 c 5
EndSplineSet
Fore
SplineSet
50 222 m 4
 50 394 188 501 312 501 c 4
 372 501 403 482 403 482 c 5
 404 462 400 446 390 437 c 5
 367 448 338 453 308 453 c 4
 215 453 120 365 120 250 c 4
 120 160 177 74 268 74 c 4
 348 74 393 131 393 218 c 5
 406 223 421 226 434 223 c 5
 434 124 486 70 567 70 c 4
 684 70 742 221 742 358 c 4
 742 595 602 710 402 710 c 4
 262 710 167 638 164 638 c 5
 149 654 143 684 148 704 c 5
 200 736 290 769 416 769 c 4
 638 769 810 605 810 358 c 4
 810 192 744 -30 563 -30 c 4
 462 -30 407 24 403 107 c 5
 421 107 l 5
 423 21 350 -29 264 -30 c 4
 140 -31 50 66 50 222 c 4
EndSplineSet
EndChar

StartChar: si_Nda
Encoding: 45 3507 47
GlifName: si_N_da
Width: 674
VWidth: 13
Flags: HMW
LayerCount: 4
Fore
SplineSet
42 249 m 0
 21.4166666667 445.011661808 143.833333333 602.026239067 393 601 c 0
 427.444444444 601 451.242424242 595 455 589 c 1
 456 531 l 1
 321 551 l 1
 188.847457627 544.853146853 93.0847457627 416.793706294 95 258 c 0
 96.1904761905 195.882352941 143.80952381 111.764705882 220 82 c 5
 187 40 l 5
 104.64 83.2840236686 51.28 156.24852071 42 249 c 0
EndSplineSet
Refer: 45 3503 N 1 0 0 1 55 0 2
EndChar

StartChar: si_Pha
Encoding: 47 3509 48
GlifName: si_P_ha
Width: 802
VWidth: 16
Flags: HMW
LayerCount: 4
Back
SplineSet
363.974609375 671.124023438 m 1
 435.158203125 680 l 1
 434.000976562 652.919921875 469.334960938 567.0546875 509.158203125 549 c 0
 585.26171875 516.365234375 624.32421875 581.057617188 681.158203125 533 c 1
 698.158203125 500 l 1
 629.293945312 518.92578125 578.65234375 455.291015625 487.158203125 485.301757812 c 0
 396.635742188 516.791992188 417.580078125 651.103515625 363.974609375 671.124023438 c 1
432.663085938 668.212890625 m 0
 386.86328125 677.881835938 383.977539062 669.99609375 342.158203125 663 c 1
 343.158203125 731 l 1
 668.21484375 730.212890625 787.158203125 516.80859375 787.158203125 311 c 0
 787.158203125 91.0390625 667.127929688 -50.3818359375 477.158203125 -58 c 0
 268.44921875 -65.8603515625 153.522460938 17.8017578125 150.158203125 121 c 0
 145.772460938 269.0703125 299.12890625 309.060546875 412.158203125 303 c 5
 405.158203125 375.333007812 357.158203125 419 289.158203125 408 c 5
 263.158203125 327 l 1
 216.794921875 320 185.66796875 348.857421875 193.158203125 395 c 0
 202.549804688 451 257.01953125 470 301.158203125 470 c 0
 367.158203125 470 447.157226562 443 451.158203125 339 c 0
 452.541992188 303.026367188 443.158203125 252 443.158203125 252 c 1
 315.408203125 268.000976562 222.501953125 233.91015625 223.158203125 156 c 4
 223.698242188 85.6572265625 317.206054688 50.9384765625 461.158203125 52 c 0
 634.061523438 53.2998046875 725.158203125 160.372070312 725.158203125 346 c 0
 725.158203125 548.7109375 566.444335938 641.901367188 432.663085938 668.212890625 c 0
EndSplineSet
Fore
SplineSet
302 767 m 1
 341 788 l 1
 429 756 411 656 443 596 c 0
 473 541 556 532 649 573 c 1
 672 536 l 1
 599 489 441 461 389 566 c 0
 356 631 364 731 302 767 c 1
317.815429688 413.940429688 m 1
 329 414 l 1
 332 479 287 520 222 520 c 0
 215 520 207 519 199 518 c 1
 154 437 l 1
 123.361328125 435.872070312 100 455.271484375 100 492 c 0
 100 553 162 580 211 580 c 0
 287.34375 580 368.32307693 527.364596117 367.955006554 430.0000008 c 0
 367.831487839 397.325951356 357 358 357 358 c 1
 344 360 331.798828125 361.5625 315.525390625 361.5625 c 0
 222 361.5625 107 313.715820312 107 215 c 0
 107 124 210 74 386 74 c 0
 610 74 684 227 686 380 c 0
 689 629 488 738 302 766 c 1
 296 780 294 814 307 824 c 1
 568 784 747 601 747 371 c 0
 747 134 609 -26 382 -26 c 0
 149 -26 50 78 50 193 c 0
 50 346.273090168 183.217773438 411.700195312 317.815429688 413.940429688 c 1
EndSplineSet
EndChar

StartChar: si_Ba
Encoding: 48 3510 49
GlifName: si_B_a
Width: 871
VWidth: 6
Flags: HMW
LayerCount: 4
Back
SplineSet
539.479492188 284 m 1
 403.983398438 301.37890625 276.9453125 252.458984375 281.479492188 158 c 0
 284.677734375 82.6845703125 376.602539062 39.095703125 528.479492188 40 c 0
 718.625 41.1494140625 824.479492188 165.786132812 824.479492188 334 c 0
 824.479492188 543.329101562 714.078125 679.720703125 495.479492188 677 c 0
 372.54296875 675.456054688 285.790039062 606 282.479492188 606 c 1
 250.479492188 660 l 1
 292.715820312 688.125 372.858398438 735.633789062 511.479492188 735 c 0
 721.53125 734.015625 887.479492188 585.947265625 887.479492188 334 c 0
 887.479492188 114.912109375 758.118164062 -48.603515625 538.479492188 -58 c 0
 350.491210938 -65.2548828125 202.930664062 8.0341796875 199.479492188 137 c 0
 195.723632812 299.32421875 392.918945312 339.377929688 507.479492188 332 c 1
 507.479492188 402 457.479492188 438 365.479492188 438 c 1
 339.479492188 357 l 1
 288.479492188 350 254.240234375 378.857421875 262.479492188 425 c 0
 272.479492188 481 330.479492188 500 377.479492188 500 c 0
 453.479492188 500 543.478515625 463 547.479492188 359 c 0
 548.86328125 323.026367188 539.479492188 284 539.479492188 284 c 1
EndSplineSet
Fore
SplineSet
50 167 m 4
 50 341 172 451 310 451 c 4
 409 451 516 390 516 262 c 4
 516 258 515 254 515 250 c 5
 503 236 l 5
 476 229 437 199 437 147 c 4
 437 95 488 67 556 67 c 4
 680 67 741 187 748 333 c 4
 757 545 649 706 364 706 c 4
 248 706 148 642 148 642 c 4
 142 640 121 676 135 709 c 5
 135 709 223 766 371 766 c 4
 635 766 815 603 815 335 c 4
 815 121 726 -41 556 -41 c 4
 428 -41 377 34 377 112 c 4
 377 194 434 255 486 267 c 5
 474 252 l 5
 421 331 357 353 300 353 c 4
 195 353 103 284 103 146 c 4
 103 62 139 -2 212 -2 c 4
 253 -2 272 31 272 58 c 4
 272 91 252 117 220 117 c 4
 194 117 171 97 171 60 c 4
 171 33 187 -1 230 -6 c 5
 233 -17 l 5
 174 -15 132 12 132 63 c 4
 132 120 175 168 235 168 c 4
 281 168 334 133 334 67 c 4
 334 15 295 -43 214 -43 c 4
 94 -43 50 74 50 167 c 4
EndSplineSet
EndChar

StartChar: si_Bha
Encoding: 49 3511 50
GlifName: si_B_ha
Width: 1101
VWidth: 6
Flags: HMW
LayerCount: 4
Back
SplineSet
59.7021484375 373 m 5
 438.702148438 372 l 5
 433.702148438 331 l 5
 142.702148438 326 l 5
 58.7021484375 308 l 5
 59.7021484375 373 l 5
EndSplineSet
Refer: 57 3524 S 1 0 0 1 94.7024 0 2
Fore
SplineSet
61 353 m 5
 56 375 55 394 61 410 c 5
 440 410 l 5
 442 368 l 5
 146 368 l 5
 61 353 l 5
EndSplineSet
Refer: 57 3524 N 1 0 0 1 95 0 2
EndChar

StartChar: si_Ma
Encoding: 50 3512 51
GlifName: si_M_a
Width: 860
VWidth: 16
Flags: HMW
LayerCount: 4
Back
SplineSet
579.435546875 365.115234375 m 4
 579.435546875 288.6171875 535.44140625 186.986328125 406.919921875 186.986328125 c 4
 301.862304688 186.986328125 218.43359375 239.481445312 218.43359375 355 c 4
 218.43359375 404.5390625 203.478515625 425.005859375 170.286132812 425.005859375 c 4
 123.544921875 425.005859375 97.81640625 359.7890625 97.81640625 286.059570312 c 4
 97.81640625 141.196289062 216.984375 43.9912109375 406.263671875 43.9912109375 c 4
 621.899414062 43.9912109375 706.645507812 196.577148438 708.708007812 339 c 4
 711.317382812 519.211914062 619.583007812 670.03515625 379.115234375 670.03515625 c 4
 251.059570312 670.03515625 165.360351562 603 162.43359375 603 c 5
 134.43359375 652 l 5
 134.43359375 652 249.493164062 732.00390625 393.659179688 732.00390625 c 4
 635.116210938 732.00390625 775.388671875 548.2265625 775.388671875 334 c 4
 775.388671875 95.5927734375 630.669921875 -58 407.43359375 -58 c 4
 144.686523438 -58 39.3740234375 94.173828125 39.3740234375 240.522460938 c 4
 39.3740234375 395.615234375 97.1484375 473.034179688 174.0390625 473.034179688 c 4
 224.393554688 473.034179688 262.252929688 436.755859375 262.252929688 367 c 4
 262.252929688 262.442382812 357.040039062 249.48828125 404.50390625 249.998046875 c 4
 493.490234375 250.954101562 538.973632812 299.7265625 540.484375 369.48046875 c 4
 541.915039062 435.499023438 492.567382812 486.001953125 416.873046875 476.001953125 c 4
 382.168945312 471.017578125 359.424804688 447.6796875 359.424804688 417.051757812 c 4
 359.424804688 397.314453125 371.916015625 368.55859375 406.715820312 368.55859375 c 4
 441.966796875 368.55859375 459.431640625 399.53125 459.431640625 426.853515625 c 4
 459.431640625 446.291015625 453.889648438 467.45703125 442.43359375 485.561523438 c 5
 468.43359375 484.561523438 l 5
 485.984375 466.829101562 494.556640625 444.040039062 494.556640625 420.515625 c 4
 494.556640625 369.309570312 462.387695312 319.997070312 401.740234375 319.997070312 c 4
 361.481445312 319.997070312 310.426757812 346.129882812 310.426757812 409.010742188 c 4
 310.426757812 462.715820312 352.796875 515 426.43359375 515 c 4
 516.475585938 515 579.435546875 444.900390625 579.435546875 365.115234375 c 4
EndSplineSet
Fore
SplineSet
50 293 m 0
 49 442 134 522 201 522 c 4
 246 522 274 496 275 431 c 4
 276 304 362.997070312 290.189453125 423 291 c 4
 497 292 545 335 546 398 c 4
 548 466 504 520 428 509 c 4
 394 504 371 477 371 442 c 4
 371 424 384 398 418 398 c 4
 453 398 470 429 470 456 c 4
 470 478 464 497 453 515 c 5
 479 514 l 5
 495 499 506 474 506 450 c 4
 506 400 474 352 414 352 c 4
 372 352 324 377 324 438 c 4
 324 492 369 548 443 548 c 4
 539 548 589 477 589 400 c 4
 589 315 534 227 415 227 c 4
 302.186523438 227 236.861328125 291.4375 233 415 c 4
 232 464 220 479 195 479 c 4
 147 479 106.842773438 409.998046875 108 318 c 0
 110 159 254.000289452 75.0469469289 420 74 c 0
 632.998195905 72.6566373741 737 210 743 359 c 0
 750 545 639 705 411 705 c 0
 292 705 211 646 208 646 c 1
 198 652 183 684 190 709 c 1
 190 709 282 765 423 762 c 0
 659 756 805 578 805 364 c 0
 805 126 643 -28 419 -28 c 0
 190 -28 51.201171875 114.00390625 50 293 c 0
EndSplineSet
Layer: 2
SplineSet
195.43359375 418 m 5
 154.384765625 386.802734375 129.760742188 320.063476562 132.43359375 258 c 4
 137.9375 130.204101562 257.428710938 60.369140625 390.43359375 60 c 4
 585.4296875 59.458984375 668.725585938 192.06640625 674.43359375 317 c 4
 683.43359375 514 578.431640625 663.875976562 381.43359375 667 c 4
 260.432617188 668.918945312 166.43359375 595 163.43359375 595 c 5
 145.43359375 621 l 4
 145.43359375 621 250.431640625 706.665039062 397.43359375 706 c 4
 618.43359375 705 756.43359375 549 746.43359375 312 c 4
 737.623046875 103.185546875 614.43359375 -59 393.43359375 -59 c 4
 170.43359375 -59 70.9033203125 63.16796875 68.43359375 209 c 4
 66.09375 347.161132812 127.37109375 412.219726562 180.43359375 451 c 4
 195.43359375 450.357421875 l 5
 210.896484375 436 l 5
 208.10546875 339.133789062 255.377929688 230.7109375 388.43359375 230 c 4
 483.4375 229.4921875 507.43359375 298 507.43359375 343 c 4
 507.43359375 396.241210938 462.440429688 441.466796875 399.43359375 442 c 4
 356.6328125 442.362304688 335.696289062 421.0390625 335.43359375 396 c 4
 335.149414062 368.926757812 351.43359375 353 380.43359375 351.561523438 c 4
 438.470703125 348.682617188 425.442382812 415.986328125 426.43359375 445.561523438 c 5
 426.948242188 440.146484375 465.392578125 443.584960938 453.43359375 435.561523438 c 5
 469.68359375 412.91796875 467.865234375 308.831054688 376.43359375 310 c 4
 321.356445312 310.704101562 295.171875 346.096679688 294.43359375 385.856445312 c 4
 293.428710938 440.03125 338.43359375 481 401.43359375 481 c 4
 471.43359375 481 552.43359375 438 550.43359375 334 c 4
 549.483398438 284.586914062 514.43359375 184 381.43359375 184 c 4
 251.221679688 184 166.583007812 277.543945312 174.43359375 419 c 5
 195.43359375 418 l 5
EndSplineSet
EndChar

StartChar: si_Mba
Encoding: 51 3513 52
GlifName: si_M_ba
Width: 865
VWidth: 16
Flags: HMW
LayerCount: 4
Back
SplineSet
595.83984375 -43.013671875 m 0
 764.158203125 -43.013671875 820.110351562 190.034179688 820.110351562 317.23046875 c 0
 820.110351562 538.0703125 690.614257812 743.002929688 420.338867188 743.002929688 c 0
 251.002929688 743.002929688 129.0859375 657 129.0859375 657 c 1
 164.0859375 600 l 1
 167.36328125 600 259.487304688 680.51953125 400.0859375 682 c 0
 664.8671875 684.788085938 749.37890625 534.267578125 749.37890625 325.692382812 c 4
 749.37890625 203.387695312 699.783203125 55.2900390625 584.357421875 55.2900390625 c 0
 530.260742188 55.2900390625 493.459960938 81.6787109375 490.0859375 124.466796875 c 1
 502.348632812 146.537109375 532.0859375 164.547851562 532.0859375 206 c 0
 532.0859375 242.514648438 490.125 273.0390625 415.334960938 273.0390625 c 0
 351.0234375 273.0390625 313.0625 238.702148438 313.0625 200.985351562 c 0
 313.0625 164.037109375 336.65625 139.123046875 357.0859375 125.828125 c 1
 341.315429688 74.7548828125 305.97265625 53.9873046875 244.737304688 53.9873046875 c 0
 156.51953125 53.9873046875 110.083007812 135.182617188 110.083007812 225.384765625 c 0
 110.083007812 328.625 150.909179688 408.010742188 219.146484375 408.010742188 c 0
 255.272460938 408.010742188 262.0859375 371.577148438 262.0859375 328 c 0
 262.0859375 285.559570312 305.33203125 226 428.571289062 226 c 0
 538.525390625 226 591.325195312 310.2734375 591.325195312 377.76953125 c 0
 591.325195312 460.4921875 533.74609375 513 459.0859375 513 c 0
 374.634765625 513 342.076171875 452.721679688 342.076171875 413.915039062 c 0
 342.076171875 349.384765625 387.661132812 321.98046875 429.137695312 321.98046875 c 0
 488.447265625 321.98046875 514.301757812 371.37109375 514.301757812 418.228515625 c 0
 514.301757812 436.395507812 510.415039062 454.181640625 503.0859375 468.561523438 c 1
 461.0859375 473.561523438 l 1
 472.341796875 459.3125 477.583007812 442.65625 477.583007812 427.069335938 c 0
 477.583007812 398.484375 460.029296875 373.55859375 429.462890625 373.55859375 c 0
 395.497070312 373.55859375 382.078125 399.428710938 382.078125 419.184570312 c 0
 382.078125 443.725585938 404.545898438 473.001953125 442.560546875 473.001953125 c 0
 520.760742188 473.001953125 543.3125 404.42578125 537.3125 356.34375 c 0
 532.700195312 319.385742188 513.120117188 272.963867188 423.317382812 272.963867188 c 0
 353.198242188 272.963867188 308.905273438 296.475585938 308.905273438 350 c 0
 308.905273438 419.559570312 271.916992188 456.045898438 225.935546875 456.045898438 c 0
 128.6484375 456.045898438 42 350.512695312 42 202.122070312 c 0
 42 101.249023438 83.779296875 -42.017578125 239.000976562 -42.017578125 c 0
 330.6328125 -42.017578125 403.091796875 20.4423828125 403.091796875 149.018554688 c 0
 403.091796875 150 369.077148438 167.112304688 369.077148438 195.217773438 c 0
 369.077148438 222.396484375 412.146484375 225.1015625 424.838867188 225.1015625 c 0
 430.157226562 225.1015625 476.107421875 219.705078125 476.107421875 194.515625 c 0
 476.107421875 161.596679688 444.0859375 149 444.0859375 149 c 1
 443.921875 144.627929688 443.840820312 140.3359375 443.840820312 136.122070312 c 0
 443.840820312 12.9931640625 512.916015625 -43.013671875 595.83984375 -43.013671875 c 0
EndSplineSet
Fore
SplineSet
50 272 m 1
 50 160 92 -32 249 -32 c 0
 315 -32 385 0 385 99 c 0
 385 100 349 106 349 129 c 0
 349 155 379 165 412 165 c 0
 444 165 476 155 476 129 c 0
 476 106 434 99 434 99 c 1
 431 1 489 -33 569 -33 c 0
 750 -33 810 219 810 357 c 0
 810 573 646 773 400 773 c 0
 248 773 139 694 139 694 c 1
 164 647 l 1
 165 647 263 714 397 714 c 0
 627 714 739 563 739 356 c 0
 739 225 683 65 554 65 c 0
 510 65 490 75 478 86 c 1
 497 91 527 108 527 141 c 0
 527 179 482 213 415 213 c 0
 340 213 296 177 296 137 c 0
 296 108 320 94 340 86 c 1
 325 73 311 65 275 65 c 0
 157 65 112 189 110 295 c 0
 108 381 149 484 207 484 c 0
 235 484 244 463 249 421 c 0
 256 366 269 326 298 300 c 0
 333 268 381 255 428 255 c 0
 540 255 591 332 591 406 c 0
 591 483 537 550 439 550 c 0
 367 550 326 498 326 444 c 0
 326 382 372 356 408 356 c 0
 473 356 507 405 507 456 c 0
 507 480 497 505 481 520 c 1
 455 521 l 1
 466 503 472 484 472 462 c 0
 472 435 454 404 419 404 c 0
 385 404 373 430 373 448 c 0
 373 481 396 506 430 511 c 0
 506 522 555 470 553 404 c 0
 552 345 511 305 432 304 c 0
 372 303 287 327 286 427 c 0
 285 499 258 528 213 528 c 0
 126 528 52 427 50 272 c 1
EndSplineSet
EndChar

StartChar: si_Ya
Encoding: 52 3514 53
GlifName: si_Y_a
Width: 885
VWidth: 6
Flags: HMW
LayerCount: 4
Back
SplineSet
533.029296875 366 m 1xfe
 665.262695312 410.743164062 830.029296875 353.65625 830.029296875 178 c 0
 830.029296875 41.892578125 749.337890625 -53 621.029296875 -53 c 0
 512.40625 -53 447.931640625 13 446.029296875 108 c 1
 444.029296875 105 479.029296875 111 477.029296875 108 c 1
 470.10546875 27 414.142578125 -51.3505859375 295.029296875 -52 c 0
 148.044921875 -52.837890625 66.740234375 49.0859375 66.029296875 178 c 0
 65.287109375 339.895507812 177.08984375 459.76953125 309.029296875 464 c 0
 335.03515625 464.833984375 362.029296875 463 386.029296875 453 c 1
 377.029296875 388 l 5
 344.204101562 402.400390625 319.0234375 404.036132812 276.029296875 401 c 4
 207.543945312 396.028320312 126.471679688 344.875976562 128.029296875 219 c 0
 129.1640625 124.959960938 193.806640625 62.5048828125 291.029296875 61 c 0
 370.528320312 59.796875 438.755859375 93 441.029296875 197 c 1
 477.029296875 197 l 1
 477.029296875 100 547.961914062 56 629.029296875 56 c 0
 733.25 56 768.918945312 116.850585938 770.029296875 188 c 0xfd
 771.225585938 267.428710938 710.802734375 384.211914062 513.029296875 321 c 1
 508.029296875 349.743164062 505.732421875 349.853515625 504.029296875 380 c 0
 494.614257812 484.619140625 578.416992188 548.891601562 665.029296875 549 c 0
 736.234375 549.086914062 802.029296875 514 802.029296875 434 c 0
 802.029296875 338 709.029296875 312 709.029296875 312 c 1
 683.029296875 329 l 1
 683.029296875 329 734.23828125 342.997070312 735.029296875 402 c 0
 735.672851562 449.994140625 684.130859375 479.125 640.029296875 479 c 0
 589.134765625 478.870117188 543.572265625 453 538.029296875 401 c 0
 534.029296875 355 551.029296875 339 551.029296875 339 c 1
 533.029296875 366 l 1xfe
EndSplineSet
Fore
SplineSet
55 205 m 4
 53 389 171 487 301 491 c 4
 320 492 339 490 356 486 c 5
 361 473 356 450 348 438 c 5
 333 443 319 446 303 446 c 4
 207 446 116 392 114 252 c 4
 113 154 175 84 287 84 c 4
 365 84 438 121 440 224 c 5
 445 227 464 232 479 229 c 5
 479 131 546 84 632 84 c 4
 720 84 769 156 770 229 c 4
 771 300 725 384 613 384 c 4
 584 384 551 379 513 366 c 5
 508 385 503 405 503 436 c 4
 503 535 581 594 665 594 c 4
 736 594 802 559 802 479 c 4
 802 383 709 357 709 357 c 5
 684 374 l 5
 684 374 736 389 736 448 c 4
 736 495 691 524 640 524 c 4
 585 524 537 495 537 434 c 4
 537 398 553 385 553 385 c 5
 517 398 l 5
 533 411 l 5
 562 421 591 426 621 426 c 4
 728 426 830 355 830 205 c 4
 830 69 747 -24 623 -24 c 4
 523 -24 450 32 446 135 c 5
 446 134 447 134 449 134 c 4
 455 134 468 136 474 136 c 4
 476 136 477 136 477 135 c 4
 470 53 408 -23 288 -23 c 4
 135 -23 56 78 55 205 c 4
EndSplineSet
EndChar

StartChar: si_La
Encoding: 54 3517 54
GlifName: si_L_a
Width: 910
VWidth: 25
Flags: HMW
LayerCount: 4
Back
SplineSet
355 341 m 1
 443.666666667 336.596679688 532.333333333 339.290039062 621 341 c 1
 621 294 l 1
 355 294 l 1
 355 341 l 1
620 295 m 1
 547.709677419 295 537 262 537 239 c 0
 537 191.264496312 595.001138693 166.735844698 645 168 c 0
 730.586206897 170.163934426 781 218.852459016 781 300 c 0
 781 409.951923077 680.522180886 509.968996741 506 510 c 0
 309.467732884 510.033994334 184.02420052 333.001423777 177 145 c 0
 169.534239511 -54.8196944059 280.09053023 -214.834296789 482 -232 c 4
 638.394494372 -245.296164253 744.364444444 -168.980073294 790 -115 c 0
 836 -172 l 0
 793.174050633 -220.06060606 665.451836998 -297.584578157 489 -294 c 0
 238.676640506 -288.914738992 66.7577688588 -139.141784136 66 89 c 0
 65.064383628 370.68640861 263.869266055 564 513 564 c 0
 732.544303797 564 849 422 849 296 c 0
 849 155.94520548 762 83 642 83 c 0
 514.512820513 83 467.003722264 152.776664134 466 213 c 0
 465 273 508 323 548 327 c 1
 620 295 l 1
EndSplineSet
Fore
SplineSet
371 344 m 1
 371 389 l 1
 653 389 l 1
 653 344 l 1
 371 344 l 1
65 145 m 0
 65 422 271 594 517 594 c 0
 747 594 855 457 855 336 c 0
 855 206 764 135 662 135 c 0
 553 135 503 198 503 257 c 0
 503 327 556 363 594 367 c 1
 652 345 l 1
 575 345 553 316 553 279 c 0
 553 234 609 211 669 211 c 0
 739 211 797 253 797 345 c 0
 797 447 703 539 515 539 c 0
 300 539 167 394 167 182 c 0
 167 -38 303 -194 532 -194 c 0
 671 -194 755 -130 794 -91 c 1
 816 -99 832 -120 838 -140 c 1
 796 -184 690 -257 510 -257 c 0
 227 -257 65 -94 65 145 c 0
EndSplineSet
EndChar

StartChar: si_Sha
Encoding: 56 3521 55
GlifName: si_S_ha
Width: 986
VWidth: 6
Flags: HMW
LayerCount: 4
Back
SplineSet
884.334960938 287.131835938 m 5x9c
 881.387695312 202.45703125 l 5
 854.8671875 208.05078125 764.361328125 180.313476562 740.004882812 144 c 0
 695.302734375 74.296875 752.693359375 25.1318359375 695.946289062 -23.029296875 c 1
 650.600585938 -14.3720703125 l 1
 690.58984375 40.443359375 636.146484375 100.857421875 680.790039062 176.172851562 c 0
 729.661132812 258.620117188 855.774414062 237.546875 884.334960938 287.131835938 c 5x9c
711.764648438 17.6123046875 m 0
 814.735351562 29.5859375 867.627929688 108.114257812 867.627929688 229.600585938 c 0
 867.627929688 353.83984375 787.364257812 445.533203125 647.942382812 445.533203125 c 0
 567.075195312 445.533203125 456.370117188 397.33203125 449.8828125 254.823242188 c 1
 399.615234375 238.01171875 l 1
 395.662109375 437.1640625 526.456054688 542.603515625 666.684570312 542.603515625 c 0xdc
 838.6484375 542.603515625 931.875 411.889648438 931.875 267.375 c 0
 931.875 101.1640625 847.114257812 -54.5166015625 675.416015625 -55.814453125 c 0
 624.540039062 -56.19921875 584.66015625 -45.9150390625 566.6875 -36.138671875 c 1
 591.45703125 40.328125 l 1
 613.021484375 24.771484375 668.092773438 12.5341796875 711.764648438 17.6123046875 c 0
122.979492188 245.841796875 m 0
 122.229492188 128.7109375 191.219726562 50.8837890625 319.004882812 47.5908203125 c 0
 425.431640625 44.8486328125 496.637695312 87.9111328125 499.004882812 160 c 0
 500.32421875 200.172851562 473.772460938 237 400.004882812 237 c 1
 451.004882812 291 l 1
 500.004882812 290 562.657226562 244.21484375 563.004882812 160 c 0
 563.456054688 47.953125 484.599609375 -55.0048828125 319.603515625 -55.0048828125 c 0
 151.696289062 -55.0048828125 65 61.9140625 65 221.564453125 c 0
 65 428.865234375 221.293945312 536 348.004882812 538 c 0
 355.884765625 462.879882812 l 0xbc
 260.920898438 462.879882812 124.064453125 415.424804688 122.979492188 245.841796875 c 0
EndSplineSet
Fore
SplineSet
380 218 m 1
 386 466 526 580 670 580 c 0
 844 580 932 443 932 297 c 0
 932 130 854 -26 673 -26 c 0
 624 -26 619 -22 602 -12 c 1
 597 4 595 23 610 41 c 1
 631 26 653 21 696 25 c 0
 803 35 866 143 866 270 c 0
 866 399 774 489 658 489 c 0
 559 489 431 437 425 218 c 1
 380 218 l 1
55 242 m 0
 55 466 217 576 343 578 c 1
 351 559 345 524 339 515 c 1
 254 515 126 455 122 287 c 0
 119 165 198 67 330 64 c 0
 437 62 515 114 515 212 c 0
 515 267 474 307 435 307 c 1
 446 351 l 1
 493 350 567 305 567 205 c 0
 567 86 483 -25 329 -25 c 0
 162 -25 55 87 55 242 c 0
611 40 m 1
 709 92 664 150 681 206 c 0
 709 298 855 267 884 317 c 1
 884 232 l 1
 882 232 876 233 873 233 c 0
 800 233 745 204 740 144 c 0
 733 52 696 3 636 7 c 1
 611 40 l 1
EndSplineSet
EndChar

StartChar: si_Ssa
Encoding: 57 3522 56
GlifName: si_S_sa
Width: 818
VWidth: 6
Flags: HMW
LayerCount: 4
Back
SplineSet
517.016601562 352 m 1xff80
 467.016601562 333 l 1
 459.016601562 358 451.528320312 375.002929688 452.016601562 417 c 0
 453.016601562 503 524.016601562 556 595.016601562 556 c 0
 668.016601562 556 720.016601562 507 720.016601562 427 c 0
 720.016601562 359 633.016601562 309 633.016601562 309 c 1
 597.016601562 326 l 1
 631.068359375 347.129882812 665.901367188 377.10546875 666.016601562 417 c 0
 666.150390625 463 632.016601562 494 583.016601562 494 c 0
 534.984375 494 490.016601562 452 490.016601562 409 c 0
 490.016601562 357 517.016601562 352 517.016601562 352 c 1xff80
134.016601562 209 m 0
 133.016601562 124 218.016601562 45 403.016601562 45 c 0
 578.016601562 45 678.467773438 127.008789062 680.016601562 216 c 0
 681.791992188 318.00390625 564.016601562 348 467.016601562 333 c 1
 487.016601562 373 l 1
 632.016601562 402 755.223632812 330.994140625 751.016601562 193 c 0xff40
 746.016601562 29 579.016601562 -59 398.016601562 -59 c 0
 204.016601562 -59 53.1591796875 32.998046875 55.0166015625 180 c 0
 57.0166015625 330.426757812 212.016601562 399.4609375 331.016601562 373 c 1
 307.016601562 345 l 1
 314.016601562 365 327.389648438 386.33203125 323.016601562 415 c 0
 314.016601562 474 254.016601562 505 186.016601562 490 c 0
 219.016601562 511 l 1
 164.016601562 409 l 1
 123.016601562 411 96.6171875 436.013671875 98.0166015625 471 c 0
 100.016601562 521 157.016601562 557 217.016601562 557 c 0
 287.016601562 557 358.909179688 516.997070312 361.016601562 439 c 0
 362.016601562 402 356.016601562 370 347.016601562 333 c 1
 223.016601562 359 134.934570312 287.000976562 134.016601562 209 c 0
658.016601562 323 m 1
 567.806640625 270.456054688 532.510742188 251.752929688 409.016601562 246 c 0
 378.159179688 244.5625 327.151367188 242.704101562 326.016601562 200 c 0
 325.3203125 173.78515625 362.4140625 147.779296875 429.016601562 148 c 0
 467.728515625 148.127929688 509.22265625 171.149414062 509.30078125 212 c 0
 509.364257812 245.018554688 480.301757812 262.201171875 468.016601562 270 c 1
 502.016601562 290 l 1
 501.661132812 268.418945312 548.73828125 261.372070312 549.875976562 195 c 0
 550.79296875 141.533203125 493.875976562 95.91015625 399.016601562 94 c 0
 294.798828125 91.9013671875 243.958007812 135.838867188 245.016601562 190 c 0
 246.385742188 259.994140625 329.200195312 277.727539062 399.016601562 281 c 0
 557.551757812 288.431640625 584.90234375 327.166015625 631.016601562 345.561523438 c 1
 658.016601562 323 l 1
EndSplineSet
Fore
SplineSet
250 220 m 0
 250 295.096774194 333.011955045 313.184311165 399 317 c 4
 558 324.79245283 585 355.962264151 631 376 c 1
 658 363 l 1
 578 305.025641026 532.113410603 282.134991901 409 278 c 0
 375.256637168 277 286 277 286 234 c 0
 286 206.304347826 326.62745098 185 398 185 c 0
 440.162162162 185 518 200.803571429 518 244 c 0
 518 272.448275862 482.634146341 287.103448276 468 294 c 1
 502 314 l 1
 502 297.021276596 550 292.170212766 550 238 c 0
 550 184.617647059 493.246835443 139 403 139 c 0
 303.701986755 139 250 175.191489362 250 220 c 0
EndSplineSet
Refer: 1 3508 N 1 0 0 1 10 0 2
EndChar

StartChar: si_Ha
Encoding: 59 3524 57
GlifName: si_H_a
Width: 1006
VWidth: 6
Flags: HMW
LayerCount: 4
Back
SplineSet
319.004882812 336 m 1
 336.689453125 423.088867188 280.356445312 479.735351562 183.004882812 471 c 1
 133.004882812 389 l 1
 103.004882812 392 79.0048828125 409 79.0048828125 446 c 0
 79.0048828125 513 151.004882812 538 204.004882812 538 c 0
 284.004882812 538 359.661132812 488.983398438 364.004882812 404 c 0
 366.571289062 353.791015625 357.004882812 331.083007812 350.004882812 309 c 1
 319.004882812 336 l 1
692.764648438 3.6123046875 m 0
 799.782226562 12.49609375 855.627929688 99.1904296875 855.627929688 236.600585938 c 0
 855.627929688 356.831054688 794.529296875 434.868164062 662.942382812 436.533203125 c 0
 581.99609375 437.557617188 443.370117188 390.266601562 456.8828125 254.823242188 c 1
 409.615234375 244.01171875 l 1
 395.662109375 427.034179688 524.456054688 542.603515625 664.684570312 542.603515625 c 0
 839.677734375 542.603515625 919.875 412.364257812 919.875 268.375 c 0
 919.875 76.21875 823.327148438 -52.93359375 649.416015625 -54.814453125 c 0
 608.541015625 -55.275390625 578.66015625 -45.9150390625 560.6875 -36.138671875 c 1
 586.45703125 29.328125 l 1
 608.021484375 13.771484375 639.108398438 -0.669921875 692.764648438 3.6123046875 c 0
111.979492188 186.841796875 m 0
 110.703125 90.6962890625 189.278320312 50.7744140625 307.004882812 46.5908203125 c 0
 372.458984375 44.2646484375 480.271484375 73.1357421875 482.004882812 155 c 0
 483.32421875 217.323242188 455.772460938 238.487304688 410.004882812 243 c 1
 453.004882812 291 l 1
 494.004882812 281.302734375 544.657226562 242.743164062 545.004882812 152 c 0
 545.456054688 37.15234375 467.599609375 -53.0048828125 302.603515625 -53.0048828125 c 0
 144.696289062 -53.0048828125 55 28.916015625 55 151.564453125 c 0
 55 318.865234375 198.293945312 380 345.004882812 372 c 0
 348.884765625 309.879882812 l 0
 223.920898438 329.879882812 113.438476562 286.419921875 111.979492188 186.841796875 c 0
EndSplineSet
Fore
SplineSet
400 218 m 1
 406 462 548 573 693 573 c 0
 873.633204633 573 965 440 965 297 c 4
 965 130 878.946768061 -26 689 -27 c 0
 640 -27 608 -20 591 -10 c 1
 584 -2 580 32 600 52 c 1
 618 39 651 30 696 31 c 0
 834.081081081 34 891 137 891 260 c 0
 891 391 808.474747475 481 676 481 c 0
 567.18699187 481 442.829268293 421 437 218 c 1
 425 216 412 215 400 218 c 1
79 499 m 0
 79 566 151 591 204 591 c 0
 291.549840981 591 364 538.009987609 364 441 c 0
 364 402 356 382 350 362 c 1
 319 389 l 1
 321 400 322 409 322 419 c 0
 322 481 277 518 204 518 c 0
 197 518 190 518 183 517 c 1
 133 435 l 1
 103 438 79 462 79 499 c 0
55 186 m 0
 55 346 186 426 326 426 c 0
 332 426 339 425 345 425 c 1
 349 363 l 1
 328 368 308 370 289 370 c 0
 185 370 117 305 117 220 c 0
 117 110 211 70 303 68 c 0
 413 66 499 104 499 189 c 0
 499 244 464 277 424 277 c 1
 446 314 l 1
 482 314 546 282 546 191 c 0
 546 77 462 -24 302 -24 c 0
 173 -24 55 63 55 186 c 0
EndSplineSet
EndChar

StartChar: si_Lla
Encoding: 60 3525 58
GlifName: si_L_la
Width: 854
VWidth: 25
Flags: HMW
LayerCount: 4
Back
SplineSet
747.662109375 316.857421875 m 1
 706 371 l 1
 702 364 l 1
 705.431640625 434.71875 677.935546875 501.544921875 607 500 c 0
 564.47265625 499.07421875 501.913085938 463.9609375 503 371 c 1
 477 369 l 1
 478.138671875 459.625976562 436.20703125 505.03515625 375 503 c 0
 315.325195312 501.1328125 285.365234375 434.89453125 285 384 c 0
 284.149414062 262.900390625 356.349609375 167.662109375 518 154.3359375 c 0
 607.342773438 145.145507812 666.795898438 163.501953125 721 197 c 1
 735 166 l 1
 673.184570312 99.427734375 603.87109375 78.2412109375 503 78.9765625 c 0
 353.713867188 80.076171875 226.702148438 173.544921875 223 359 c 0
 220.709960938 471.076171875 279.064453125 571.12109375 378 573 c 4
 490.043945312 575.44140625 509.450195312 440.340820312 491 408 c 1
 482 415 l 1
 483.694335938 469.4453125 522.125976562 572.453125 615 573 c 0
 690.361328125 573.443359375 747.099609375 522.587890625 752 418 c 0
 753.997070312 375.379882812 750.545898438 346.486328125 747.662109375 316.857421875 c 1
212 82 m 0
 186.310546875 -46.61328125 257.73828125 -214.885742188 441 -236.380859375 c 0
 575.911132812 -252.205078125 657.588867188 -209.567382812 731 -151 c 1
 765 -208 l 1
 715.22265625 -243.866210938 608.870117188 -302.046875 457 -296.19140625 c 0
 179.451171875 -285.490234375 85.052734375 -102.752929688 96 34 c 0
 118.716796875 317.774414062 372.760742188 376.5625 528 379 c 0
 628.391601562 380.576171875 686.189453125 371.364257812 733 365 c 1
 733 370 708.833007812 346 708 351 c 1
 750 423 l 0
 759.095703125 368.426757812 747 318 747 318 c 1
 747 316 l 1
 403.766601562 346.892578125 253.637695312 290.458007812 212 82 c 0
EndSplineSet
Fore
SplineSet
46 55 m 0
 31 282 181 376 299 404 c 0
 343 413 384 416 424 416 c 0
 546 416 670 412 731 409 c 1
 714 402 l 1
 714 406 714 410 714 414 c 0
 714 473 681 527 618 527 c 0
 576 527 517 489 518 388 c 1
 472 386 l 1
 473 481 431 530 368 530 c 0
 300 530 264 466 264 399 c 0
 264 226 384 185 493 179 c 0
 562 175 624 189 672 211 c 1
 682 211 687 191 686 180 c 1
 631 127 560 104 481 106 c 0
 341 109 215 197 215 382 c 0
 215 492 274 590 375 590 c 0
 469 590 502 508 502 457 c 0
 502 443 500 432 496 425 c 1
 487 432 l 1
 489 487 532 588 627 588 c 0
 702 588 758 532 758 431 c 0
 758 401 755 380 753 357 c 1
 706 359 561 368 431 368 c 0
 385 368 339 364 300 352 c 0
 208 320 143 247 148 97 c 0
 153 -56 257 -211 480 -211 c 0
 621 -211 714 -133 755 -77 c 1
 765 -79 794 -99 797 -116 c 1
 755 -178 635 -264 463 -264 c 0
 212 -264 58 -134 46 55 c 0
EndSplineSet
EndChar

StartChar: si_Fa
Encoding: 61 3526 59
GlifName: si_F_a
Width: 873
VWidth: 6
Flags: HMW
LayerCount: 4
Back
SplineSet
384 -13 m 1
 354.881835938 -25.3193359375 319.634765625 -34.6181640625 269 -33.93359375 c 0
 128.943359375 -32.0400390625 55 85.7529296875 55 228 c 0
 55 384 143 520 279 522 c 0
 403.986328125 523.837890625 452 437 454 362 c 1
 456 365 421 359 423 362 c 1
 430 443 503.002929688 521.33203125 604 522 c 0
 755.000976562 522.999023438 817.434570312 373.00390625 818 254 c 0
 818.831054688 78.9990234375 729.955078125 -30.02734375 613 -33 c 0
 576.997070312 -33.9150390625 531 -27 507 -17 c 1
 526 45 l 1
 552 23 591 17 625 20 c 0
 685.065429688 25.2998046875 748.599609375 89.994140625 747 224 c 0
 745.805664062 323.990234375 699.046875 407.399414062 601 409 c 0
 531.0390625 410.141601562 471 357 469 273 c 1
 413 273 l 1
 413 370 342.948242188 416.880859375 273 414 c 0
 162.022460938 409.428710938 127.696289062 303.002929688 125 219 c 0
 121.829101562 120.224609375 163.603515625 20.6630859375 280 20 c 0
 306.412109375 19.849609375 332.651367188 22.8125 365 45 c 1
 384 -13 l 1
EndSplineSet
Fore
SplineSet
55 258 m 0
 55 415 144 552 283 552 c 0
 405 552 452 466 454 392 c 1
 454 393 453 393 451 393 c 0
 445 393 432 391 426 391 c 0
 424 391 423 391 423 392 c 0
 430 473 503 552 605 552 c 0
 756 552 818 402 818 282 c 0
 818 106 728 -3 606 -3 c 0
 571 -3 530 4 507 13 c 1
 526 75 l 1
 548 56 579 49 609 49 c 0
 615 49 620 50 625 50 c 0
 684 55 747 118 747 249 c 0
 747 352 700 439 599 439 c 0
 530 439 471 386 469 303 c 1
 413 303 l 1
 413 397 347 444 279 444 c 0
 160 444 125 330 125 239 c 0
 125 143 168 50 282 50 c 0
 308 50 333 53 365 75 c 1
 384 17 l 1
 356 5 322 -4 274 -4 c 0
 130 -4 55 114 55 258 c 0
EndSplineSet
EndChar

StartChar: si_Halant
Encoding: 62 3530 60
GlifName: si_H_alant
Width: 1
VWidth: -6
Flags: HMW
LayerCount: 4
Back
SplineSet
28 866 m 1
 28 820.333007812 28 774.666992188 28 729 c 1
 44 708 62.9814453125 706.276367188 76 707 c 0
 94 708 109 727 106 767 c 0
 103 806 75 850 28 866 c 1
6 685 m 1
 5.828125 683.069335938 25.6865234375 688.06640625 25.572265625 686 c 1
 23.0244140625 639.911132812 34.3857421875 532.184570312 43 514 c 1
 -16 514 l 1
 -23 565 -21 670 -21 737 c 1
 -22 920 l 1
 54 911 169 868 165 743 c 0
 163 689 125.046875 657 82 657 c 0
 41 657 15 679 6 685 c 1
EndSplineSet
Fore
SplineSet
-21 484 m 1
 -21 894 l 1
 -9 901 4 896 13 894 c 1
 41 875 65 865 93 851 c 0
 118 838 185 810 185 733 c 0
 185 674 142 647 87 647 c 0
 47 647 19 663 10 675 c 1
 26 676 l 1
 26 671 23 665 23 659 c 2
 23 484 l 1
 8 484 12 480 -21 484 c 1
28 707 m 1
 42 688 66 686 79 686 c 0
 105 686 126 701 126 735 c 0
 126 801 43 823 28 840 c 1
 28 707 l 1
EndSplineSet
EndChar

StartChar: si_MatraAa
Encoding: 63 3535 61
GlifName: si_M_atraA_a
Width: 398
VWidth: 19
Flags: HMW
LayerCount: 4
Back
SplineSet
11 440 m 1
 37 419 l 1
 54.2334365325 430.538461539 88.4733541392 450.502923457 135 444 c 0
 213.00859375 431.585557969 248.154606463 350.39868523 245 231 c 0
 241.972988697 124.423500756 200.964795067 26.691021564 124 17 c 0
 84.2011769494 12.6207021954 42.9523809524 26.9599723948 32 33 c 1
 10 7 l 1
 22.796875 -10.5 68.8708171443 -35.9261539118 127 -33 c 0
 264.933880797 -26.0565725332 331.788192012 122.321918812 335 234 c 0
 339.06942699 378.272912215 271.327595942 493.894728402 145 499 c 0
 94.0841540466 501.080954113 39.7236584411 474.416666667 11 440 c 1
EndSplineSet
Fore
SplineSet
11 43 m 1
 12 55 21 68 34 73 c 1
 55 60 89 45 123 45 c 0
 215 45 254 146 254 265 c 0
 254 383 202 488 117 488 c 0
 79 488 52 464 37 454 c 1
 27 459 15 468 17 489 c 1
 44 513 96 539 145 539 c 0
 289 539 347 417 347 279 c 0
 347 156 290 -3 135 -3 c 0
 68 -3 26 25 11 43 c 1
EndSplineSet
EndChar

StartChar: si_MatraAe
Encoding: 64 3536 62
GlifName: si_M_atraA_e
Width: 355
VWidth: 19
Flags: HMW
LayerCount: 4
Back
SplineSet
150 96 m 0x40
 134.754354647 7.52286056713 143.063476562 -89.5732421875 245 -97 c 0
 308.692382812 -101.640625 340 -71.2119140625 363 -51 c 1
 384 -73 l 1
 369.114257812 -116.75 296.828125 -174.841796875 216 -173 c 0
 79.068359375 -169.87890625 50.5498046875 -73.234375 65 40 c 0
 80.9677734375 174.33060949 177.349609375 293.039478975 215.163085938 332 c 1x40
 168.428486668 329.587890625 78.0733322503 326.22265625 20 323.856445312 c 1
 21 388.116210938 l 5x80
 43.9092013889 388.107421875 232.430533854 387.998046875 266 388 c 5
 266 323 l 1
 216.875976562 285.021022041 164.067382812 177.639167233 150 96 c 0x40
EndSplineSet
Fore
SplineSet
26 387 m 5
 25 404 24 420 26 442 c 5
 49 442 236 442 272 442 c 6
 273 442 l 5
 276 419 273 394 266 377 c 5
 205 330 144 182 144 70 c 0
 144 -3 173 -60 263 -60 c 0
 315 -60 352 -35 373 -15 c 1
 385 -19 393 -34 394 -43 c 1
 376 -76 319 -133 230 -133 c 0
 108 -133 62 -58 62 37 c 0
 62 190 175 343 228 387 c 5
 26 387 l 5
EndSplineSet
EndChar

StartChar: si_MatraAae
Encoding: 65 3537 63
GlifName: si_M_atraA_ae
Width: 417
VWidth: 19
Flags: HMW
LayerCount: 4
Back
SplineSet
75 412 m 1xc0
 309 412 l 1xc0
 309 358 l 1
 216 324.43359375 l 5
 127 303 l 1
 65 309 l 1
 189 355.081054688 l 1
 273 372 l 1xa0
 243 364 l 1
 75 364 l 1
 75 412 l 1xc0
206 88 m 0
 187.103515625 4.6083984375 191.1640625 -90.5087890625 289 -97 c 0
 352.720703125 -101.227539062 384 -71.2119140625 407 -51 c 1
 428 -73 l 1
 413.114257812 -116.75 340.828125 -174.842773438 260 -173 c 0
 123.068359375 -169.87890625 89.22265625 -72.42578125 109 40 c 0
 128.04296875 148.252929688 227.811523438 232.37890625 279.163085938 262 c 1
 227.614257812 261.661132812 129.0546875 261.188476562 65 260.856445312 c 1
 65 309.116210938 l 1
 87.9091796875 309.107421875 285.431640625 308.998046875 319 309 c 1
 319 253 l 1
 273.961914062 225.39453125 221.813476562 157.787109375 206 88 c 0
EndSplineSet
Fore
SplineSet
35 390 m 1
 35 441 l 1
 264 441 l 1
 265 423 263 406 259 388 c 1
 137 323 l 1
 75 329 l 1
 194 390 l 1
 35 390 l 1
75 283 m 1
 75 329 l 1
 98 329 265 312 302 309 c 1
 302 286 303 271 298 253 c 1
 236 215 195 150 195 62 c 4
 195 -1 223 -57 301 -57 c 0
 357 -57 385 -30 407 -11 c 1
 420 -13 427 -28 428 -36 c 1
 413 -79 343 -133 264 -133 c 0
 178 -133 120 -73 120 14 c 4
 120 125 185 210 259 266 c 1
 207 270 139 278 75 283 c 1
EndSplineSet
EndChar

StartChar: si_MatraIi
Encoding: 67 3539 65
GlifName: si_M_atraI_i
Width: 0
VWidth: 2
Flags: HMW
LayerCount: 4
Back
SplineSet
-185 531 m 21
 -248 551 -291.833007812 588.24609375 -286 655 c 4
 -277 758 -139 802 2 800 c 4
 106 799 249.903320312 764.702148438 266 659 c 4
 275.955078125 593.627929688 231 543 196 529 c 13
 177 554 l 21
 200 574 214.749023438 594.73046875 205 635 c 4
 190.84375 693.477539062 68 701.96875 0 703 c 4
 -94.994140625 704.44140625 -214 706 -223 641 c 4
 -230.40625 587.510742188 -191 576 -168 566 c 13
 -185 531 l 21
EndSplineSet
Fore
SplineSet
-287 673 m 0
 -287 785 -147 830 -7 830 c 0
 101 830 249 798 266 689 c 0
 267 683 267 677 267 671 c 0
 267 615 228 572 196 559 c 9
 177 584 l 17
 195 600 208 616 208 642 c 0
 208 725.262343804 79.0374354828 731.837684772 0 733 c 4
 -14 733 -29 733 -44 733 c 0
 -134 733 -224 727 -224 658 c 0
 -224 615 -189 605 -168 596 c 9
 -185 561 l 17
 -244 580 -287 614 -287 673 c 0
EndSplineSet
EndChar

StartChar: si_MatraU
Encoding: 68 3540 66
GlifName: si_M_atraU_
Width: 0
VWidth: 30
Flags: HMW
AnchorPoint: "si_MaU" 32 199 mark 0
LayerCount: 4
Back
SplineSet
-388 -115 m 17
 -361.227539062 -160 l 1
 -361.23046875 -152.99609375 -427.812711241 -191.887525396 -427.809570312 -226 c 0
 -427.80528394 -272.552734178 -403.698875123 -285.247071992 -352 -285.247070312 c 1
 -35 -287 l 9
 -35 169 l 25
 22 169 l 25
 28 -367 l 17
 28 -367 -247.995117188 -369.6796875 -424 -370.586914062 c 0
 -504 -371 -545.244140625 -321.6015625 -546 -271 c 0
 -547.62890625 -161.938476562 -388 -115 -388 -115 c 17
EndSplineSet
Fore
SplineSet
-608 -239 m 0
 -608 -131 -450 -85 -450 -85 c 1
 -423 -130 l 2
 -423 -129 -423 -129 -424 -129 c 0
 -433 -129 -490 -165 -490 -196 c 0
 -490 -243 -466 -255 -414 -255 c 2
 -18 -257 l 9
 -18 199 l 25
 32 199 l 29
 38 -337 l 17
 38 -337 -311 -341 -487 -341 c 0
 -567 -341 -608 -291 -608 -239 c 0
EndSplineSet
EndChar

StartChar: si_MatraUu
Encoding: 69 3542 67
GlifName: si_M_atraU_u
Width: 0
VWidth: 30
Flags: HMW
AnchorPoint: "si_MaU" 22 199 mark 0
LayerCount: 4
Back
SplineSet
-448 -165 m 25
 -436 -251 l 25
 88 -247 l 25
 82 129 l 25
 -5 129 l 25
 -5 -167 l 25
 -448 -165 l 25
EndSplineSet
Fore
SplineSet
-546 -249 m 0
 -546 -157 -435 -95 -435 -95 c 1
 -402 -129 l 1
 -410 -129 -454 -171 -454 -210 c 0
 -454 -244 -431 -267 -396 -267 c 0
 -331 -267 -279 -206 -195 -206 c 0
 -118 -206 -65 -240 -25 -267 c 1
 -25 199 l 25
 22 199 l 25
 28 -347 l 1
 -34 -346 l 1
 -86 -311 -146 -280 -200 -280 c 0
 -294 -280 -347 -351 -441 -351 c 0
 -511 -351 -546 -301 -546 -249 c 0
EndSplineSet
EndChar

StartChar: si_MatraR
Encoding: 70 3544 68
GlifName: si_M_atraR_
Width: 397
VWidth: 19
Flags: HMW
LayerCount: 4
Back
SplineSet
17 449 m 1
 37 419 l 1
 54.2334365325 430.538461539 88.4282279166 450.171453115 135 444 c 0
 206.044410511 434.585557969 240.953858779 350.39868523 238 231 c 0
 235.673454122 126.415584854 209.685365321 33.540720618 145 21 c 0
 99.8863052159 13.532603167 60.0982142857 27.0795774275 34 43 c 1
 11 13 l 1
 26.5941190945 -5.285 71.3400420364 -35.6498516338 144 -33 c 0
 286.939560226 -27.7871064363 343.865398935 122.321918812 347 234 c 0
 351.326443431 378.272912215 294.556180949 498.894728402 145 499 c 0
 96.3287827409 499.034259345 44.4375244811 473.166666667 17 449 c 1
EndSplineSet
Fore
SplineSet
7 128 m 0
 7 37 86 10 156 10 c 0
 325 10 367 164 367 279 c 0
 367 417 289 539 145 539 c 0
 96 539 44 513 17 489 c 1
 37 459 l 1
 52 469 79 485 117 485 c 0
 215 485 278 389 278 265 c 0
 278 156 242 63 168 63 c 0
 127 63 81 84 81 141 c 0
 81 220 139 245 203 245 c 0
 241 245 277 233 308 210 c 1
 298 271 l 1
 275 281 239 286 206 286 c 0
 104 286 7 239 7 128 c 0
EndSplineSet
EndChar

StartChar: si_MatraE
Encoding: 71 3545 69
GlifName: si_M_atraE_
Width: 617
VWidth: 20
Flags: HMW
LayerCount: 4
Back
SplineSet
313 157 m 4
 255.081054688 160.048828125 225 204 225 247 c 4
 225 321 295.996232903 364.285672889 366 365 c 0
 457.000756775 365.928582995 551.537146707 304.978720126 546 172 c 0
 541.655737705 72 461.286885246 -44 281 -44 c 0
 106.011363636 -44 5.04488585503 78.4458592855 20 244 c 0
 36.1881188119 424.993150685 166.769115485 546 347 546 c 0
 469.480446927 546 536 489 536 489 c 0
 497 427 l 1
 495 427 444.751953125 479.645507812 338 487 c 0
 209.078125 495.052734375 87.5294756928 413.662785823 78 284 c 0
 66.9070806138 133.064221695 179.333007812 55.640625 275 48 c 0
 379.729492188 39.6357421875 470.897630752 65.0259085152 487 174 c 0
 499.953781854 266.2671434 431.995346331 330.335991006 363 329 c 0
 306.949367089 328 281 297 281 263 c 0
 281 239 302.145114339 216.832389055 335 216 c 0
 371.235294118 215.2 391 236 391 256 c 0
 391 323.307692308 343.52173913 331 335 331 c 1
 362 337 394.527617292 334.682723095 396 333 c 0
 405 322.714285714 429 306.714285714 429 253 c 0
 429 208 389 153 313 157 c 4
EndSplineSet
Fore
SplineSet
49 247 m 4
 49 459 205 578 374 578 c 4
 496 578 543 541 543 541 c 5
 550 522 530 494 513 487 c 5
 513 487 460 531 354 531 c 4
 225 531 116 433 116 290 c 4
 116 148 206 70 332 70 c 4
 435 70 518 116 519 226 c 4
 520 305 458 359 395 359 c 4
 338 359 311 327 311 293 c 4
 311 268 333 246 367 246 c 4
 402 246 421 276 421 296 c 4
 421 363 384 361 375 361 c 5
 388 364 392 365 404 365 c 4
 416 365 425 364 426 363 c 4
 435 353 459 337 459 283 c 4
 459 240 429 187 358 187 c 4
 295 187 261 232 261 277 c 4
 261 352 327 395 398 395 c 4
 486 395 576 337 576 213 c 4
 576 104 507 -14 323 -14 c 4
 169 -14 49 98 49 247 c 4
EndSplineSet
EndChar

StartChar: si_MatraLs
Encoding: 77 3551 75
GlifName: si_M_atraL_s
Width: 580
VWidth: 19
Flags: HMW
LayerCount: 4
Back
Refer: 61 3535 N 1 0 0 1 77 0 2
Fore
SplineSet
35 386 m 0
 35 269 92 193 217 193 c 0
 284 193 357 236 357 318 c 0
 357 368 318 410 251 410 c 0
 234 410 215 406 215 406 c 1
 215 380 l 1
 273 380 297 350 297 315 c 0
 297 284 280 239 216 239 c 4
 138 239 84 290 84 398 c 0
 84 450 102 509 132 560 c 1
 122 567 102 573 84 564 c 1
 57 522 35 451 35 386 c 0
132 81 m 1
 151 7 221 -33 313 -33 c 0
 498 -33 565 112 565 287 c 0
 565 535 438 573 364 573 c 0
 256 573 190 494 190 402 c 0
 190 394 190 387 191 379 c 1
 231 379 l 1
 229 387 229 396 229 404 c 0
 229 456 278 516 338 516 c 0
 446 516 473 396 473 298 c 0
 473 172 447 23 320 23 c 0
 257 23 196 37 175 90 c 1
 162 96 136 93 132 81 c 1
EndSplineSet
EndChar

StartChar: si_VI
Encoding: 365 -1 78
GlifName: si_V_I_
Width: 780
VWidth: 16
Flags: HMW
LayerCount: 4
Back
SplineSet
376 274 m 1
 230 290 125 245 129 158 c 0
 131.939453125 94.0595703125 204.999023438 55.1953125 345 56 c 0
 519 57 618 173 618 326 c 0
 680 321 l 0
 680 107 571.001953125 -56.423828125 335 -58 c 0
 179 -59.0419921875 49.349609375 8.0439453125 46 137 c 0
 42 291 219 325 341 318 c 1
 351 378 304 428 212 428 c 1
 186 347 l 1
 135 340 100 369 109 415 c 0
 119 471 177 490 224 490 c 0
 300 490 380 453 384 349 c 0
 385.383789062 313.026367188 376 274 376 274 c 1
EndSplineSet
Refer: 560 -1 S 1 0 0 1 0 0 2
Fore
SplineSet
733 354 m 0
 733 131.62962963 621.454293629 -41 362 -41 c 0
 186.621118012 -41 50 37.887254902 50 168 c 0
 50 311.397058824 202 367 317 367 c 0
 326 367 335 367 343 366 c 1
 343 436 283 472 211 472 c 1
 155 391 l 1
 130 391 98 409 97 448 c 0
 96 504 153 537 212 537 c 0
 290 537 383 488 383 379 c 0
 383 345 375 319 375 319 c 1
 357 321 339 322 321 322 c 0
 210 322 117 273.937984496 117 198 c 0
 117 118.061068702 200.614785992 60.9618320611 364 62 c 0
 561.503333333 62.9675324675 671 168.428571429 671 360 c 1024
EndSplineSet
Refer: 560 -1 N 1 0 0 1 53 0 2
Ligature2: "si_abvs_1 subtable" si_Va si_MatraI
LCarets2: 1 0
Ligature2: "'abvs' Above Base Substitutions in Sinhala lookup 0-1" si_Va si_MatraI
EndChar

StartChar: si_MatraU.alt
Encoding: 85 -1 81
GlifName: si_M_atraU_.alt
Width: 0
VWidth: 30
Flags: HMW
AnchorPoint: "si_MaU" 24 239 mark 0
LayerCount: 4
Back
SplineSet
-480.240234375 -218.512695312 m 4
 -480.240234375 -266.21875 -448.51953125 -295 -376.483398438 -295 c 4
 -375.005859375 -295 -373.51171875 -295.02734375 -372 -295 c 6
 -35 -295 l 13
 -43 209 l 29
 24 209 l 29
 28 -375 l 21
 -436 -375 l 6
 -436.361328125 -375.001953125 -436.72265625 -375.001953125 -437.08203125 -375.001953125 c 4
 -537.298828125 -375.001953125 -568.020507812 -317.9296875 -568.020507812 -265.305664062 c 4
 -568.020507812 -158.131835938 -472 -110 -472 -110 c 5
 -435.227539062 -135 l 5
 -457.485351562 -147.05078125 -480.240234375 -178.7890625 -480.240234375 -218.512695312 c 4
EndSplineSet
Fore
SplineSet
-561 -207 m 4
 -561 -100 -446 -61 -446 -61 c 5
 -426 -89 l 5
 -444 -99 -478 -129 -478 -168 c 4
 -478 -209 -447 -225 -380 -225 c 6
 -28 -225 l 1
 -28 190 l 1
 20 190 l 1
 26 -296 l 1
 -412 -300 l 6
 -520 -300 -561 -258 -561 -207 c 4
EndSplineSet
EndChar

StartChar: si_MatraUu.alt
Encoding: 86 -1 82
GlifName: si_M_atraU_u.alt
Width: 0
VWidth: 30
Flags: HMW
AnchorPoint: "si_MaU" 24 239 mark 0
LayerCount: 4
Fore
SplineSet
-575 -221 m 0
 -575 -144 -509 -83 -451 -76 c 1
 -424 -121 l 1
 -470 -135 -490 -167 -490 -191 c 0
 -490 -231 -459 -249 -413 -249 c 0
 -329 -249 -265 -196 -181 -196 c 0
 -126 -196 -81 -212 -41 -238 c 9
 -43 239 l 25
 24 239 l 25
 22 -339 l 17
 -46 -308 -93 -269 -192 -269 c 0
 -196 -269 -199 -269 -203 -269 c 0
 -268 -271 -346 -334 -441 -334 c 0
 -543 -334 -575 -277 -575 -221 c 0
EndSplineSet
EndChar

StartChar: si_Rakar.alt
Encoding: 88 -1 84
GlifName: si_R_akar
Width: 776
VWidth: 6
Flags: HMW
LayerCount: 4
Back
SplineSet
710 217 m 13
 736 210 l 29
 736 210 737.791460669 163.739318268 733 103 c 4
 717.53805264 -88.9552825327 623.783678929 -308.121598998 361 -309 c 4
 140.07699775 -309.663443429 32.9088980374 -199.176818848 27 -179 c 13
 64 -158 l 29
 64 -158 152.41243175 -207.191959404 362 -203 c 4
 650.485866987 -194.912482782 700.90024363 43.6137537122 710 217 c 13
EndSplineSet
Fore
SplineSet
37 -119 m 1
 44 -105 59 -101 74 -98 c 1
 116 -139 200 -206 342 -206 c 0
 635 -206 695 38 704 247 c 9
 736 240 l 17
 736 240 736 231 736 217 c 0
 736 198 736 168 733 133 c 0
 718 -72 661 -300 358 -300 c 0
 176 -300 62 -187 37 -119 c 1
EndSplineSet
EndChar

StartChar: si_KU
Encoding: 92 -1 88
GlifName: si_K_U_
Width: 1140
VWidth: 6
Flags: HMW
LayerCount: 4
Back
SplineSet
809.666015625 9 m 0xbe
 919.502929688 22.0703125 954.786132812 174.231445312 928.666015625 279 c 0
 898.840820312 398.631835938 773.89453125 466.868164062 638.666015625 462 c 0
 539.580078125 458.697265625 462.625976562 431.771484375 368.666015625 374 c 1
 351.666015625 362 362.666015625 367 348.666015625 355 c 1
 251.666015625 276 169.666015625 211 69.666015625 79 c 1
 69.666015625 79 34.79296875 98.5439453125 40.666015625 107 c 0
 140.666015625 251 230.666015625 322 328.666015625 413 c 1
 335.666015625 419 344.666015625 420 351.666015625 425 c 1
 449.526367188 505 569.838867188 555.573242188 685.666015625 561 c 0
 875.594726562 570.465820312 1014.66601562 450 1028.66601562 282 c 0
 1042.22167969 112.560546875 941.305664062 -33 788.666015625 -33 c 0
 809.666015625 9 l 0xbe
301.666015625 377 m 1
 313.666015625 400 317.666015625 421 316.666015625 439 c 0
 314.666015625 481 278.426757812 505.678710938 228.666015625 501 c 0
 194.600585938 497.796875 158.666015625 470 164.666015625 426 c 1
 204.666015625 371 l 1
 190.666015625 347 167.66796875 335.022460938 145.666015625 336 c 0
 100.666015625 338 80.666015625 369 80.666015625 415 c 0
 80.666015625 495 147.649414062 563.181640625 244.666015625 559 c 0
 327.592773438 555.42578125 376.666015625 480 349.666015625 416 c 0
 334.666015625 380 349.666015625 404 336.666015625 387 c 1
 301.666015625 377 l 1
120.666015625 165 m 1
 128.666015625 169 137.666015625 172 144.666015625 172 c 0
 192.666015625 173 201.666015625 72 284.666015625 72 c 0
 333.666015625 72 383.666015625 101 384.666015625 197 c 1
 419.666015625 197 l 0
 420.666015625 94 480.663085938 71.1669921875 540.666015625 72 c 0
 600.668945312 72.8330078125 651.666015625 118 651.666015625 194 c 0
 651.666015625 273 579.666015625 340 465.666015625 345 c 0
 403.725585938 347.716796875 327.666015625 329 294.666015625 311 c 1
 348.666015625 364 l 1
 361.666015625 368 395.662109375 390.330078125 472.666015625 391 c 0
 587.666015625 392 709.666015625 332 709.666015625 182 c 0
 709.666015625 48 634.661132812 -34.9423828125 529.666015625 -36 c 0
 444.359375 -36.859375 411.387695312 8.326171875 392.666015625 49 c 1
 410.666015625 49 l 1
 393.403320312 7.81640625 350.620117188 -36 285.666015625 -36 c 0xde
 127.663085938 -36 173.666015625 169 108.666015625 130 c 0
 120.666015625 165 l 1
EndSplineSet
Refer: 575 -1 S 1 0 0 1 808.666 1 2
Fore
SplineSet
92 472 m 0
 92 523 131 577 218 577 c 0
 291 577 352 528 352 460 c 0
 352 407 331 397 326 384 c 0
 301 388 l 1
 317 409 316 427 316 444 c 0
 316 499.49609375 249.733398438 527.6796875 201 501 c 1
 166 409 l 1
 128.375976562 407.819335938 92 430.032226562 92 472 c 0
71 136 m 1
 174 275 252 338 344 432 c 0
 351 438 360 439 367 444 c 0
 465 529 579 581 705 581 c 0
 896 581 1060 450 1060 263 c 0
 1060 108 976 -21 819 -23 c 0
 829 28 l 0
 929 28 989 138 989 238 c 0
 989 413 834 488 667 488 c 0
 558 488 481 454 384 393 c 0
 366 382 378 386 364 374 c 0
 274 292 199 245 106 108 c 1
 106 108 65 118 71 136 c 1
128 167 m 1
 140 190 l 1
 148 194 156 197 164 197 c 0
 214 197 228 87 308 87 c 0
 357 87 406 121 407 216 c 1
 418 220 433 220 442 217 c 1
 443 116 501 85 558 85 c 0
 616 85 660 123 660 201 c 0
 660 283 588 368 448 368 c 0
 389 368 331 345 300 328 c 1
 326 369 l 1
 338 373 414 410 491 410 c 0
 595 410 724 342 724 193 c 0
 724 58 649 -17 552 -17 c 0
 462 -17 434 38 415 78 c 1
 433 75 l 1
 416 34 372 -17 307 -17 c 0
 245 -17 205 20 192 74 c 0
 180 126 161 172 142 172 c 0
 138 172 134 170 128 167 c 1
EndSplineSet
Refer: 575 -1 S 1 0 0 1 829 -10 2
LCarets2: 1 0
Ligature2: "si_blws_1 subtable" si_Ka si_MatraU
EndChar

StartChar: si_KUu
Encoding: 93 -1 89
GlifName: si_K_U_u
Width: 1084
VWidth: 6
Flags: HMW
LayerCount: 4
Back
Refer: 7 3482 N 1 0 0 1 -14.9996 0 2
Fore
SplineSet
72 472 m 0
 72 523 111 577 198 577 c 0
 271 577 332 528 332 460 c 0
 332 407 311 397 306 384 c 0
 281 388 l 1
 297 409 296 427 296 444 c 0
 296 499.49609375 229.733398438 527.6796875 181 501 c 1
 146 409 l 1
 108.375976562 407.819335938 72 430.032226562 72 472 c 0
51 136 m 1
 154 275 232 338 324 432 c 0
 331 438 340 439 347 444 c 0
 445 529 559 581 685 581 c 0
 876 581 1040 450 1040 263 c 0
 1040 108 956 -21 799 -23 c 0
 809 28 l 0
 909 28 969 138 969 238 c 0
 969 413 814 488 647 488 c 0
 538 488 461 454 364 393 c 0
 346 382 358 386 344 374 c 0
 254 292 179 245 86 108 c 1
 86 108 45 118 51 136 c 1
108 167 m 1
 120 190 l 1
 128 194 136 197 144 197 c 0
 194 197 208 87 288 87 c 0
 337 87 386 121 387 216 c 1
 398 220 413 220 422 217 c 1
 423 116 481 85 538 85 c 0
 596 85 640 123 640 201 c 0
 640 283 568 368 428 368 c 0
 369 368 311 345 280 328 c 1
 306 369 l 1
 318 373 394 410 471 410 c 0
 575 410 704 342 704 193 c 0
 704 58 629 -17 532 -17 c 0
 442 -17 414 38 395 78 c 1
 413 75 l 1
 396 34 352 -17 287 -17 c 0
 225 -17 185 20 172 74 c 0
 160 126 141 172 122 172 c 0
 118 172 114 170 108 167 c 1
EndSplineSet
Refer: 645 -1 N 1 0 0 1 561 0 2
LCarets2: 1 0
Ligature2: "si_blws_3 subtable" si_Ka si_MatraUu
EndChar

StartChar: si_KhI
Encoding: 100 -1 96
GlifName: si_K_hI_
Width: 866
VWidth: 6
Flags: HMW
LayerCount: 4
Back
Refer: 28 3483 N 1 0 0 1 0 0 2
Fore
SplineSet
50 181 m 0
 50 356 167 453 309 455 c 0
 393 456 531 400 531 224 c 0
 531 144 502 98 481 60 c 1
 491 132 l 1
 504 99 514 80 574 80 c 0
 675 80 740 204 740 366 c 5
 802 362 l 1
 802 144 727 -25 561 -25 c 0
 491 -25 439 -3 435 58 c 1
 474 34 l 1
 462 12 452 -4 418 -62 c 1
 378 -41 l 1
 417 19 476 116 470 208 c 0
 464 306 371 360 296 360 c 0
 193 360 103 292 103 159 c 0
 103 76 140 22 212 22 c 0
 253 22 272 55 272 82 c 0
 272 115 252 141 220 141 c 0
 195 141 171 121 171 84 c 0
 171 57 187 23 230 18 c 1
 230 7 l 1
 161 9 129 46 129 87 c 0
 129 144 170 200 235 200 c 0
 291 200 334 157 334 91 c 0
 334 39 295 -29 214 -29 c 0
 94 -29 50 88 50 181 c 0
EndSplineSet
Refer: 560 -1 N 1 0 0 1 121 0 2
LCarets2: 1 0
Ligature2: "si_abvs_1 subtable" si_Kha si_MatraI
EndChar

StartChar: si_GU
Encoding: 111 -1 107
GlifName: si_G_U_
Width: 959
VWidth: 6
Flags: HMW
LayerCount: 4
Back
SplineSet
665.759765625 8.6123046875 m 0xee
 798.73046875 0.5859375 856.623046875 108.114257812 856.623046875 229.600585938 c 0
 856.623046875 353.83984375 776.359375 445.533203125 636.9375 445.533203125 c 0
 556.0703125 445.533203125 445.365234375 397.33203125 438.877929688 254.823242188 c 1
 388.610351562 238.01171875 l 1
 384.657226562 437.1640625 515.451171875 542.603515625 655.6796875 542.603515625 c 0
 827.643554688 542.603515625 920.870117188 411.889648438 920.870117188 267.375 c 0
 920.870117188 101.1640625 847.109375 -54.5166015625 664.411132812 -45.814453125 c 4
 665.759765625 8.6123046875 l 0xee
111.974609375 245.841796875 m 0
 111.224609375 128.7109375 180.21484375 50.8837890625 308 47.5908203125 c 0
 414.426757812 44.8486328125 485.6328125 87.9111328125 488 160 c 0
 489.319335938 200.172851562 462.767578125 237 389 237 c 1
 440 291 l 1
 489 290 551.65234375 244.21484375 552 160 c 0
 552.451171875 47.953125 473.594726562 -55.0048828125 308.598632812 -55.0048828125 c 0
 140.69140625 -55.0048828125 53.9951171875 61.9140625 53.9951171875 221.564453125 c 0
 53.9951171875 428.865234375 210.2890625 536 337 538 c 0
 344.879882812 462.879882812 l 0xde
 249.916015625 462.879882812 113.059570312 415.424804688 111.974609375 245.841796875 c 0
EndSplineSet
Refer: 575 -1 N 1 0 0 1 665 1 2
Fore
SplineSet
54 252 m 0
 54 459 210 566 337 568 c 1
 337 493 l 1
 242 493 112 445 112 274 c 0
 112 155 185 77 318 77 c 0
 419 77 488 121 488 193 c 0
 488 232 461 267 389 267 c 1
 440 321 l 1
 489 320 552 274 552 189 c 0
 552 77 474 -25 309 -25 c 0
 141 -25 54 92 54 252 c 0
391 269 m 1
 391 462 518 573 656 573 c 0
 828 573 921 442 921 297 c 0
 921 135 851 -16 679 -16 c 0
 674 -16 669 -16 664 -16 c 5
 664 39 l 1
 669 39 675 38 680 38 c 0
 803 38 857 143 857 260 c 0
 857 384 776 476 637 476 c 0
 556 476 445 428 439 285 c 1
 391 269 l 1
EndSplineSet
Refer: 575 -1 N 1 0 0 1 665 1 2
LCarets2: 1 0
Ligature2: "si_blws_1 subtable" si_Ga si_MatraU
EndChar

StartChar: si_C.halant
Encoding: 135 -1 132
GlifName: si_C_.halant
Width: 862
VWidth: 16
Flags: HMW
LayerCount: 4
Back
Refer: 5 3488 N 1 0 0 1 0 0 2
Fore
SplineSet
-514 787 m 1048
EndSplineSet
Refer: 5 3488 N 1 0 0 1 0 0 2
Refer: 576 -1 N 1 0 0 1 77 0 2
Ligature2: "si_halant_1 subtable" si_Ca si_Halant
EndChar

StartChar: si_CI
Encoding: 136 -1 133
GlifName: si_C_I_
Width: 862
VWidth: 16
Flags: HMW
LayerCount: 4
Back
Refer: 5 3488 N 1 0 0 1 0 0 2
Fore
SplineSet
45 363 m 1
 471 363 l 1
 466 313 l 1
 149 313 l 1
 49 303 l 1
 44 314 35 339 45 363 c 1
-478 787 m 1048
131 180 m 0
 131 327 292 363 407 363 c 0
 416 363 426 363 434 362 c 1
 434 432 384 468 302 468 c 1
 256 387 l 1
 221 381 189 405 188 444 c 0
 187 500 244 533 303 533 c 0
 381 533 474 491 474 382 c 0
 474 348 466 315 466 315 c 1
 448 317 430 318 412 318 c 0
 301 318 208 282 208 203 c 0
 208 126 299 74 450 74 c 0
 643 74 755 202 755 370 c 1
 817 364 l 1
 817 136 681 -29 448 -29 c 0
 267 -29 131 53 131 180 c 0
EndSplineSet
Refer: 560 -1 S 1 0 0 1 136 0 2
Ligature2: "si_abvs_1 subtable" si_Ca si_MatraI
EndChar

StartChar: si_Tt.halant
Encoding: 197 -1 202
GlifName: si_T_t.halant
Width: 802
VWidth: 16
Flags: HMW
LayerCount: 4
Back
SplineSet
353.442382812 334 m 1xfa
 327.442382812 346 293.442382812 352 260.442382812 350 c 0
 190.369140625 345.8515625 117.5546875 302.787109375 116.442382812 218 c 0
 115.442382812 140.005859375 171.440018336 54.38494186 334.442382812 55 c 0
 547.44140625 55.8037109375 618.874023438 215.23046875 627.442382812 340 c 0
 690.442382812 332 l 0
 691.631835938 137.185546875 601.442382812 -57 341.442382812 -59 c 0
 148.44763624 -60.4845749736 38.5732421875 38.0029296875 35.4423828125 176 c 0
 32.1533203125 320.966796875 154.427734375 394.418945312 265.442382812 398 c 0
 327.442382812 400 367.442382812 379 367.442382812 379 c 1
 353.442382812 334 l 1xfa
EndSplineSet
Refer: 576 -1 N 1 0 0 1 -20 0 2
Fore
Refer: 0 3495 N 1 0 0 1 0 0 2
Refer: 576 -1 N 1 0 0 1 14 0 2
LCarets2: 1 0
Ligature2: "si_halant_1 subtable" si_Tta si_Halant
EndChar

StartChar: si_TtI
Encoding: 198 -1 203
GlifName: si_T_tI_
Width: 801
VWidth: 16
Flags: HMW
LayerCount: 4
Back
SplineSet
366 329 m 1xfc
 343 338 300 345 273 343 c 0
 202 338 115.5149564 300.478264259 117 198 c 0
 118.4140625 100.419921875 217 45 350 44 c 4
 544.997070312 42.5341796875 612.875976562 198.346679688 616 323 c 0
 682 322 l 0
 680.189453125 113.185546875 570 -59 330 -59 c 4
 147 -59 40.7906648242 50.1077332517 46 176 c 0
 52 321 165 394 276 398 c 0
 338 400 378 379 378 379 c 1
 366 329 l 1xfc
EndSplineSet
Refer: 560 -1 N 1 0 0 1 0 0 2
Fore
SplineSet
43 220 m 4
 43 370 163 447 278 447 c 4
 335 447 372 428 372 428 c 5
 374 412 363 389 358 383 c 5
 335 393 307 399 278 399 c 4
 194 399 114 340 114 244 c 4
 114 142 219 67 383 67 c 4
 592 67 674 215 680 372 c 4
 743 365 l 4
 737 129 605 -35 376 -35 c 4
 164 -35 43 74 43 220 c 4
EndSplineSet
Refer: 560 -1 N 1 0 0 1 62 0 2
LCarets2: 1 0
Ligature2: "si_abvs_1 subtable" si_Tta si_MatraI
Ligature2: "'abvs' Above Base Substitutions in Sinhala lookup 0-1" si_Tta si_MatraI
EndChar

StartChar: si_TtIi
Encoding: 199 -1 204
GlifName: si_T_tI_i
Width: 799
VWidth: 16
Flags: HMW
LayerCount: 4
Back
SplineSet
366 329 m 1xfd
 343 338 300 345 273 343 c 0
 202 338 115.5149564 300.478264259 117 198 c 0
 118.4140625 100.419921875 207 45 340 44 c 0
 534.997070312 42.5341796875 603.875976562 198.346679688 607 323 c 0
 682 322 l 0
 680.189453125 113.185546875 560 -59 320 -59 c 0
 137 -59 40.7906648242 50.1077332517 46 176 c 0
 52 321 165 394 276 398 c 0
 338 400 378 379 378 379 c 1
 366 329 l 1xfd
EndSplineSet
Refer: 561 -1 S 1 0 0 1 0 0 2
Fore
SplineSet
43 220 m 0
 43 370 163 447 278 447 c 0
 335 447 372 428 372 428 c 1
 374 412 363 389 358 383 c 1
 335 393 307 399 278 399 c 0
 194 399 114 340 114 244 c 0
 114 142 219 67 383 67 c 0
 592 67 674 215 680 372 c 0
 743 365 l 0
 737 129 605 -35 376 -35 c 0
 164 -35 43 74 43 220 c 0
EndSplineSet
Refer: 561 -1 N 1 0 0 1 61 0 2
LCarets2: 1 0
Ligature2: "si_abvs_2 subtable" si_Tta si_MatraIi
EndChar

StartChar: si_TtU
Encoding: 200 -1 205
GlifName: si_T_tU_
Width: 809
VWidth: 16
Flags: HMW
LayerCount: 4
Back
SplineSet
212 -117 m 1
 228.772460938 -152 l 1
 228.76953125 -143.934570312 162.1875 -188.71875 162.190429688 -228 c 0
 162.1953125 -274.552734375 189.481445312 -288 248 -288 c 1
 615 -288 l 1
 615 167 l 5
 662 167 l 5
 668 -369 l 1
 668 -369 387.048828125 -371.4765625 176 -372.586914062 c 0
 96 -373 54.755859375 -323.6015625 54 -273 c 0
 52.37109375 -163.938476562 212 -117 212 -117 c 1
EndSplineSet
Refer: 0 3495 N 1 0 0 1 0 0 2
Fore
Refer: 81 -1 S 1 0 0 1 685 0 2
Refer: 0 3495 N 1 0 0 1 0 0 2
LCarets2: 1 0
Ligature2: "si_blws_1 subtable" si_Tta si_MatraU
EndChar

StartChar: si_DdI
Encoding: 213 -1 218
GlifName: si_D_dI_
Width: 917
VWidth: 16
Flags: HMW
LayerCount: 4
Back
Refer: 40 3497 N 1 0 0 1 0 0 2
Fore
SplineSet
236 722 m 0
 236 834 364 895 517 895 c 0
 711 895 780 803 780 716 c 0
 780 635 700 591 619 598 c 1
 595 642 l 1
 645 630 698 644 698 700 c 0
 698 765 638 821 488 821 c 0
 387 821 308 793 308 730 c 0
 308 684 351 660 403 657 c 0
 487 653 479 655 574 645 c 0
 690 630 851 508 851 319 c 1
 783 319 l 1
 783 467 674 568 583 584 c 0
 508 595 474 593 392 600 c 0
 294 609 236 649 236 722 c 0
111 162 m 0
 113 301 244 363 355 364 c 1
 345 332 l 1
 254 332 181 267 181 190 c 0
 181 131 230 74 309 74 c 0
 389 74 434 131 434 218 c 1
 447 223 462 226 475 223 c 1
 475 124 527 70 608 70 c 0
 725 70 783 191 783 328 c 0
 851 328 l 0
 851 162 785 -30 604 -30 c 0
 503 -30 448 24 444 107 c 1
 462 107 l 1
 464 21 391 -29 305 -30 c 0
 193 -31 109 43 111 162 c 0
20 368 m 1
 434 365 l 1
 429 323 l 1
 126 323 l 1
 22 306 l 1
 11 320 4 349 20 368 c 1
159 451 m 0
 159 518 228 542 281 542 c 0
 371 542 442 492 442 392 c 0
 442 358 435 342 429 323 c 1
 396 345 l 1
 398 356 399 366 399 376 c 0
 399 440 353 476 279 476 c 0
 273 476 267 476 260 475 c 1
 213 397 l 1
 183 400 159 414 159 451 c 0
EndSplineSet
LCarets2: 1 0
Ligature2: "si_abvs_1 subtable" si_Dda si_MatraI
EndChar

StartChar: si_DdIi
Encoding: 214 -1 219
GlifName: si_D_dI_i
Width: 917
VWidth: 16
Flags: HMW
LayerCount: 4
Back
Refer: 40 3497 N 1 0 0 1 0 0 2
Fore
SplineSet
142 161 m 0
 142 295 266 371 372 372 c 1
 362 340 l 1
 276 340 213 272 213 196 c 0
 213 136 256 91 334 91 c 0
 405 91 467 131 467 225 c 1
 474 225 498 226 505 226 c 1
 505 131 567 91 641 91 c 0
 728 91 789 184 789 352 c 5
 853 352 l 5
 853 189 819 -12 631 -12 c 4
 562 -12 508 19 488 81 c 1
 464 13 392 -11 331 -11 c 0
 233 -11 142 40 142 161 c 0
61 315 m 1
 61 378 l 1
 473 375 l 1
 468 333 l 1
 165 333 l 1
 61 315 l 1
195 465 m 0
 195 532 267 557 320 557 c 0
 410 557 481 502 481 402 c 0
 481 368 474 352 468 333 c 1
 435 355 l 1
 437 366 438 376 438 386 c 0
 438 450 392 491 318 491 c 0
 312 491 306 491 299 490 c 1
 249 408 l 1
 219 411 195 428 195 465 c 0
EndSplineSet
Refer: 561 -1 N 1 0 0 1 171 0 2
LCarets2: 1 0
Ligature2: "si_abvs_2 subtable" si_Dda si_MatraIi
EndChar

StartChar: si_DdU
Encoding: 215 -1 220
GlifName: si_D_dU_
Width: 824
VWidth: 16
Flags: HMW
LayerCount: 4
Back
SplineSet
257 -115 m 17xf7
 283.772460938 -160 l 1
 283.76953125 -152.99609375 217.1875 -191.887695312 217.190429688 -226 c 0
 217.194335938 -272.552734375 241.30078125 -285.247070312 293 -285.247070312 c 1
 680 -287 l 9
 680 89 l 25
 737 149 l 25
 743 -367 l 17
 743 -367 397.004882812 -369.6796875 221 -370.586914062 c 0
 141 -371 99.755859375 -321.6015625 99 -271 c 0
 97.37109375 -161.938476562 257 -115 257 -115 c 17xf7
EndSplineSet
Refer: 40 3497 N 1 0 0 1 -40 0 2
Fore
SplineSet
99 -239 m 0
 99 -131 257 -85 257 -85 c 1
 283 -129 l 1
 274 -129 217 -165 217 -196 c 0
 217 -243 241 -255 293 -255 c 2
 680 -255 l 9
 680 119 l 25
 737 179 l 25
 737 -337 l 17
 737 -337 396 -341 220 -341 c 0
 140 -341 99 -291 99 -239 c 0
EndSplineSet
Refer: 40 3497 N 1 0 0 1 -40 0 2
LCarets2: 1 0
Ligature2: "si_blws_1 subtable" si_Dda si_MatraU
EndChar

StartChar: si_NnI
Encoding: 228 -1 233
GlifName: si_N_nI_
Width: 1384
VWidth: 30
Flags: HMW
LayerCount: 4
Back
Refer: 42 3499 N 1 0 0 1 0 0 2
Fore
SplineSet
375 697 m 4
 375 855 542 921 660 921 c 4
 750 921 842 885 842 808 c 4
 842 764 819 722 819 722 c 13
 785 722 l 21
 796 798 735 837 646 837 c 4
 559 837 424 808 424 689 c 4
 424 643 457 619 501 619 c 4
 503 619 506 620 508 620 c 13
 508 591 l 21
 495 586 486 583 474 583 c 4
 414 583 375 631 375 697 c 4
EndSplineSet
Refer: 42 3499 S 1 0 0 1 0 0 2
LCarets2: 1 0
Ligature2: "si_abvs_1 subtable" si_Nna si_MatraI
EndChar

StartChar: si_TIi
Encoding: 240 -1 245
GlifName: si_T_I_i
Width: 1105
VWidth: 6
Flags: HMW
LayerCount: 4
Back
SplineSet
317 427 m 1x2d80
 319.586914062 689.754882812 480.518547864 816.205147793 652 833 c 0
 786.000976562 846.124023438 920.791692129 777.673684576 916 642 c 0
 913.940185547 583.67767693 881.333333333 492 786 492 c 1
 676.076686501 492.000002228 633.558376437 552.792051998 636 619 c 0
 637.942019745 679.022037163 687.117908899 724.326048316 740 743 c 1
 760.968082501 734.068306627 781.218291421 724.317699544 800 714 c 1
 754 714 716.37918509 680.631318228 712 629 c 0
 710.627174559 594.718865376 732.490804277 555 775 555 c 0
 806.914762406 555 825.445623509 579.684590917 825 608 c 0
 823.291521193 716.558627094 717.885723905 746.201365225 610 736 c 0
 485.984375 724.2734375 365.77734375 641.188476562 364 427 c 1
 317 427 l 1x2d80
EndSplineSet
Refer: 8 3501 N 1 0 0 1 0 0 2
Fore
SplineSet
363 441 m 5
 366.259931407 652.387193152 551.767510776 845 760 845 c 0
 886.082789312 845 989 775.151351351 989 663 c 0
 989 573 926 515 856 515 c 0
 802.084960938 515 755 547.208007812 755 606 c 0
 755 688.738706683 834.59765625 732.784092667 917 712 c 1
 920 677 l 1
 873.748046875 681.944750642 805.855843993 670.864989788 805 603 c 0
 804.727539062 581.394942434 825.90625 557 861 557 c 0
 898.215820312 557 920 591.729696584 920 639 c 0
 920 715 871.229492188 764 745 764 c 0
 595.382319416 764 417.907716445 638.786906327 404 441 c 5
 363 441 l 5
EndSplineSet
Refer: 8 3501 N 1 0 0 1 0 0 2
LCarets2: 1 0
Ligature2: "si_abvs_2 subtable" si_Ta si_MatraIi
EndChar

StartChar: si_TU
Encoding: 241 -1 246
GlifName: si_T_U_
Width: 1085
VWidth: 6
Flags: HMW
LayerCount: 4
Back
SplineSet
758 8 m 13
 788 -22 l 21
 775 -40 735.653320312 -70.2509765625 742 -124 c 4
 747.765148819 -172.824130769 798 -203 867 -202 c 4
 929.642578125 -201.091796875 975 -174 1010 -139 c 13
 1054 -228 l 4
 1001 -278 921.443359375 -295.733398438 857 -294 c 4
 765.02734375 -291.526367188 683.208984375 -256.041015625 683 -140 c 4
 682.877929688 -71.982421875 733.476258379 -13.4625335028 758 8 c 13
278 378 m 1
 290 401 293.788085938 421.989257812 293 440 c 0
 290.88671875 488.322265625 241.939453125 510.5859375 200 501 c 0
 168.6171875 493.826171875 143.75 469.586914062 140 425 c 1
 180 370 l 1
 166 346 142.997070312 333.926757812 121 335 c 0
 80 337 56 368 56 414 c 0
 56 494 122.979492188 562.083984375 220 558 c 0
 303.716796875 554.475585938 353.256835938 480.104492188 326 417 c 0
 310.53515625 381.197265625 326 405 313 388 c 1
 278 378 l 1
758 8 m 0
 781.990234375 8.53125 802.926757812 13.7314453125 821 22.541015625 c 1
 906.891601562 64.4072265625 928.108269354 187.794867069 905 279 c 0
 872.266601562 408.19140625 734.73046875 467.030273438 595 462 c 0
 503.25390625 458.697265625 432 431.771484375 345 374 c 1
 328 362 339 367 325 355 c 1
 228 276 176 211 76 79 c 1
 76 79 41.1279296875 98.5439453125 47 107 c 0
 147 251 207 322 305 413 c 1
 312 419 321 420 328 425 c 1
 420 505 533.100585938 555.721679688 642 561 c 0
 837.309570312 570.465820312 990.44140625 449.986328125 1005 282 c 0
 1016.22873366 152.436080151 954.948242188 30.9873046875 851.549804688 -19 c 1
 819.727539062 -34.384765625 783.916015625 -43 745 -43 c 0
 758 8 l 0
106 142 m 1
 121.827148438 148.801757812 135.977539062 157.05859375 149 157.575195312 c 0
 235.53125 161.009765625 244.237304688 64.6337890625 412 62 c 0
 543.998046875 59.927734375 621.387695312 124.006835938 620 205 c 0
 617.891601562 328.076171875 483.087890625 345.88671875 432 346 c 0
 350.086914062 346.181640625 292 328 259 310 c 1
 296 362 l 1
 309 366 372.00390625 395.240234375 444 394 c 0
 544.004882812 392.27734375 679 345 679 195 c 0
 679 89.8291015625 610 -44 412 -44 c 0
 282.072265625 -44 203.453125 7.7138671875 187 67.9970703125 c 0
 171.305664062 125.500976562 129.395507812 127.443359375 84 104 c 1
 106 142 l 1
EndSplineSet
Fore
SplineSet
56 444 m 0
 56 522 119 588 212 588 c 0
 285 588 334 538 334 483 c 0
 334 471 331 459 326 447 c 0
 320 432 318 427 318 426 c 0
 318 424 321 428 313 418 c 1
 278 408 l 1
 289 429 293 448 293 465 c 0
 293 509 257 533 219 533 c 0
 174 533 144 505 140 455 c 1
 180 400 l 1
 167 377 145 365 124 365 c 0
 81 365 56 398 56 444 c 0
46 135 m 0
 46 136 47 136 47 137 c 0
 147 281 207 352 305 443 c 0
 312 449 321 449 328 455 c 0
 420 534 533 586 642 591 c 0
 649 591 656 592 663 592 c 0
 848 592 991 474 1005 312 c 0
 1006 302 1006 292 1006 282 c 0
 1006 164 947 57 852 11 c 0
 820 -4 784 -13 745 -13 c 1
 758 38 l 1
 868 40 914 140 914 237 c 0
 914 414 769 492 611 492 c 0
 507 492 437 465 345 404 c 0
 328 392 339 397 325 385 c 0
 228 306 176 241 76 109 c 1
 76 109 46 126 46 135 c 0
84 134 m 1
 106 172 l 1
 124 180 136 188 153 188 c 0
 235 188 251 92 418 92 c 0
 545 92 620 154 620 233 c 0
 620 358 483 376 431 376 c 0
 350 376 292 358 259 340 c 1
 296 392 l 1
 309 396 370 424 440 424 c 0
 543 424 679 376 679 225 c 0
 679 120 610 -14 412 -14 c 0
 282 -14 203 38 187 98 c 0
 177 134 158 148 133 148 c 0
 118 148 101 143 84 134 c 1
EndSplineSet
Refer: 575 -1 N 1 0 0 1 757 0 2
LCarets2: 1 0
Ligature2: "si_blws_1 subtable" si_Ta si_MatraU
EndChar

StartChar: si_DI
Encoding: 255 -1 263
GlifName: si_D_I_
Width: 639
VWidth: 13
Flags: HMW
LayerCount: 4
Back
SplineSet
207 451 m 17
 144 471 106.650390625 537.995117188 106 605 c 0
 105 708 213 812 354 810 c 0
 458 809 555.903320312 734.702148438 558 629 c 0
 559.311523438 562.887695312 513 513 478 499 c 9
 459 524 l 17
 482 544 498.944335938 563.61328125 497 605 c 4
 492.84375 693.477539062 390 711.96875 322 713 c 4
 227.005859375 714.44140625 168 656 169 591 c 0
 169.831054688 537.006835938 201 496 224 486 c 9
 207 451 l 17
EndSplineSet
Refer: 45 3503 N 1 0 0 1 0 0 2
Fore
SplineSet
77 652 m 0
 70 756 154 901 364 901 c 0
 525 901 615 809 615 688 c 0
 615 601 547 519 456 519 c 9
 441 540 l 26
 441 540 532 578 532 666 c 0
 532 743 475 822 323 819 c 0
 199.666666667 816.933333333 138 741.5 138 664 c 0
 138 593 182 549 258 539 c 9
 259 498 l 17
 175 499 85 540 77 652 c 0
EndSplineSet
Refer: 45 3503 N 1 0 0 1 0 0 2
LCarets2: 1 0
Ligature2: "si_abvs_1 subtable" si_Da si_MatraI
Ligature2: "'abvs' Above Base Substitutions in Sinhala lookup 0-1" si_Da si_MatraI
EndChar

StartChar: si_DIi
Encoding: 256 -1 264
GlifName: si_D_I_i
Width: 619
VWidth: 13
Flags: HMW
LayerCount: 4
Back
Refer: 45 3503 N 1 0 0 1 0 0 2
Fore
SplineSet
60 680 m 0
 60 780 155.990083026 903.500183648 345 900 c 0
 507 897 588 802 588 697 c 0
 588 603.172839506 513 545 438 545 c 0
 373.396396396 545 337 596.107142857 337 651 c 0
 337 708.845454545 385.391304348 752 442 752 c 0
 499 752 538 699 538 699 c 1
 528 666 l 1
 528 666 509.569620253 704 459 704 c 0
 416.416666667 704 386 681.074626866 386 640 c 0
 386 602 413.692307692 584 446 584 c 4
 486.051282051 584 517 616 517 674 c 0
 517 762.599586624 458.665723081 824.400626181 331 830 c 0
 217 835 126 776 126 671 c 0
 126 610 185 557 236 557 c 1
 236 508 l 1
 159 518 60 568 60 680 c 0
EndSplineSet
Refer: 45 3503 N 1 0 0 1 0 0 2
LCarets2: 1 0
Ligature2: "si_abvs_2 subtable" si_Da si_MatraIi
EndChar

StartChar: si_DU
Encoding: 257 -1 265
GlifName: si_D_U_
Width: 595
VWidth: 13
Flags: HMW
LayerCount: 4
Back
SplineSet
233 -117 m 1
 249.772460938 -152 l 1
 249.76953125 -143.934570312 183.1875 -188.71875 183.190429688 -228 c 0
 183.1953125 -274.552734375 210.481445312 -288 269 -288 c 1
 516 -288 l 1
 516 40 l 5
 563 40 l 5
 569 -369 l 1
 569 -369 408.048828125 -371.4765625 197 -372.586914062 c 0
 117 -373 75.755859375 -323.6015625 75 -273 c 0
 73.37109375 -163.938476562 233 -117 233 -117 c 1
152 199 m 0
 139.301757812 59.7265625 303.229492188 -21.3037109375 549 67 c 5
 563 40 l 5
 539 36 l 5
 551 38.3330078125 529 25.6669921875 493 12 c 5
 273.506835938 -100.266601562 38.8994140625 -4.337890625 41 165 c 0
 42.919921875 319.76171875 205.887695312 393.12109375 397 394 c 0
 456.002929688 394.271484375 499 385 499 385 c 1
 499 387.5 488.354492188 375.5 488 378 c 1
 491.599609375 475 373 506 318 498 c 1
 262 409 l 1
 216 412 195.556640625 452.114257812 205 488 c 0
 220 545 273 571 336 571 c 0
 408 571 506 528 520 444 c 0
 529.095703125 389.426757812 513 345 513 345 c 1
 513 343 l 1
 273.458007812 364.4921875 162.536132812 306.422851562 152 199 c 0
EndSplineSet
Fore
SplineSet
75 -241 m 0
 75 -133 233 -87 233 -87 c 1
 250 -122 l 2
 250 -121 250 -121 249 -121 c 0
 240 -121 183 -162 183 -198 c 0
 183 -245 210 -258 269 -258 c 2
 516 -258 l 1
 516 70 l 5
 563 70 l 5
 563 -339 l 1
 563 -339 407 -343 196 -343 c 0
 116 -343 75 -293 75 -241 c 0
41 193 m 0
 41 350 208 424 400 424 c 0
 458 424 499 415 499 415 c 1
 499 417 488 405 488 408 c 0
 488 495 395 529 336 529 c 0
 329 529 323 529 318 528 c 1
 262 439 l 1
 223 442 203 471 203 501 c 0
 203 507 203 512 205 518 c 0
 220 575 273 601 336 601 c 0
 408 601 506 558 520 474 c 0
 522 462 523 451 523 440 c 0
 523 402 513 375 513 375 c 1
 513 373 l 1
 480 376 449 377 421 377 c 0
 245 377 161 322 152 229 c 0
 152 224 151 219 151 214 c 0
 151 123 230 60 359 60 c 0
 414 60 478 72 549 97 c 5
 563 70 l 5
 541 70 l 2
 542 70 542 66 542 66 c 0
 542 64 521 55 493 42 c 4
 427 11 361 -6 299 -6 c 0
 155 -6 41 75 41 193 c 0
EndSplineSet
LCarets2: 1 0
Ligature2: "si_blws_1 subtable" si_Da si_MatraU
EndChar

StartChar: si_DhI
Encoding: 267 -1 281
GlifName: si_D_hI_
Width: 848
VWidth: 16
Flags: HMW
LayerCount: 4
Fore
SplineSet
48 222 m 0
 48 394 178 481 302 481 c 0
 362 481 393 462 393 462 c 1
 394 442 390 426 380 417 c 1
 357 428 328 433 298 433 c 0
 205 433 118 365 118 250 c 0
 118 160 168 94 259 94 c 0
 339 94 383 151 383 238 c 1
 396 243 411 246 424 243 c 1
 424 144 477 90 558 90 c 0
 675 90 722 221 722 358 c 1
 785 358 l 5
 785 192 733 -10 552 -10 c 0
 451 -10 397 44 393 127 c 1
 411 127 l 1
 404 41 349 -9 255 -10 c 0
 151 -11 48 66 48 222 c 0
EndSplineSet
Refer: 560 -1 N 1 0 0 1 104 0 2
LCarets2: 1 0
Ligature2: "si_abvs_1 subtable" si_Dha si_MatraI
EndChar

StartChar: si_NU
Encoding: 279 -1 293
GlifName: si_N_U_
Width: 1064
VWidth: 6
Flags: HMW
LayerCount: 4
Back
SplineSet
302 -117 m 5
 318.772460938 -152 l 5
 318.76953125 -143.934570312 252.1875 -188.71875 252.190429688 -228 c 4
 252.1953125 -274.552734375 279.481445312 -288 338 -288 c 5
 915 -288 l 5
 915 127 l 5
 962 127 l 5
 968 -369 l 5
 968 -369 477.048828125 -371.4765625 266 -372.586914062 c 4
 186 -373 144.755859375 -323.6015625 144 -273 c 4
 142.37109375 -163.938476562 302 -117 302 -117 c 5
EndSplineSet
Refer: 9 3505 N 1 0 0 1 0 0 2
Fore
Refer: 648 -1 S 1 0 0 1 5 0 2
Refer: 9 3505 N 1 0 0 1 0 0 2
LCarets2: 1 0
Ligature2: "si_blws_1 subtable" si_Na si_MatraU
EndChar

StartChar: si_PhI
Encoding: 299 -1 317
GlifName: si_P_hI_
Width: 802
VWidth: 16
Flags: HMW
LayerCount: 4
Back
Refer: 48 3509 N 1 0 0 1 0 0 2
Fore
SplineSet
302 757 m 1
 341 778 l 1
 429 746 411 646 443 586 c 0
 473 531 556 522 649 563 c 1
 672 526 l 1
 599 479 441 451 389 556 c 0
 356 621 364 721 302 757 c 1
50 183 m 0
 50 339 188 384 325 384 c 1
 330 334 l 1
 199 334 120 296 120 204 c 0
 120 116 218 64 390 64 c 0
 602 64 673 222 675 376 c 0
 677 622 482 728 302 756 c 1
 296 770 294 804 307 814 c 1
 568 774 747 591 747 361 c 0
 747 131 611 -29 388 -29 c 0
 151 -29 50 74 50 183 c 0
102 462 m 0
 102 528 165 550 211 550 c 0
 286 550 364 502 368 412 c 0
 369 378 357 328 357 328 c 1
 334 331 314 332 293 332 c 0
 304 384 l 0
 312 384 320 383 328 383 c 1
 331 448 287 490 222 490 c 0
 215 490 207 489 199 488 c 1
 173 407 l 1
 168 406 164 406 160 406 c 0
 126 406 102 428 102 462 c 0
214 742 m 0
 207 846 261 961 471 961 c 0
 603 961 712 899 712 778 c 0
 712 731 664 639 573 639 c 9
 558 660 l 26
 558 660 629 678 629 766 c 0
 629 843 592 876 440 889 c 0
 350 897 260 834 260 759 c 0
 260 688 324 614 400 604 c 9
 396 558 l 17
 312 559 222 630 214 742 c 0
EndSplineSet
Ligature2: "si_abvs_1 subtable" si_Pha si_MatraI
EndChar

StartChar: si_BI
Encoding: 305 -1 323
GlifName: si_B_I_
Width: 871
VWidth: 6
Flags: HMW
LayerCount: 4
Back
Refer: 49 3510 N 1 0 0 1 0 0 2
Fore
SplineSet
50 181 m 0
 50 355 172 465 310 465 c 0
 409 465 516 404 516 276 c 0
 516 272 515 268 515 264 c 1
 503 250 l 1
 476 243 437 213 437 161 c 0
 437 109 488 81 556 81 c 0
 667 81 722 204 728 348 c 1
 791 350 l 1
 791 139 713 -27 556 -27 c 0
 428 -27 377 48 377 126 c 0
 377 208 434 269 486 281 c 1
 474 266 l 1
 421 345 357 367 300 367 c 0
 195 367 103 298 103 160 c 0
 103 76 139 12 212 12 c 0
 253 12 272 45 272 72 c 0
 272 105 252 131 220 131 c 0
 194 131 171 111 171 74 c 0
 171 47 187 13 230 8 c 1
 233 -3 l 1
 174 -1 132 26 132 77 c 0
 132 134 175 182 235 182 c 0
 281 182 334 147 334 81 c 0
 334 29 295 -29 214 -29 c 0
 94 -29 50 88 50 181 c 0
EndSplineSet
Refer: 560 -1 N 1 0 0 1 109 0 2
Ligature2: "si_abvs_1 subtable" si_Ba si_MatraI
EndChar

StartChar: si_MI
Encoding: 325 -1 343
GlifName: si_M_I_
Width: 860
VWidth: 16
Flags: HMW
LayerCount: 4
Back
Refer: 51 3512 N 1 0 0 1 0 0 2
Fore
SplineSet
50 271 m 0
 50 397 117 486 199 486 c 0
 248 486 275 450 275 380 c 0
 275 287 338 256 403 256 c 0
 492 256 527 307 527 362 c 0
 527 416 491 479 421 479 c 0
 383 479 361 450 361 425 c 0
 361 405 374 380 412 380 c 0
 442 380 457 403 457 430 c 0
 457 446 451 464 440 479 c 1
 482 479 l 1
 493 464 499 444 499 424 c 0
 499 374 466 320 403 320 c 0
 364 320 314 345 314 412 c 0
 314 466 356 513 430 513 c 0
 508 513 573 449 573 363 c 0
 573 291 531 190 398 190 c 0
 310 190 236 240 236 348 c 0
 236 392 233 432 193 432 c 0
 144 432 123 375 123 310 c 0
 123 165 230 81 412 81 c 0
 603 81 703 213 708 363 c 1
 771 350 l 1
 771 166 655 -28 406 -28 c 0
 155 -28 50 125 50 271 c 0
EndSplineSet
Refer: 560 -1 N 1 0 0 1 90 0 2
LCarets2: 1 0
Ligature2: "si_abvs_1 subtable" si_Ma si_MatraI
EndChar

StartChar: si_MIi
Encoding: 326 -1 344
GlifName: si_M_I_i
Width: 860
VWidth: 16
Flags: HMW
LayerCount: 4
Back
Refer: 51 3512 N 1 0 0 1 0 0 2
Fore
SplineSet
50 292 m 0
 49 448 124 512 191 512 c 0
 236 512 264 486 265 421 c 0
 266 294 353 280 413 281 c 0
 497 282 540 325 541 388 c 0
 543 456 494 510 418 499 c 0
 384 494 361 467 361 432 c 0
 361 414 374 388 408 388 c 0
 443 388 460 419 460 446 c 0
 460 468 454 487 443 505 c 1
 469 504 l 1
 485 489 496 464 496 440 c 0
 496 390 464 342 404 342 c 0
 362 342 314 367 314 428 c 0
 314 482 357 534 431 534 c 0
 527 534 579 467 579 390 c 0
 579 305 524 217 405 217 c 0
 357 217 307 231 271 265 c 0
 240 293 225 341 223 405 c 0
 222 454 210 474 185 474 c 0
 137 474 107 409 108 317 c 0
 110 168 244 75 410 74 c 0
 633 73 717 210 723 359 c 1
 785 364 l 1
 785 126 639 -28 415 -28 c 0
 186 -28 50 113 50 292 c 0
EndSplineSet
Refer: 561 -1 N 1 0 0 1 106 0 2
LCarets2: 1 0
Ligature2: "si_abvs_2 subtable" si_Ma si_MatraIi
EndChar

StartChar: si_MbI
Encoding: 335 -1 353
GlifName: si_M_bI_
Width: 865
VWidth: 16
Flags: HMW
LayerCount: 4
Back
Refer: 52 3513 N 1 0 0 1 0 0 2
Fore
SplineSet
50 272 m 1
 50 160 92 -32 249 -32 c 0
 315 -32 385 0 385 99 c 0
 385 100 349 106 349 129 c 0
 349 155 379 165 412 165 c 0
 444 165 476 155 476 129 c 0
 476 106 434 99 434 99 c 1
 431 1 489 -33 569 -33 c 0
 750 -33 803 219 803 357 c 5
 739 356 l 1
 739 225 683 65 554 65 c 0
 510 65 490 75 478 86 c 1
 497 91 527 108 527 141 c 0
 527 179 482 213 415 213 c 0
 340 213 296 177 296 137 c 0
 296 108 320 94 340 86 c 1
 325 73 311 65 275 65 c 0
 157 65 112 189 110 295 c 0
 108 381 149 484 207 484 c 0
 235 484 244 463 249 421 c 0
 256 366 269 326 298 300 c 0
 333 268 381 255 428 255 c 0
 540 255 591 332 591 406 c 0
 591 483 537 550 439 550 c 0
 367 550 326 498 326 444 c 0
 326 382 372 356 408 356 c 0
 473 356 507 405 507 456 c 0
 507 480 497 505 481 520 c 1
 455 521 l 1
 466 503 472 484 472 462 c 0
 472 435 454 404 419 404 c 0
 385 404 373 430 373 448 c 0
 373 481 396 506 430 511 c 0
 506 522 555 470 553 404 c 0
 552 345 511 305 432 304 c 0
 372 303 287 327 286 427 c 0
 285 499 258 528 213 528 c 0
 126 528 52 427 50 272 c 1
EndSplineSet
Refer: 560 -1 N 1 0 0 1 121 0 2
Ligature2: "si_abvs_1 subtable" si_Mba si_MatraI
EndChar

StartChar: si_YI
Encoding: 340 -1 358
GlifName: si_Y_I_
Width: 885
VWidth: 6
Flags: HMW
LayerCount: 4
Back
Refer: 53 3514 N 1 0 0 1 0 0 2
Fore
SplineSet
284 688 m 0
 284 814 397 899 579 899 c 0
 748 899 852 806 852 696 c 0
 852 619 786 547 723 547 c 1
 675 571 l 1
 675 571 779 579 779 684 c 0
 779 759 684 817 548 818 c 0
 438 819 346 779 346 697 c 0
 346 607 419 553 560 554 c 5
 556 510 l 1
 382 511 284 591 284 688 c 0
EndSplineSet
Refer: 53 3514 N 1 0 0 1 0 0 2
LCarets2: 1 0
Ligature2: "si_abvs_1 subtable" si_Ya si_MatraI
EndChar

StartChar: si_YU
Encoding: 342 -1 360
GlifName: si_Y_U_
Width: 885
VWidth: 6
Flags: HMW
LayerCount: 4
Back
SplineSet
392 -115 m 21xff20
 418.772460938 -160 l 5
 418.76953125 -152.99609375 352.1875 -191.887695312 352.190429688 -226 c 4
 352.194335938 -272.552734375 386.30078125 -285.247070312 428 -285.247070312 c 5
 745 -287 l 13xff20
 745 169 l 29xff40
 802 169 l 29
 808 -367 l 21
 808 -367 532.004882812 -369.6796875 356 -370.586914062 c 4
 276 -371 234.755859375 -321.6015625 234 -271 c 4
 232.37109375 -161.938476562 392 -115 392 -115 c 21xff20
EndSplineSet
Refer: 53 3514 N 1 0 0 1 0 0 2
Fore
Refer: 646 -1 N 1 0 0 1 -136 0 2
Refer: 53 3514 N 1 0 0 1 0 0 2
LCarets2: 1 0
Ligature2: "si_blws_1 subtable" si_Ya si_MatraU
EndChar

StartChar: si_Ya.post
Encoding: 345 -1 363
GlifName: si_Y_a.post
Width: 713
VWidth: 19
Flags: HMW
LayerCount: 4
Fore
SplineSet
11 437 m 5
 26 488 67 553 148 553 c 4
 268 553 289 444 289 384 c 4
 289 209 169 85 61 -11 c 5
 46 -9 22 -2 19 25 c 5
 19 25 227 160 227 378 c 4
 227 465 199 508 146 507 c 4
 100 506 66 464 55 423 c 5
 40 423 19 424 11 437 c 5
125 99 m 5
 150 111 160 115 177 115 c 4
 242 115 285 58 395 58 c 4
 528 58 566 144 566 214 c 4
 566 294 507 388 324 363 c 5
 319 475 386 571 493 571 c 4
 545 571 607 543 607 464 c 4
 607 382 527 350 527 350 c 5
 517 371 l 5
 517 371 538 396 538 433 c 4
 538 485 505 511 466 511 c 4
 372 511 361 403 361 403 c 5
 521 429 644 350 644 204 c 4
 644 83 572 -23 420 -23 c 4
 281 -23 235 79 175 79 c 4
 166 79 151 75 139 65 c 5
 125 99 l 5
EndSplineSet
LCarets2: 2 0 0
Ligature2: "si_yansaya subtable" si_Halant zwj si_Ya
EndChar

StartChar: si_RAe
Encoding: 353 -1 371
GlifName: si_R_A_e
Width: 1021
VWidth: 25
Flags: HMW
LayerCount: 4
Back
SplineSet
686 286 m 0x40
 673.03149213 197.912101269 683.9552585 23.4596878133 851 13 c 0
 925.485704848 8.33599673795 962.101694915 38.7880859375 989 59 c 1
 1010 37 l 1
 993.342145647 -6.75 912.446649603 -65.0229953974 822 -63 c 0
 630.048097803 -58.706664466 595.259201143 73.8189539074 611 230 c 0
 633.347946036 451.737512925 768.240645813 647.688455021 821.163085938 712 c 1x40
 764.849913129 709.587890625 655.975856126 706.22265625 586 703.856445312 c 1
 637 779.116210938 l 1x80
 660.844270833 779.107421875 857.060351562 778.998046875 892 779 c 1
 892 723 l 1
 804.762510102 649.886284722 704.792626773 413.647916063 686 286 c 0x40
EndSplineSet
Refer: 4 3515 N 1 0 0 1 0 0 2
Fore
SplineSet
608 198 m 0
 608 422 763 676 821 746 c 1
 632 746 l 1
 637 809 l 1
 661 809 863 809 900 809 c 1
 891 753 l 1
 804 660 705 444 686 316 c 0
 684 300 682 281 682 261 c 0
 682 166 718 43 866 43 c 0
 931 43 964 70 989 89 c 1
 1010 67 l 1
 994 24 916 -33 827 -33 c 0
 658 -33 608 70 608 198 c 0
EndSplineSet
Refer: 4 3515 N 1 0 0 1 0 0 2
LCarets2: 1 0
Ligature2: "si_raer subtable" si_Ra si_MatraAe
EndChar

StartChar: si_RAae
Encoding: 354 -1 372
GlifName: si_R_A_ae
Width: 1001
VWidth: 25
Flags: HMW
LayerCount: 4
Back
Refer: 4 3515 N 1 0 0 1 0 0 2
Fore
SplineSet
606 673 m 5
 606 709 l 5
 780 796 l 5
 643 796 l 5
 643 846 l 5
 869 846 l 5
 860 792 l 5
 726 719 l 5
 781 719 862 719 881 719 c 5
 871 663 l 5
 772 585 685 386 685 251 c 4
 685 156 721 43 849 43 c 4
 904 43 952 72 982 99 c 5
 1010 87 l 5
 994 44 926 -33 817 -33 c 4
 660 -33 607 70 607 198 c 4
 607 218 609.129825582 238.988040366 611 260 c 4
 628 451 761 620 811 675 c 5
 769 674 658 674 606 673 c 5
EndSplineSet
Refer: 4 3515 N 1 0 0 1 0 0 2
LCarets2: 1 0
Ligature2: "si_raer subtable" si_Ra si_MatraAae
EndChar

StartChar: si_RI
Encoding: 355 -1 373
GlifName: si_R_I_
Width: 733
VWidth: 25
Flags: HMW
LayerCount: 4
Back
SplineSet
643 795 m 1
 643 717.080078125 566.435546875 670.377929688 458 604 c 0
 330 526 125 415 125 245 c 0
 125 138 214 48 360 48 c 0
 508.439453125 48 582.853515625 153 586 252 c 0
 590.389648438 389.393554688 492.021484375 476 367 476 c 0
 208.249023438 476 137 339 137 339 c 1
 165 428 l 0
 164 431 253.985351562 531.200195312 386 532 c 0
 536.497070312 532.912109375 668.461914062 424.852539062 665 245 c 0
 661.881835938 83.00390625 550.1171875 -52 356 -52 c 0
 153 -52 47.3369140625 93.9853515625 55 252 c 0
 67.9033203125 518.061523438 446 614 544 746 c 1
 584 834 l 1
 626.75390625 835.307617188 643 821.384765625 643 795 c 1
263 493 m 17
 162.110351562 451.639648438 106.826491728 577.491101825 179 703 c 0
 232.83203125 796.61328125 347.963867188 867.708984375 453 836 c 0
 541.97265625 809.140625 493 674 493 674 c 25
 459 666 l 25
 459 666 464.546875 750.15234375 395 758 c 0
 338.370117188 764.389648438 285.21875 739.506835938 241 692 c 0
 159.2421875 604.162109375 198.736328125 514.29296875 259 522 c 9
 263 493 l 17
EndSplineSet
Fore
SplineSet
126 650 m 0
 126 802.015151515 246.779591837 904 359 904 c 0
 440.118421053 904 494 857 494 780 c 4
 494 736 471 694 471 694 c 5
 449 694 l 1
 462.417582418 780 426.56043956 829 338 829 c 0
 260.508196721 829 175 763.670212766 175 651 c 0
 175 599.17721519 208 562 252 562 c 0
 254 562 257 562 259 562 c 1
 259 533 l 1
 246 528 237 525 225 525 c 0
 165 525 126 578.260869565 126 650 c 0
EndSplineSet
Refer: 4 3515 N 1 0 0 1 0 0 2
LCarets2: 1 0
Ligature2: "si_abvs_1 subtable" si_Ra si_MatraI
EndChar

StartChar: si_RIi
Encoding: 356 -1 374
GlifName: si_R_I_i
Width: 741
VWidth: 25
Flags: HMW
LayerCount: 4
Back
Refer: 4 3515 N 1 0 0 1 0 0 2
Fore
SplineSet
400.772460938 683.720703125 m 0
 433.425099892 683.720703125 452.109486582 710.45973354 452.109486582 739.940870426 c 0
 452.109486582 817.443676917 402.139870407 855.626953125 317.015625 855.626953125 c 0
 215.719124346 855.626953125 140.60546875 788.042918538 140.60546875 687.072265625 c 0
 140.60546875 615.704999271 192.514010077 570.232421875 246.700195312 570.232421875 c 0
 253.766531308 570.232421875 260.613753217 571.131015816 267 573 c 1
 279 534 l 1
 267.786744418 532.10240103 255.799713451 531.038085938 243.500976562 531.038085938 c 0
 167.888652794 531.038085938 84.470703125 579.892824909 84.470703125 698.31640625 c 0
 84.470703125 796.062869661 170.250216907 922.379882812 323.450195312 922.379882812 c 0
 419.263931383 922.379882812 492.825195312 861.512521937 492.825195312 765.940429688 c 0
 492.825195312 700.70460751 451.842235754 641.268554688 393.807617188 641.268554688 c 0
 341.197365098 641.268554688 304.813476562 676.727723973 304.813476562 724.794921875 c 0
 304.813476562 781.923775238 353.510493689 818.812087015 399 819.860351562 c 0
 428.72079331 820.497683254 453.297075346 809.1085768 472 792 c 1
 470 771 l 1
 457.528531363 775.594219436 446.016233813 787.874423455 409 787 c 4
 374.106490287 786.058283015 349.791015625 761.840149441 349.791015625 728.025390625 c 0
 349.791015625 702.931500474 372.633976643 683.720703125 400.772460938 683.720703125 c 0
EndSplineSet
Refer: 4 3515 N 1 0 0 1 0 0 2
LCarets2: 1 0
Ligature2: "si_abvs_2 subtable" si_Ra si_MatraIi
EndChar

StartChar: si_LI
Encoding: 360 -1 378
GlifName: si_L_I_
Width: 910
VWidth: 25
Flags: HMW
LayerCount: 4
Back
SplineSet
296 468 m 17
 243 468 190.475585938 521.147460938 195 598 c 0
 202.833984375 731.080078125 326.991210938 829.928710938 499 833 c 0
 722.965296868 836.998994298 819.440429688 717.55859375 816 601 c 0
 814.0625 535.350585938 762 486 727 472 c 9
 693 497 l 17
 716 517 753.9375 536.671875 751 598 c 0
 748.1953125 656.557617188 685.924804688 736.450195312 501 736 c 0
 355.9140625 735.646484375 257 679 248 604 c 0
 241.56640625 550.384765625 290 513 313 503 c 9
 296 468 l 17
EndSplineSet
Refer: 54 3517 N 1 0 0 1 0 0 2
Fore
Refer: 562 -1 N 1 0 0 1 40 0 2
Refer: 54 3517 N 1 0 0 1 0 0 2
LCarets2: 1 0
Ligature2: "si_abvs_1 subtable" si_La si_MatraI
EndChar

StartChar: si_LU
Encoding: 362 -1 380
GlifName: si_L_U_
Width: 884
VWidth: 25
Flags: HMW
LayerCount: 4
Back
SplineSet
351 378.60546875 m 5
 633 378.60546875 l 5
 633 334 l 5
 351 334 l 5
 351 378.60546875 l 5
490.178710938 -207.106445312 m 4
 223.974794775 -207.106445312 54.9970703125 -54.5671457293 54.9970703125 160.818359375 c 4
 54.9970703125 413.585471206 256.583776277 584 497 584 c 4
 726.760742188 584 835 447.298828125 835 326 c 4
 835 195.670898438 744.067382812 125 642 125 c 4
 533.111328125 125 482.982421875 188.331054688 482.982421875 247.053710938 c 4
 482.982421875 317.41796875 536.122070312 352.97265625 574 357 c 5
 632 335 l 5
 555.045898438 335 533 305.536132812 533 269 c 4
 533 224.401367188 598.888671875 200.953125 649.306640625 200.953125 c 4
 719.349609375 200.953125 777 242.991210938 777 335 c 4
 777 436.595703125 683.428710938 529 494.935546875 529 c 4
 286.114593807 529 156.557617188 387.71266438 156.557617188 198.208007812 c 4
 156.557617188 -0.926614181863 289.836466014 -147.764648438 513.658203125 -147.764648438 c 4
 647.815444934 -147.764648438 716.304957125 -89.7102094078 754 -56 c 5
 806 -103 l 5
 765.301317038 -139.93388829 664.544072594 -207.106445312 490.178710938 -207.106445312 c 4
806 -428 m 6
 806 -428 380.212639787 -428 198.004882812 -428 c 4
 124.002536632 -428 100.987304688 -386.8040919 100.987304688 -342.34375 c 4
 100.987304688 -248.304302411 189 -193 189 -193 c 5
 224.772460938 -219 l 6
 224.772460938 -219 224.210686462 -217.607007425 223.56640625 -218.048828125 c 4
 198.475027905 -235.364835695 180.188999306 -258.321760827 180.190429688 -293.997070312 c 4
 180.191862283 -330.810937762 202.711322833 -355 251 -355 c 6
 753 -355 l 5
 754 -57 l 5
 806 -104 l 5
 806 -428 l 6
EndSplineSet
Fore
SplineSet
351 364 m 1
 351 409 l 1
 633 409 l 1
 633 364 l 1
 351 364 l 1
65 211 m 0
 65 464 257 614 497 614 c 0
 727 614 835 477 835 356 c 0
 835 226 744 155 642 155 c 0
 533 155 483 218 483 277 c 0
 483 347 536 383 574 387 c 1
 632 365 l 1
 555 365 533 336 533 299 c 0
 533 254 599 231 649 231 c 0
 719 231 777 273 777 365 c 0
 777 467 683 559 495 559 c 0
 286 559 167 438 167 248 c 0
 167 49 290 -68 514 -68 c 0
 648 -68 716 -10 754 24 c 1
 806 -23 l 1
 765 -60 664 -127 490 -127 c 0
 224 -127 65 -4 65 211 c 0
101 -262 m 0
 101 -168 189 -113 189 -113 c 1
 224 -138 l 1
 199 -155 180 -178 180 -214 c 0
 180 -251 203 -275 251 -275 c 2
 753 -275 l 1
 754 23 l 1
 806 -24 l 1
 806 -348 l 1
 806 -348 380 -348 198 -348 c 0
 124 -348 101 -306 101 -262 c 0
EndSplineSet
LCarets2: 1 0
Ligature2: "si_blws_1 subtable" si_La si_MatraU
EndChar

StartChar: si_V.halant
Encoding: 364 -1 382
GlifName: si_V_.halant
Width: 808
VWidth: 16
Flags: HMW
LayerCount: 4
Back
SplineSet
396 274 m 1
 260.50390625 291.37890625 133.465820312 252.458984375 138 158 c 0
 141.069335938 94.0595703125 229.272460938 45.0927734375 375 46 c 0
 549 47.083984375 647 180.395507812 647 339 c 0
 710 331 l 0
 710 111.353515625 601.00390625 -66.76171875 365 -68 c 0
 183.8203125 -69.0419921875 59.146484375 8.0341796875 56 137 c 0
 52.244140625 299.32421875 249.439453125 329.377929688 364 322 c 1
 364 392 314 428 222 428 c 1
 196 347 l 1
 145 340 110.760742188 368.857421875 119 415 c 0
 129 471 187 490 234 490 c 0
 310 490 399.999023438 453 404 349 c 0
 405.383789062 313.026367188 396 274 396 274 c 1
EndSplineSet
Refer: 576 -1 N 1 0 0 1 0 0 2
Fore
Refer: 576 -1 N 1 0 0 1 2 0 2
Refer: 2 3520 N 1 0 0 1 0 0 2
LCarets2: 1 0
Ligature2: "si_halant_1 subtable" si_Va si_Halant
EndChar

StartChar: si_VIi
Encoding: 366 -1 383
GlifName: si_V_I_i
Width: 810
VWidth: 16
Flags: HMW
LayerCount: 4
Back
SplineSet
376 262 m 1xfe80
 230 278 125 245 129 158 c 0
 131.939782368 94.0597335036 205 41 345 42 c 0
 514 43 607 173 607 326 c 0
 682 321 l 0
 682 107 571.002314781 -56.4236373831 335 -58 c 0
 179 -59.0419921875 49.3495196644 8.04349292099 46 137 c 0
 42 291 205 325 327 318 c 1
 337 378 304 428 212 428 c 1
 186 347 l 1
 135 340 100 369 109 415 c 0
 119 471 177 490 224 490 c 0
 300 490 380 453 384 349 c 0
 385.383592396 313.026597713 376 262 376 262 c 1xfe80
EndSplineSet
Refer: 561 -1 N 1 0 0 1 0 0 2
Fore
SplineSet
46 172 m 0
 46 319 213 363 328 363 c 0
 337 363 346 363 354 362 c 1
 354 432 304 468 212 468 c 1
 186 387 l 1
 181 386 176 386 171 386 c 0
 133 386 108 408 108 442 c 0
 108 508 175 530 224 530 c 0
 302 530 394 491 394 382 c 0
 394 348 386 314 386 314 c 1
 368 316 350 317 332 317 c 0
 221 317 128 272 128 193 c 0
 128 113 219 70 370 70 c 0
 563 70 671 195 671 366 c 1
 734 366 l 1
 734 138 597 -28 360 -28 c 0
 183 -28 46 45 46 172 c 0
EndSplineSet
Refer: 561 -1 N 1 0 0 1 63 0 2
Ligature2: "si_abvs_2 subtable" si_Va si_MatraIi
LCarets2: 1 0
Ligature2: "'abvs' Above Base Substitutions in Sinhala lookup 0-2" si_Va si_MatraIi
EndChar

StartChar: si_VRa
Encoding: 371 -1 388
GlifName: si_V_R_a
Width: 808
VWidth: 16
Flags: HMW
LayerCount: 4
Back
Refer: 2 3520 N 1 0 0 1 0 0 2
Fore
SplineSet
561 753 m 1049
EndSplineSet
Refer: 644 -1 S 1 0 0 1 -1 0 2
Refer: 2 3520 N 1 0 0 1 0 0 2
LCarets2: 3 0 0 0
Ligature2: "si_rakaar subtable" si_Va si_Halant zwj si_Ra
EndChar

StartChar: si_SU
Encoding: 397 -1 413
GlifName: si_S_U_
Width: 942
VWidth: 6
Flags: HMW
LayerCount: 4
Back
SplineSet
282 -117 m 5xee80
 298.772460938 -152 l 5
 298.76953125 -143.934570312 232.1875 -188.71875 232.190429688 -228 c 4
 232.1953125 -274.552734375 259.481445312 -288 318 -288 c 5
 795 -288 l 1
 795 127 l 1
 842 127 l 1
 848 -369 l 1
 848 -369 457.048828125 -371.4765625 246 -372.586914062 c 4
 166 -373 124.755859375 -323.6015625 124 -273 c 4
 122.37109375 -163.938476562 282 -117 282 -117 c 5xee80
EndSplineSet
Refer: 6 3523 N 1 0 0 1 0 0 2
Fore
Refer: 646 -1 N 1 0 0 1 -81 0 2
Refer: 6 3523 N 1 0 0 1 0 0 2
LCarets2: 1 0
Ligature2: "si_blws_1 subtable" si_Sa si_MatraU
EndChar

StartChar: si_LlI
Encoding: 415 -1 431
GlifName: si_L_lI_
Width: 854
VWidth: 25
Flags: HMW
LayerCount: 4
Back
Refer: 58 3525 N 1 0 0 1 0 0 2
Fore
SplineSet
208 662 m 0
 208 786 345 866 510 866 c 0
 677 866 801 792 802 670 c 0
 803 603 752 547 694 537 c 9
 686 571 l 17
 713 578 741 607 740 652 c 0
 739 703 672 776 504 776 c 4
 344 776 264 718 264 657 c 0
 264 615 296 585 322 576 c 9
 314 542 l 17
 249 551 208 606 208 662 c 0
EndSplineSet
Refer: 58 3525 N 1 0 0 1 0 0 2
LCarets2: 1 0
Ligature2: "si_abvs_1 subtable" si_Lla si_MatraI
EndChar

StartChar: si_KSsa
Encoding: 429 -1 445
GlifName: si_K_S_sa
Width: 1368
VWidth: 6
Flags: HMW
AnchorPoint: "si_hal" 1263 544 basechar 0
LayerCount: 4
Back
SplineSet
800 501.65234375 m 0x3d38
 773.259765625 506.147460938 663.797973016 505.722958876 607 492 c 0
 507.888671875 468.053710938 448.959960938 431.771484375 355 374 c 1
 338 362 349 367 335 355 c 1
 238 276 156 211 56 79 c 1
 56 79 21.1274838429 98.5435767337 27 107 c 0
 127 251 217 322 315 413 c 1
 322 419 331 420 338 425 c 1
 430.000450271 495 545.206560929 544.1498541 664 561 c 0
 706.148290934 566.978485489 778.02734375 566.530273438 799 564.625 c 0
 800 501.65234375 l 0x3d38
288 377 m 1
 300 400 303.857492926 420.99264856 303 439 c 0
 301 481 264.760721452 505.678931467 215 501 c 0
 180.934570312 497.796875 145 470 151 426 c 1
 191 371 l 1
 177 347 154.001938688 335.022136058 132 336 c 0
 87 338 67 369 67 415 c 0
 67 495 133.983392553 563.181504095 231 559 c 0
 313.926757812 555.42578125 362.716238441 480.118972259 336 416 c 0
 321 380 336 404 323 387 c 1
 288 377 l 1
107 165 m 1
 115 169 124.001518603 171.854198304 131 172 c 0
 179 173 188 72 271 72 c 0
 320 72 370 101 371 197 c 1
 406 197 l 0
 407 94 466.997454367 71.1666228257 527 72 c 0
 587.003054614 72.8333842436 638 118 638 194 c 0
 638 273 566 340.000000001 452 345 c 0
 390.059547834 347.716686498 314 329 281 311 c 1
 335 364 l 1
 348 368 381.996090944 390.330400791 459 391 c 0
 574 392 696 332 696 182 c 0
 696 48 620.994671777 -34.9422200603 516 -36 c 0
 430.693480131 -36.8594295683 397.721679688 8.326171875 379 49 c 1
 397 49 l 1
 379.737304688 7.81640625 336.954248144 -36 272 -36 c 0x79b8
 113.996835475 -36 160 169 95 130 c 0
 107 165 l 1
EndSplineSet
Refer: 56 3522 N 1 0 0 1 598 8 2
Fore
SplineSet
26 135 m 0
 26 136 27 136 27 137 c 0
 127 281 217 352 315 443 c 0
 322 449 331 450 338 455 c 0
 430 525 547 584 666 601 c 0
 692 605 729 606 758 606 c 0
 777 606 793 606 801 605 c 1
 801 544 l 1
 792 546 773 546 749 546 c 0
 563 546 481 483 355 404 c 0
 337 393 349 397 335 385 c 0
 238 306 156 241 56 109 c 1
 56 109 26 126 26 135 c 0
67 445 m 0
 67 523 131 589 223 589 c 0
 296 589 343 538 343 482 c 0
 343 470 341 458 336 446 c 0
 330 431 329 426 329 425 c 0
 329 423 331 427 323 417 c 1
 288 407 l 1
 299 428 303 447 303 464 c 0
 303 506 272 532 227 532 c 0
 188 532 146 506 146 463 c 1
 191 401 l 1
 178 378 155 366 134 366 c 0
 87 366 67 399 67 445 c 0
95 160 m 1
 107 195 l 1
 115 199 124 202 132 202 c 0
 179 202 188 102 271 102 c 0
 320 102 370 131 371 227 c 1
 406 227 l 1
 407 126 465 102 524 102 c 0
 586 102 638 147 638 224 c 0
 638 306 560 375 440 375 c 0
 381 375 312 358 281 341 c 1
 335 394 l 1
 347 398 385 421 462 421 c 0
 576 421 696 361 696 212 c 0
 696 77 621 -6 514 -6 c 0
 430 -6 398 39 379 79 c 1
 397 79 l 1
 380 38 337 -6 272 -6 c 0
 128 -6 154 165 110 165 c 0
 106 165 101 163 95 160 c 1
EndSplineSet
Refer: 56 3522 N 1 0 0 1 598 8 2
LCarets2: 1 0
Ligature2: "si_akhands subtable" si_Ka si_Halantfzwjnsi_SsaC2
EndChar

StartChar: I_comp
Encoding: 569 -1 560
GlifName: I__comp
Width: 726
VWidth: 16
Flags: HMW
LayerCount: 4
Back
SplineSet
139.149414062 703.880859375 m 4
 139.149414062 815 273.150390625 875.750976562 434 877 c 4
 631.375 878.533203125 716.248046875 776.428710938 697 677 c 4
 684.538085938 612.626953125 629.57421875 569.895507812 570 576 c 13
 536 629 l 21
 586 605 621.004882812 633.44140625 619 684 c 4
 616.580078125 745.025390625 554.841796875 801.115234375 398 801 c 4
 293.033203125 800.922851562 214.092773438 769.6875 209.40625 708.064453125 c 4
 207.170898438 678.671875 219.657226562 657.563476562 252 648.33984375 c 4
 296.94140625 635.522460938 366.30078125 649.194335938 437 646.131835938 c 4
 617.857421875 638.298828125 756 515.607421875 756 321 c 0
 694 321 l 1
 694 484.856445312 584.022460938 584.602539062 433 592.443359375 c 4
 357.883789062 596.34375 287.2109375 584.611328125 231 595.53515625 c 4
 167.021484375 607.96875 139.149414062 650.7890625 139.149414062 703.880859375 c 4
EndSplineSet
Fore
SplineSet
71 724 m 4
 71 836 199 897 352 897 c 4
 546 897 615 805 615 718 c 4
 615 637 535 593 454 600 c 5
 430 644 l 5
 480 632 533 646 533 702 c 4
 533 767 472 823 322 823 c 4
 221 823 143 795 143 732 c 4
 143 686 186 662 238 659 c 4
 322 655 314 657 409 647 c 4
 525 632 681 540 681 351 c 5
 618 351 l 5
 618 499 509 570 418 586 c 4
 343 597 308 595 226 602 c 4
 128 611 71 651 71 724 c 4
EndSplineSet
EndChar

StartChar: Ii_comp
Encoding: 570 -1 561
GlifName: I_i_comp
Width: 726
VWidth: 16
Flags: HMW
LayerCount: 4
Back
SplineSet
322.426757812 793 m 4
 221.439906252 792.963913161 143.154296875 764.547671277 143.154296875 701.59765625 c 4
 143.154296875 655.997116673 185.064915509 631.578865429 237.532226562 628.7890625 c 4
 321.064010674 624.7890625 313.309570312 626.63671875 408.704101562 616.63671875 c 4
 524.912109375 601.994140625 681 510.105952699 681 321 c 5
 618 321 l 5
 618 469.161577742 508.853515625 540.236328125 418 556.443359375 c 4
 342.50390625 567.405273438 308.741471632 564.907833325 226.428710938 571.823242188 c 4
 127.983423895 580.91463526 71.1494140625 620.899820766 71.1494140625 693.880859375 c 4
 71.1494140625 805.891260729 199.443822905 867.016601562 352.3359375 867.016601562 c 4
 545.979826581 867.016601562 614.794921875 775.323242188 614.794921875 688.249023438 c 4
 614.794921875 607.530273438 535.064453125 563.396484375 454 570 c 5
 430 614 l 5
 479.791015625 601.893554688 533.072265625 616.002933482 533.072265625 672.205078125 c 4
 533.072265625 737.007258583 472.855981663 793.06620084 322.426757812 793 c 4
EndSplineSet
Fore
SplineSet
73 727 m 0
 73 831 203 897 366 897 c 0
 530 897 617 822 617 713 c 0
 617 650 551 598 481 598 c 0
 454 598 361 601 361 695 c 0
 361 748 414 793 469 793 c 0
 479 793 490 792 501 788 c 9
 520 754 l 1
 510 757 500 758 491 758 c 0
 447 758 423 727 423 699 c 0
 423 665 441 644 478 644 c 0
 503 644 532 659 532 697 c 0
 532 759 479 821 332 821 c 0
 225 821 143 800 143 732 c 0
 143 651 267 654 349 654 c 0
 546 654 682 515 682 351 c 1
 617 351 l 1
 617 495 518 584 367 592 c 0
 234 599 73 597 73 727 c 0
EndSplineSet
EndChar

StartChar: si_MatraI.alt
Encoding: 571 -1 562
GlifName: si_M_atraI_.alt
Width: 865
VWidth: 6
Flags: HMW
LayerCount: 4
Back
SplineSet
273 520 m 21
 200 530 160.888671875 585.918945312 172 652 c 4
 191 765 320.989257812 808.053710938 462 809 c 4
 611 810 741.903320312 764.702148438 754 652 c 4
 761.056640625 586.251953125 713 525 668 521 c 13
 655 557 l 21
 688 567 711.614257812 594.228515625 703 632 c 4
 691.770507812 681.23828125 581 716.9765625 463 717 c 4
 337.995117188 717.025390625 236 687 227 632 c 4
 218.279296875 578.708984375 259 562 282 552 c 13
 273 520 l 21
EndSplineSet
Fore
SplineSet
170 682 m 0
 170 796 322 866 467 866 c 0
 614 866 763 804 764 682 c 0
 765 615 714 568 656 558 c 13
 648 592 l 21
 684 599 703 630 702 666 c 0
 701 717 631 774 463 774 c 0
 303 774 226 728 226 667 c 0
 226 625 256 601 282 592 c 13
 274 558 l 21
 209 567 170 626 170 682 c 0
EndSplineSet
EndChar

StartChar: si_MatraIi.alt
Encoding: 572 -1 563
GlifName: si_M_atraI_i.alt
Width: 776
VWidth: 6
Flags: HMW
LayerCount: 4
Back
SplineSet
214 520 m 17x60
 151 540 107.166992188 577.24609375 113 644 c 0
 122 747 259.990234375 790.13671875 401 789 c 0
 525 788 682.063476562 731.920898438 682 625 c 0
 681.955078125 549.627929688 638.186523438 507.028320312 582 505 c 0
 526.177734375 502.984375 465.423828125 529.80859375 461 586 c 0
 455.676757812 653.612304688 537.657226562 695.563476562 545 692 c 1
 601 682 l 1
 587.119140625 668.837890625 544 630.181640625 544 586 c 0
 544 569 558 549 583 549 c 24xa0
 602 549 622.310546875 561.890625 621 586 c 0
 617.19140625 656.051757812 461 695.96875 393 697 c 0
 298.005859375 698.44140625 185 695 176 630 c 0
 168.59375 576.510742188 208 565 231 555 c 9
 214 520 l 17x60
EndSplineSet
Fore
SplineSet
136 666 m 0
 136 803 277 873 416 873 c 0
 562 873 702 805 702 676 c 0
 702 599 653 556 587 556 c 0
 536 556 481 592 481 664 c 0
 481 733 552 776 564 776 c 0
 565 776 565 776 565 776 c 2
 621 766 l 1
 602 752 544 713 544 667 c 0
 544 636 562 600 593 600 c 16
 616 600 641 619 641 654 c 0
 641 743 490 781 391 781 c 0
 290 781 211 755 199 686 c 0
 198 680 197 674 197 669 c 0
 197 620 238 596 261 584 c 9
 244 549 l 17
 180 560 136 603 136 666 c 0
EndSplineSet
EndChar

StartChar: si_Rakar
Encoding: 82 -1 568
GlifName: zwj
Width: 959
VWidth: 6
Flags: HMW
LayerCount: 4
Fore
SplineSet
118 -139 m 1
 121 -128 137 -118 155 -118 c 1
 155 -118 252.33105802 -221 449 -221 c 0
 755.804668953 -221 884.527169612 28.9146163482 894 284 c 1
 921 277 l 1
 921 277 920.448098058 212.901338348 916 163 c 0
 899.07593261 -41.0703296703 764.363636364 -309 448 -309 c 0
 218.833333333 -309 123.5 -165 118 -139 c 1
EndSplineSet
EndChar

StartChar: si_MatraI.alt1
Encoding: 574 -1 573
GlifName: si_M_atraI_.alt1
Width: 0
VWidth: 6
Flags: HMW
AnchorPoint: "si_MaI" 0 514 mark 0
LayerCount: 4
Back
SplineSet
-305 422 m 17
 -302.413085938 684.754882812 -141.481445312 811.205078125 30 828 c 0
 164.000976562 841.124023438 297.903320312 772.702148438 294 637 c 0
 292.098632812 570.901367188 259 491 174 467 c 9
 155 492 l 17
 178 512 204.944335938 561.612304688 203 603 c 0
 198.84375 691.477539062 95.8857421875 741.201171875 -12 731 c 0
 -136.015625 719.2734375 -256.22265625 636.188476562 -258 422 c 9
 -305 422 l 17
EndSplineSet
Fore
SplineSet
-325 412 m 21
 -300.75 673.432989691 -137.326086957 840 63 840 c 0
 183 840 284 770.470588235 284 643 c 4
 284 581 253 509 174 487 c 13
 155 512 l 21
 174 528 204 578 204 612 c 4
 204 702.363636364 124 754 27 754 c 0
 -122.824561404 754 -254.456140351 637.357615894 -278 412 c 9
 -325 412 l 21
EndSplineSet
EndChar

StartChar: si_MatraIi.alt1
Encoding: 575 -1 574
GlifName: si_M_atraI_i.alt2
Width: 632
VWidth: 6
Flags: HMW
LayerCount: 4
Back
SplineSet
25 452 m 21
 48 689 203 840 393 840 c 4
 513 840 614 774 614 653 c 4
 614 591 583 519 504 497 c 13
 485 522 l 21
 504 538 534 588 534 622 c 4
 534 706 454 754 357 754 c 4
 217 754 94 651 72 452 c 13
 25 452 l 21
EndSplineSet
Fore
SplineSet
25 452 m 1
 28.0958809161 654.4921875 204.258013481 839 402 839 c 4
 513.013824885 839 621 768 621 654 c 0
 621 557 558 506 488 506 c 0
 434.084745763 506 387 538.20754717 387 597 c 0
 387 665.835747664 466.597765363 717.803921569 549 698 c 1
 547 674 l 1
 512.323869828 678.878153048 437.670471222 667.949427986 437 601 c 0
 436.727394727 574.228419013 457.906666667 544 493 544 c 0
 530.215384615 544 552 580.423529412 552 630 c 0
 552 706 503.229508197 755 377 755 c 0
 243.17739899 755 84.43956492 637.540039062 72 452 c 1
 25 452 l 1
EndSplineSet
EndChar

StartChar: U_comp
Encoding: 576 -1 575
GlifName: U__comp
Width: 0
VWidth: 6
Flags: HMW
LayerCount: 4
Back
SplineSet
1 8 m 13
 31 -22 l 21
 18 -40 -21.3466796875 -70.2509765625 -15 -124 c 4
 -9.234375 -172.82421875 41 -203 110 -202 c 4
 172.642578125 -201.091796875 218 -174 253 -139 c 13
 297 -228 l 4
 244 -278 164.443359375 -295.733398438 100 -294 c 4
 8.02734375 -291.526367188 -73.791015625 -256.041015625 -74 -140 c 4
 -74.1220703125 -71.982421875 -23.5234375 -13.462890625 1 8 c 13
EndSplineSet
Fore
SplineSet
-131 -104 m 0
 -131 -6 -55 37 1 38 c 9
 1 -12 l 17
 -41 -13 -78 -41 -78 -88 c 0
 -78 -142.133333333 -26.4732824427 -172 57 -172 c 0
 169.566137566 -172 225.35978836 -73.4460431655 242 -39 c 1
 266 -42 276 -51 277 -68 c 1
 266 -116 209 -264 46 -264 c 0
 -31 -264 -131 -223 -131 -104 c 0
EndSplineSet
EndChar

StartChar: al_comp
Encoding: 577 -1 576
GlifName: al_comp
Width: 812
VWidth: 16
Flags: HMW
LayerCount: 4
Back
SplineSet
715.779296875 343 m 5
 715.779296875 343 705.562570599 792.438058305 321.696289062 802.0703125 c 4
 283.9921875 803.028320312 263 802 263 802 c 21
 275 824 l 5
 261.73797433 760.249514996 236.408921596 711.005164639 134 670 c 13
 125 676 l 21
 211.557976489 743.830209208 225.213922465 804.878709627 232 830 c 5
 244 800 l 5
 200.814453125 791.065429688 184.077148438 788.913085938 148 771 c 5
 130 824 l 14
 130.09765625 824.075195312 210.953125 871.676757812 347.984375 859.109375 c 4
 704.793032087 825.98499966 731 480.400857546 731 333 c 13
 715.779296875 343 l 5
EndSplineSet
Fore
SplineSet
116 834 m 4
 116 834 192 894 325 892 c 0
 704 888 731 511 731 363 c 9
 716 373 l 1
 716 373 706 822 322 832 c 0
 284 833 263 832 263 832 c 17
 275 854 l 1
 262 790 248 742 146 701 c 9
 137 707 l 17
 224 775 225 835 232 860 c 1
 244 830 l 1
 187 815 167 804 120 783 c 1
 112 790 110 808 116 834 c 4
EndSplineSet
EndChar

StartChar: uni002F
Encoding: 578 47 577
GlifName: uni002F_
Width: 629
VWidth: 0
Flags: HMW
LayerCount: 4
Back
SplineSet
112 -80 m 17
 534 842 l 9
 636 846 l 17
 607.073242188 787.296875 551.291015625 669.911132812 500.92578125 560 c 0
 213 -80 l 9
 112 -80 l 17
EndSplineSet
Fore
SplineSet
13 -80 m 17
 435 842 l 9
 516 846 l 17
 487 787 431 670 381 560 c 2
 93 -80 l 9
 13 -80 l 17
EndSplineSet
EndChar

StartChar: uni0021
Encoding: 581 33 580
GlifName: uni0021
Width: 330
VWidth: 153
Flags: HMW
LayerCount: 4
Back
SplineSet
89 772 m 1xa0
 116 796 203 805 237 801 c 1
 215.63671875 608.21875 200.844726562 435.486328125 193 208 c 1
 112 206 l 1
 105 399 97 610 89 772 c 1xa0
EndSplineSet
Refer: 593 46 N 1 0 0 1 29 -10 2
Fore
SplineSet
89 772 m 1
 112 792 178 802 218 802 c 0
 225 802 232 802 237 801 c 1
 216 608 201 435 193 208 c 1
 112 206 l 1
 105 399 97 610 89 772 c 1
EndSplineSet
Refer: 593 46 N 1 0 0 1 29 -10 2
EndChar

StartChar: uni0027
Encoding: 587 39 586
GlifName: uni0027
Width: 206
VWidth: 79
Flags: HMW
LayerCount: 4
Back
SplineSet
52.576171875 777.809570312 m 1
 49.130859375 714.051757812 36.572265625 624.30078125 25.99609375 551.19921875 c 0
 67.4169921875 532.291015625 l 0
 104.537109375 593.125976562 158.446289062 709.481445312 171.279296875 780.151367188 c 1
 132.608398438 811.336914062 70.1064453125 792.428710938 52.576171875 777.809570312 c 1
EndSplineSet
Fore
SplineSet
26 551 m 1
 67 532 l 1
 104 593 158 709 171 780 c 1
 156 792 137 797 118 797 c 0
 90 797 64 787 53 778 c 1
 50 714 37 624 26 551 c 1
EndSplineSet
EndChar

StartChar: uni0028
Encoding: 588 40 587
GlifName: uni0028
Width: 371
VWidth: 153
Flags: HMW
LayerCount: 4
Back
SplineSet
81 235 m 0
 63 462 145 696 265 883 c 1
 336 849 l 1
 255 717 199 483 201 322 c 0
 202 191 215 18 319 -110 c 1
 257 -164 l 1
 199 -118 96 41 81 235 c 0
EndSplineSet
Fore
SplineSet
79 298 m 0
 79 505 156 713 265 883 c 1
 316 849 l 5
 236 719 181 491 181 330 c 4
 181 194 193 20 299 -110 c 5
 257 -164 l 1
 199 -118 96 41 81 235 c 0
 79 256 79 277 79 298 c 0
EndSplineSet
EndChar

StartChar: uni0029
Encoding: 589 41 588
GlifName: uni0029
Width: 371
VWidth: 153
Flags: HMW
LayerCount: 4
Back
SplineSet
52 -95 m 5
 133 37 189.716796875 241.00390625 192 402 c 4
 194 543 163 696 69 814 c 5
 131 865 l 5
 184 817 292 683 307 489 c 4
 325 262 237 54 117 -133 c 5
 52 -95 l 5
EndSplineSet
Fore
SplineSet
52 -95 m 5
 135 41 192 246 192 415 c 0
 192 552 160 700 69 814 c 5
 131 865 l 5
 184 817 292 683 307 489 c 4
 309 469 309 450 309 430 c 0
 309 226 226 38 117 -133 c 5
 52 -95 l 5
EndSplineSet
EndChar

StartChar: uni002B
Encoding: 591 43 590
GlifName: uni002B_
Width: 618
VWidth: 153
Flags: HMW
LayerCount: 4
Back
SplineSet
272 632 m 1
 354 618 l 1
 344 425 344 303 354 131 c 1
 327 133 306 139 272 141 c 1
 272 632 l 1
47 343 m 5
 61 432 l 5
 254 422 396 422 568 432 c 5
 566 405 560 377 558 343 c 5
 47 343 l 5
EndSplineSet
Fore
SplineSet
272 141 m 1
 272 632 l 1
 354 618 l 1
 349 522 346 443 346 367 c 0
 346 291 349 217 354 131 c 1
 327 133 306 139 272 141 c 1
47 343 m 5
 61 432 l 5
 157 427 241 424 322 424 c 0
 403 424 482 427 568 432 c 5
 566 405 560 377 558 343 c 5
 47 343 l 5
EndSplineSet
EndChar

StartChar: uni002C
Encoding: 592 44 591
GlifName: uni002C_
Width: 198
VWidth: 79
Flags: HMW
LayerCount: 4
Back
SplineSet
51.1708984375 85.06640625 m 1
 77.84765625 -15.8251953125 61.216796875 -108.592773438 37.705078125 -152.932617188 c 0
 81.69140625 -177.944335938 l 4
 124.313074919 -134.368164062 193.261731323 -3.9580078125 178.772460938 79.734375 c 1
 141.956054688 113.088867188 69.5107421875 98.654296875 51.1708984375 85.06640625 c 1
EndSplineSet
Fore
SplineSet
38 -153 m 1
 82 -178 l 1
 121 -138 181 -28 181 55 c 0
 181 63 180 72 179 80 c 1
 162 95 148 100 125 100 c 0
 97 100 93 92 83 85 c 5
 93 48 87 13 87 -20 c 4
 87 -77 53 -125 38 -153 c 1
EndSplineSet
EndChar

StartChar: uni002D
Encoding: 593 45 592
GlifName: uni002D_
Width: 589
VWidth: 153
Flags: HMW
LayerCount: 4
Back
SplineSet
47 343 m 1
 61 432 l 1
 254 422 356 422 528 432 c 1
 526 405 520 377 518 343 c 1
 47 343 l 1
EndSplineSet
Fore
SplineSet
47 343 m 1
 61 432 l 1
 157 427 231 424 302 424 c 0
 373 424 442 427 528 432 c 1
 526 405 520 377 518 343 c 1
 47 343 l 1
EndSplineSet
EndChar

StartChar: uni002E
Encoding: 594 46 593
GlifName: uni002E_
Width: 247
VWidth: 79
Flags: HMW
LayerCount: 4
Back
SplineSet
43.8271484375 48.6171875 m 0
 43.8271484375 95.7560889354 79.5591184663 129.618164062 125.59375 129.618164062 c 0
 166.916992188 129.618164062 202.801757812 100.114369841 202.801757812 53.0751953125 c 0
 202.801757812 4.19140625 167.746731138 -28.3994140625 120.59375 -28.3994140625 c 0
 74.0818904992 -28.3994140625 43.8271484375 -0.265625 43.8271484375 48.6171875 c 0
EndSplineSet
Fore
SplineSet
50 49 m 0
 50 88 78 122 124 122 c 0
 165 122 198 100 198 53 c 0
 198 4 171 -21 124 -21 c 4
 84 -21 50 0 50 49 c 0
EndSplineSet
EndChar

StartChar: uni0030
Encoding: 595 48 594
GlifName: uni0030
Width: 696
VWidth: 153
Flags: HMW
LayerCount: 4
Back
SplineSet
58.0029296875 312.139648438 m 0
 58.5109013241 557.976238092 175.295252349 678.568041503 340.72265625 688.151367188 c 0
 472.646343247 694.520566954 628.345851137 600.80828709 629.262695312 360.750976562 c 0
 630.051045861 177.670568393 555.640903256 -0.93871362553 356.286132812 -5.2470703125 c 0
 171.999154101 -9.2421875 57.5585278658 118.194351649 58.0029296875 312.139648438 c 0
183.572265625 362.72265625 m 0
 184.513072302 184.775913111 248.138552286 66.4130461465 364.352539062 67.8310546875 c 0
 456.926900722 69.555506026 505.191618806 178.36752007 504.521484375 342.618164062 c 0
 503.983313219 515.715499916 444.190558798 626.806495111 344.448242188 625.96484375 c 4
 274.187421878 625.371964849 182.274858269 547.476879437 183.572265625 362.72265625 c 0
EndSplineSet
Fore
SplineSet
58 311 m 0
 58 557 175 678 341 688 c 0
 345 688 349 688 353 688 c 0
 483 688 629 592 629 358 c 0
 629 173 553 -5 348 -5 c 0
 169 -5 58 121 58 311 c 0
184 367 m 0
 184 189 246 68 362 68 c 0
 456 68 505 176 505 339 c 0
 505 513 446 626 346 626 c 0
 275 626 184 549 184 367 c 0
EndSplineSet
EndChar

StartChar: uni0031
Encoding: 596 49 595
GlifName: uni0031
Width: 422
VWidth: 79
Flags: HMW
LayerCount: 4
Back
SplineSet
54 644 m 1
 154.528 642 298 695 298 695 c 1
 288 591.489361702 287 85.7659574468 278 0 c 1
 174 0 l 1
 189 196.138996139 190 447.196911197 183 508 c 0
 178 553 132 583 60 583 c 1
 54 644 l 1
65 61 m 1
 131 57 179 79 183 137 c 1
 284 151 l 1
 282 56 354 62 382 63 c 1
 392 0 l 1
 72 0 l 1
 65 61 l 1
EndSplineSet
Fore
SplineSet
60 583 m 1
 60 644 l 1
 160 644 298 695 298 695 c 1
 288 591 287 86 278 0 c 1
 174 0 l 1
 183 121 187 263 187 368 c 0
 187 433 186 485 183 508 c 0
 178 553 132 583 60 583 c 1
72 0 m 1
 72 61 l 1
 130 61 179 83 183 137 c 1
 284 151 l 1
 282 71 333 63 366 63 c 0
 372 63 378 63 382 63 c 1
 392 0 l 1
 72 0 l 1
EndSplineSet
EndChar

StartChar: uni0032
Encoding: 597 50 596
GlifName: uni0032
Width: 650
VWidth: 153
Flags: HMW
LayerCount: 4
Back
SplineSet
93 631 m 1xf0
 145.966796875 660 263.942382812 694 337 696 c 0
 462.460607512 699.434566096 568.866055899 649.357544605 570 531 c 0xf0
 572.145507812 307.05859375 220.099609375 91.6962890625 152 60 c 5
 184 95.2607421875 l 1
 431 98.0107421875 l 1
 509 98.0107421875 518 150 525 179.428710938 c 1
 597 188 l 1xe8
 588 0 l 1
 78 0 l 0
 63 62 l 1
 125.590820312 95.818359375 281.557255787 219.917660919 342 287 c 0
 412.368188284 365.098086519 436.409179688 438.837890625 435 510 c 0
 433.584960938 581.45703125 393.31074143 636.128577101 312 634 c 0
 256.705509282 632.552484153 185.674804688 613.6484375 163 513 c 1
 96 504 l 1
 90 571 93 631 93 631 c 1xf0
EndSplineSet
Fore
SplineSet
63 62 m 1
 126 96 282 220 342 287 c 0
 410 363 435 435 435 504 c 0
 435 578 397 634 317 634 c 0
 258 634 186 615 163 513 c 1
 96 504 l 1
 93 538 92 570 92 593 c 0
 92 616 93 631 93 631 c 1
 150 662 269 696 349 696 c 0
 470 696 570 645 570 529 c 0
 570 306 220 92 152 60 c 5
 184 95 l 1
 431 98 l 2
 509 98 518 150 525 179 c 1
 597 188 l 1
 588 0 l 1
 78 0 l 1
 63 62 l 1
EndSplineSet
EndChar

StartChar: uni0033
Encoding: 598 51 597
GlifName: uni0033
Width: 601
VWidth: 153
Flags: HMW
LayerCount: 4
Back
SplineSet
65 622 m 1xf0
 113 644 196.041977502 680.254382022 285 683 c 0
 447 688 512.0390625 617.694335938 513 529 c 0xf0
 514.17578125 420.447265625 414.359375 326.846679688 284.583984375 308 c 1
 274.573242188 332 l 1
 424.83984375 334.393554688 529.375976562 254.40625 533 134 c 0
 538.0078125 -32.40234375 388.161132812 -93.466796875 284 -113 c 0
 187.767578125 -131.045898438 84.0654296875 -123.888671875 57 -109 c 1
 47.4091796875 -70.81640625 59.1064453125 -12.2958984375 87 27 c 1
 113.126953125 -23.0263671875 181.330078125 -66.5859375 277 -57 c 0
 376.887695312 -46.9912109375 409.10546875 30.1591796875 408 114 c 0xe8
 406.58203125 221.557617188 298.0625 280.479492188 194 275 c 5
 187 340 l 1
 322.620117188 358.325195312 389 426 389 509 c 0
 389 594.326171875 329.998875384 628.079536027 267 626 c 0
 187.629025685 623.380035761 141.727539062 570.797851562 129 502 c 1
 68 491 l 1
 62 553.732421875 65 622 65 622 c 1xf0
EndSplineSet
Fore
SplineSet
54 -80 m 0
 54 -45 66 -3 87 27 c 1
 111 -18 169 -58 251 -58 c 0
 367 -58 408 18 408 110 c 0
 408 216 309 275 207 275 c 0
 203 275 198 275 194 275 c 5
 187 340 l 1
 323 358 389 426 389 509 c 0
 389 592 333 626 272 626 c 0
 189 626 142 572 129 502 c 1
 68 491 l 1
 65 522 64 555 64 580 c 0
 64 605 65 622 65 622 c 1
 117 646 205 683 301 683 c 0
 452 683 513 614 513 527 c 0
 513 419 414 327 285 308 c 1
 275 332 l 1
 277 332 279 332 281 332 c 0
 430 332 533 251 533 126 c 0
 533 -34 386 -94 284 -113 c 0
 244 -121 202 -124 165 -124 c 0
 114 -124 73 -118 57 -109 c 1
 55 -100 54 -91 54 -80 c 0
EndSplineSet
EndChar

StartChar: uni0034
Encoding: 599 52 598
GlifName: uni0034
Width: 717
VWidth: 79
Flags: HMW
LayerCount: 4
Back
SplineSet
418 394 m 9
 418 394 467.500976562 430.795898438 525 450 c 1
 501.643554688 161.8046875 496.552734375 64.859375 507 -112 c 1
 400 -112 l 1
 412.12890625 68.9462890625 421.905273438 229.84765625 418 394 c 9
101 149 m 1
 107 187.965820312 l 1
 235.759765625 185.998046875 584.572265625 191.107421875 680 198 c 13
 693 103 l 21
 71 100 l 1
 41 139 l 1
 160.438476562 294.509765625 270.741210938 517.298828125 306 653 c 1
 337.873046875 674.815429688 370.452148438 700.961914062 432 664 c 1
 399.35546875 546.94140625 234.150390625 244.427734375 101 149 c 1
EndSplineSet
Fore
SplineSet
400 -112 m 1
 410 41 419 180 419 319 c 0
 419 344 419 369 418 394 c 9
 418 394 468 431 525 450 c 1
 509 256 502 148 502 45 c 0
 502 -5 504 -54 507 -112 c 1
 400 -112 l 1
41 139 m 1
 160 295 271 517 306 653 c 1
 326 667 347 683 375 683 c 0
 391 683 410 677 432 664 c 1
 399 547 234 244 101 149 c 1
 101 188 l 1
 120 188 150 188 177 188 c 0
 333 188 599 192 680 198 c 13
 693 103 l 21
 71 103 l 1
 41 139 l 1
EndSplineSet
EndChar

StartChar: uni0035
Encoding: 600 53 599
GlifName: uni0035
Width: 594
VWidth: 153
Flags: HMW
LayerCount: 4
Back
SplineSet
84 330 m 1x60
 96.01171875 448.706054688 104.916992188 539.622070312 112 670 c 1x60
 223.895289157 663.987799865 380.93359375 669.82421875 477.461914062 676 c 1
 473 556 l 1xa0
 345.174804688 563.736328125 314.357421875 564 174 564 c 1
 166.451171875 401.630859375 l 5
 363.549804688 402.005859375 527.254882812 323.752929688 533 147 c 0
 538.49609375 -22.080078125 384.369140625 -104.45703125 279 -122 c 0
 196.348632812 -135.760742188 76.0654296875 -126.888671875 49 -112 c 1
 39.4091796875 -73.81640625 47.1064453125 -14.2958984375 75 35 c 1
 101.126953125 -15.0263671875 166.561523438 -72.0087890625 270 -58 c 0
 352.681640625 -46.802734375 400.10546875 13.1591796875 401 112 c 4
 402.305664062 256.270507812 292.4921875 342.71875 84 330 c 1x60
EndSplineSet
Fore
SplineSet
45 -77 m 0
 45 -42 55 -1 75 35 c 1
 98 -10 154 -60 239 -60 c 0
 344 -60 401 4 401 115 c 0
 401 248 305 331 123 331 c 0
 110 331 98 331 84 330 c 1
 96 449 105 540 112 670 c 1
 145 668 183 667 221 667 c 0
 312 667 409 672 477 676 c 1
 473 556 l 1
 345 564 314 564 174 564 c 1
 166 402 l 6
 168 402 l 0
 366 402 533 322 533 138 c 0
 533 -25 383 -105 279 -122 c 0
 250 -127 216 -129 184 -129 c 0
 123 -129 67 -122 49 -112 c 1
 46 -102 45 -90 45 -77 c 0
EndSplineSet
EndChar

StartChar: uni0036
Encoding: 601 54 600
GlifName: uni0036
Width: 658
VWidth: 153
Flags: HMW
LayerCount: 4
Back
SplineSet
540 741 m 17
 284.46484375 743.53515625 177.043333472 492.340656466 192.689453125 277.728515625 c 0
 203.114023512 134.738469679 259.487304688 45.5869140625 350.592773438 46.1484375 c 0
 439.186523438 46.611328125 486.3359375 128.610351562 489.129882812 241.5546875 c 0
 492.34765625 371.654296875 422.583007812 421.510742188 353.522460938 424.196289062 c 0
 236.6875 428.739257812 175.09765625 346.076171875 163 335 c 1
 165.350585938 335.498046875 139.87109375 371.251953125 142 372 c 1
 224.063476562 486.946289062 317.6953125 508.44921875 382.149414062 507.91015625 c 0
 481.986535498 507.075167522 612.190429688 434.206054688 607.555664062 252.581054688 c 0
 603.4296875 115.400390625 506.555664062 -16.080078125 326.201171875 -13.9892578125 c 0
 134.858398438 -11.2333984375 77.0078125 168.609375 74.05078125 283 c 0
 66.095703125 586.403320312 240.883789062 743.340820312 426 787.263671875 c 0
 459.522460938 795.217773438 497.977539062 800.2578125 531.708984375 795.671875 c 1
 540 741 l 17
EndSplineSet
Fore
SplineSet
74 283 m 0
 74 290 74 296 74 303 c 0
 74 593 245 744 426 787 c 0
 451 793 478 797 504 797 c 0
 513 797 523 797 532 796 c 1
 540 741 l 17
 539 741 537 741 536 741 c 0
 299 741 191 522 191 319 c 0
 191 305 192 292 193 278 c 0
 203 135 259 46 350 46 c 0
 441 46 489 133 489 250 c 0
 489 377 419 424 344 424 c 0
 233 424 175 346 163 335 c 1
 165 335 140 371 142 372 c 1
 223 486 316 508 380 508 c 0
 480 508 608 438 608 262 c 0
 608 119 510 -14 330 -14 c 0
 136 -14 77 168 74 283 c 0
EndSplineSet
EndChar

StartChar: uni0037
Encoding: 602 55 601
GlifName: uni0037
Width: 662
VWidth: 0
Flags: HMW
LayerCount: 4
Back
SplineSet
80 665 m 1x80
 265.745117188 659.282226562 478.43359375 666.469726562 573 672 c 1
 619 618 l 5
 475.087890625 456.462890625 300.962890625 126.818359375 241 -128 c 5
 191.982421875 -127.92578125 144.193359375 -108.295898438 130 -75 c 5
 175.22265625 86.9560546875 363.444335938 451.646484375 539.6015625 601 c 1x60
 542 573 l 1
 253.124023438 573 l 1
 170.416015625 568.975585938 134.612304688 512.17578125 119 470 c 1
 72 465 l 1
 80 665 l 1x80
EndSplineSet
Fore
SplineSet
72 465 m 1
 80 665 l 1
 128 664 179 663 228 663 c 0
 369 663 503 668 573 672 c 1
 619 618 l 5
 475 456 301 127 241 -128 c 5
 192 -128 144 -108 130 -75 c 5
 175 87 364 452 540 601 c 1
 542 573 l 1
 253 573 l 1
 170 569 135 512 119 470 c 1
 72 465 l 1
EndSplineSet
EndChar

StartChar: uni0038
Encoding: 603 56 602
GlifName: uni0038
Width: 626
VWidth: 153
Flags: HMW
LayerCount: 4
Back
SplineSet
185 597 m 0xe8
 178.835922721 682.760506178 241.064453125 731.942382812 309 731 c 4
 389.118164062 729.922851562 434.44140625 671.887695312 435 596 c 0
 435.471679688 524.233398438 380.927734375 443.09765625 320 420 c 1
 348 390 l 1
 420.078125 396.875976562 536.644961191 464.514760679 539 597 c 4xf0
 541.08984375 714.56640625 439.662109375 791.943359375 313 790.713867188 c 0
 186.431640625 789.434570312 70.0693359375 708.654296875 77 568 c 0
 88.677734375 331.010742188 433.971679688 382.666015625 437 192 c 0
 438.244140625 113.67578125 404.384749828 39.7887206706 309 38.1484375 c 4
 211.096679688 36.46484375 167.299804688 111.211914062 167 183 c 0
 166.7265625 248.495117188 200.333007812 315.018554688 288 350 c 0
 292.915039062 351.9609375 276.701171875 391.338867188 282 392 c 1
 133.231445312 383.083007812 48 280.234375 48 174 c 0
 48 74 114.421875 -26.43359375 308 -24.9892578125 c 0
 442.01953125 -23.9580078125 560.465820312 53.3896484375 565 184 c 0
 574.352539062 446.525390625 198.338867188 411.416992188 185 597 c 0xe8
EndSplineSet
Fore
SplineSet
48 174 m 0
 48 75 114 -25 304 -25 c 0
 443 -25 565 55 565 194 c 0
 565 446 198 414 185 597 c 0
 185 601 185 605 185 609 c 0
 185 687 243 731 307 731 c 0
 389 731 435 672 435 595 c 0
 435 523 381 443 320 420 c 1
 348 390 l 1
 421 397 539 466 539 601 c 0
 539 716 440 791 316 791 c 0
 191 791 77 714 77 580 c 0
 77 326 437 388 437 188 c 0
 437 110 402 38 306 38 c 0
 210 38 167 112 167 184 c 0
 167 249 201 315 288 350 c 0
 289 350 289 352 289 353 c 0
 289 361 281 383 281 390 c 0
 281 391 281 392 282 392 c 1
 133 383 48 280 48 174 c 0
EndSplineSet
EndChar

